SplineFontDB: 3.0
FontName: Manjari-Bold
FullName: Manjari Bold
FamilyName: Manjari
Weight: Bold
Copyright: Digitized data copyright (c) 2014, Santhosh Thottingal, Kavya Manohar,\nSwathanthra Malayalam Computing(http://smc.org.in)
Version: 1.0.0-alpha.20151120
ItalicAngle: 0
UnderlinePosition: -600
UnderlineWidth: 100
Ascent: 1434
Descent: 614
InvalidEm: 0
sfntRevision: 0x00060000
LayerCount: 2
Layer: 0 0 "Back" 1
Layer: 1 0 "Fore" 0
XUID: [1021 348 -393509193 1121778]
FSType: 0
OS2Version: 1
OS2_WeightWidthSlopeOnly: 0
OS2_UseTypoMetrics: 1
CreationTime: 1201144287
ModificationTime: 1456634187
PfmFamily: 33
TTFWeight: 700
TTFWidth: 5
LineGap: 0
VLineGap: 0
Panose: 2 0 5 3 0 0 0 0 0 0
OS2TypoAscent: 1500
OS2TypoAOffset: 0
OS2TypoDescent: -900
OS2TypoDOffset: 0
OS2TypoLinegap: 0
OS2WinAscent: 1500
OS2WinAOffset: 0
OS2WinDescent: 900
OS2WinDOffset: 0
HheadAscent: 1500
HheadAOffset: 0
HheadDescent: -900
HheadDOffset: 0
OS2SubXSize: 1331
OS2SubYSize: 1433
OS2SubXOff: 274
OS2SubYOff: 286
OS2SupXSize: 1331
OS2SupYSize: 1433
OS2SupXOff: -944
OS2SupYOff: 983
OS2StrikeYSize: 102
OS2StrikeYPos: 530
OS2Vendor: 'SMC '
OS2CodePages: 00000001.00000000
OS2UnicodeRanges: 80800003.00002000.00000000.00000000
MarkAttachClasses: 1
DEI: 91125
LangName: 1100 "" "" "" "" "" "" "" "" "" "" "" "" "" "" "" "" "" "" "+DS4NHg1NDRwNMA0/"

StartChar: .notdef
Encoding: 65536 -1 0
Width: 692
GlyphClass: 2
Flags: HW
LayerCount: 2
Fore
SplineSet
127 105 m 1
 527 105 l 1
 527 1038 l 1
 127 1038 l 1
 127 105 l 1
20 1 m 1
 20 1144 l 1
 631 1144 l 1
 631 1 l 1
 20 1 l 1
EndSplineSet
EndChar

StartChar: exclam
Encoding: 33 33 4
Width: 352
GlyphClass: 2
Flags: HW
LayerCount: 2
Fore
SplineSet
176 221 m 0
 243 221 297 167 297 100 c 0
 297 33 243 -21 176 -21 c 0
 109 -21 55 33 55 100 c 0
 55 167 109 221 176 221 c 0
170 1360 m 2
 171 1360 l 0
 220 1360 276 1323 276 1267 c 1
 261 375 l 1
 261 327 225 282 171 282 c 0
 117 282 81 327 81 375 c 1
 65 1267 l 1
 65 1323 122 1359 170 1360 c 2
EndSplineSet
EndChar

StartChar: numbersign
Encoding: 35 35 6
Width: 937
GlyphClass: 2
Flags: HW
LayerCount: 2
Fore
SplineSet
467 754 m 1
 415 475 l 1
 608 475 l 1
 657 754 l 1
 467 754 l 1
824 754 m 1
 774 475 l 1
 960 475 l 1
 960 322 l 1
 747 322 l 1
 680 -55 l 1
 514 -55 l 1
 580 322 l 1
 386 322 l 1
 316 -55 l 1
 152 -55 l 1
 223 322 l 1
 43 322 l 1
 43 475 l 1
 252 475 l 1
 304 754 l 1
 113 754 l 1
 113 907 l 1
 332 907 l 1
 398 1256 l 1
 561 1256 l 1
 496 907 l 1
 684 907 l 1
 746 1256 l 1
 913 1256 l 1
 851 907 l 1
 1016 907 l 1
 1016 754 l 1
 824 754 l 1
EndSplineSet
EndChar

StartChar: dollar
Encoding: 36 36 7
Width: 1155
GlyphClass: 2
Flags: HW
LayerCount: 2
Fore
SplineSet
458 1197 m 1
 370 1171 304 1102 304 1009 c 0
 304 923 365 872 457 836 c 1
 458 1197 l 1
656 191 m 1
 775 206 872 269 872 373 c 0
 872 486 780 540 657 576 c 1
 656 191 l 1
68 288 m 0
 68 348 131 383 174 383 c 0
 195 383 215 376 233 361 c 0
 234 361 l 1
 237 358 l 1
 237 357 l 0
 288 298 366 242 456 212 c 1
 457 624 l 1
 272 674 101 782 101 1011 c 0
 101 1221 266 1375 464 1404 c 1
 478 1441 511 1471 552 1471 c 0
 605 1471 645 1438 655 1394 c 1
 814 1354 940 1247 991 1125 c 1
 998 1111 998 1100 998 1090 c 0
 998 1039 940 994 894 994 c 0
 838 994 808 1047 785 1080 c 1
 750 1130 708 1164 658 1185 c 1
 657 780 l 1
 861 725 1074 621 1074 374 c 0
 1074 145 866 12 656 -9 c 1
 656 -99 l 0
 656 -154 611 -199 556 -199 c 0
 501 -199 456 -153 456 -99 c 0
 456 5 l 1
 338 34 235 95 147 170 c 1
 116 196 68 236 68 288 c 0
EndSplineSet
EndChar

StartChar: percent
Encoding: 37 37 8
Width: 1584
GlyphClass: 2
Flags: HW
LayerCount: 2
Fore
SplineSet
673 988 m 0
 686 1070 644 1128 588 1163 c 0
 520 1205 437 1182 389 1137 c 0
 386 1130 382 1123 377 1117 c 0
 340 1072 332 1023 343 978 c 0
 363 893 451 828 545 851 c 0
 610 867 663 920 673 988 c 0
450 1370 m 1
 632 1404 779 1282 833 1164 c 0
 888 1043 868 918 811 825 c 1
 1248 1423 l 2
 1276 1463 1336 1485 1384 1452 c 0
 1438 1415 1440 1350 1413 1309 c 2
 456 -1 l 1
 455 -2 l 2
 455 -2 453 -4 450 -8 c 0
 420 -52 358 -52 324 -29 c 0
 275 4 259 65 293 114 c 2
 778 778 l 2
 776 775 773 773 771 771 c 0
 685 677 529 619 370 685 c 0
 252 733 130 872 151 1038 c 0
 173 1218 275 1331 450 1370 c 1
1317 279 m 0
 1330 361 1288 418 1232 453 c 0
 1164 495 1082 472 1034 427 c 0
 1029 418 1026 413 1021 408 c 0
 984 363 977 314 988 269 c 0
 1008 184 1095 119 1189 142 c 0
 1254 158 1307 211 1317 279 c 0
1094 661 m 1
 1276 695 1424 572 1477 454 c 0
 1544 308 1502 157 1415 62 c 0
 1329 -32 1173 -91 1014 -25 c 0
 896 23 774 163 795 329 c 0
 817 509 919 622 1094 661 c 1
EndSplineSet
EndChar

StartChar: ampersand
Encoding: 38 38 9
Width: 1216
GlyphClass: 2
Flags: HW
LayerCount: 2
Fore
SplineSet
486 630 m 1
 369 569 264 493 264 393 c 0
 264 275 362 185 495 185 c 0
 598 185 691 249 744 311 c 1
 660 415 575 521 486 630 c 1
536 864 m 1
 646 931 693 996 693 1062 c 0
 693 1133 634 1189 560 1189 c 0
 483 1189 420 1138 420 1060 c 0
 420 1004 456 963 536 864 c 1
883 1061 m 0
 883 923 801 812 653 720 c 1
 724 632 785 558 837 494 c 1
 851 544 859 593 861 646 c 1
 862 693 904 735 956 735 c 0
 995 735 1051 703 1051 657 c 0
 1051 540 1026 429 975 325 c 1
 1074 200 1121 140 1128 131 c 1
 1138 117 1141 99 1141 79 c 0
 1141 26 1095 -13 1043 -13 c 0
 1014 -13 987 2 968 27 c 1
 927 83 890 130 863 165 c 1
 775 70 653 -6 494 -6 c 0
 264 -6 76 157 76 379 c 0
 76 580 193 681 369 776 c 1
 310 853 231 949 231 1068 c 0
 231 1241 384 1381 551 1381 c 0
 738 1381 883 1243 883 1061 c 0
EndSplineSet
EndChar

StartChar: quotesingle
Encoding: 39 39 10
Width: 382
GlyphClass: 2
Flags: HW
LayerCount: 2
Fore
SplineSet
185 930 m 0
 129 930 85 977 85 1031 c 1
 75 1351 l 1
 75 1412 137 1450 187 1451 c 0
 238 1452 308 1413 307 1350 c 1
 307 1348 l 1
 285 1031 l 1
 283 975 239 930 185 930 c 0
EndSplineSet
EndChar

StartChar: parenleft
Encoding: 40 40 11
Width: 705
GlyphClass: 2
Flags: HW
LayerCount: 2
Fore
SplineSet
631 -276 m 0
 631 -331 589 -380 533 -380 c 0
 509 -380 486 -372 469 -358 c 1
 258 -196 75 91 75 440 c 0
 75 788 253 1076 463 1238 c 1
 480 1252 503 1260 527 1260 c 0
 583 1260 625 1211 625 1157 c 0
 625 1126 610 1098 585 1080 c 1
 420 951 275 717 275 441 c 0
 275 164 424 -72 590 -200 c 1
 617 -219 631 -245 631 -276 c 0
EndSplineSet
EndChar

StartChar: asterisk
Encoding: 42 42 13
Width: 955
GlyphClass: 2
Flags: HW
LayerCount: 2
Fore
SplineSet
-24 1236 m 0
 -24 1286 13 1337 67 1337 c 0
 89 1337 107 1331 122 1322 c 1
 390 1159 l 1
 386 1362 l 1
 386 1378 l 0
 386 1424 441 1459 481 1459 c 0
 533 1459 576 1415 576 1364 c 1
 580 1160 l 1
 834 1323 l 1
 850 1333 868 1339 890 1339 c 0
 933 1339 981 1299 981 1253 c 0
 981 1215 966 1182 936 1163 c 0
 666 990 l 1
 935 827 l 1
 963 810 981 783 981 750 c 0
 981 700 945 650 890 650 c 0
 869 650 851 656 836 665 c 1
 583 818 l 1
 588 549 l 1
 588 533 l 0
 588 486 533 452 493 452 c 0
 441 452 398 496 398 547 c 1
 393 817 l 1
 122 643 l 1
 105 632 86 628 66 628 c 0
 11 628 -25 678 -25 728 c 0
 -25 761 -7 786 20 803 c 1
 307 987 l 1
 23 1160 l 1
 -5 1177 -24 1203 -24 1236 c 0
EndSplineSet
EndChar

StartChar: plus
Encoding: 43 43 14
Width: 1050
GlyphClass: 2
Flags: HW
LayerCount: 2
Fore
SplineSet
602 358 m 1
 602 0 l 1
 448 0 l 1
 448 358 l 1
 75 358 l 1
 75 512 l 1
 448 512 l 1
 448 885 l 1
 602 885 l 1
 602 512 l 1
 975 512 l 1
 975 358 l 1
 602 358 l 1
EndSplineSet
EndChar

StartChar: comma
Encoding: 44 44 15
Width: 505
GlyphClass: 2
Flags: HW
LayerCount: 2
Fore
SplineSet
75 139 m 0
 75 223 145 308 231 308 c 0
 264 308 295 303 321 289 c 1
 431 230 456 114 409 -37 c 1
 374 -151 313 -238 225 -296 c 1
 209 -307 190 -314 172 -314 c 0
 119 -314 77 -268 77 -214 c 0
 77 -182 95 -155 123 -136 c 1
 164 -109 193 -73 212 -28 c 1
 134 -13 75 57 75 139 c 0
EndSplineSet
EndChar

StartChar: hyphen
Encoding: 45 45 16
Width: 618
GlyphClass: 2
Flags: HW
LayerCount: 2
Fore
SplineSet
75 341 m 1
 75 519 l 1
 543 519 l 1
 543 341 l 1
 75 341 l 1
EndSplineSet
EndChar

StartChar: period
Encoding: 46 46 17
Width: 489
GlyphClass: 2
Flags: HW
LayerCount: 2
Fore
SplineSet
244 -4 m 0
 153 -4 75 69 75 161 c 0
 75 253 153 325 244 325 c 0
 335 325 414 253 414 161 c 0
 414 69 335 -4 244 -4 c 0
EndSplineSet
EndChar

StartChar: slash
Encoding: 47 47 18
Width: 1011
GlyphClass: 2
Flags: HW
LayerCount: 2
Fore
SplineSet
874 1447 m 0
 934 1420 948 1357 928 1312 c 1
 266 -19 l 1
 262 -29 l 1
 240 -76 177 -88 140 -71 c 1
 87 -47 59 10 85 65 c 1
 747 1396 l 1
 770 1439 822 1471 874 1447 c 0
EndSplineSet
EndChar

StartChar: zero
Encoding: 48 48 19
Width: 1219
GlyphClass: 2
Flags: HW
LayerCount: 2
Fore
SplineSet
610 175 m 0
 848 175 944 418 944 696 c 0
 944 956 845 1185 613 1185 c 0
 376 1185 275 953 275 682 c 0
 275 409 373 175 610 175 c 0
606 -25 m 0
 232 -25 75 328 75 680 c 0
 75 1038 235 1379 607 1385 c 1
 624 1385 l 1
 989 1377 1144 1036 1144 688 c 0
 1144 321 985 -25 606 -25 c 0
EndSplineSet
EndChar

StartChar: one
Encoding: 49 49 20
Width: 772
GlyphClass: 2
Flags: HW
LayerCount: 2
Fore
SplineSet
166 983 m 0
 121 983 78 1033 78 1076 c 0
 78 1118 101 1171 150 1180 c 1
 201 1190 256 1237 307 1331 c 1
 325 1365 354 1387 390 1387 c 0
 447 1387 498 1351 498 1292 c 0
 497 186 l 1
 616 186 l 0
 663 186 697 131 697 91 c 0
 697 39 654 -4 602 -4 c 0
 170 -4 l 0
 118 -4 75 39 75 91 c 0
 75 131 109 186 156 186 c 0
 297 186 l 1
 297 1025 l 1
 268 1008 237 994 201 985 c 0
 199 985 l 1
 197 985 l 1
 190 984 180 983 166 983 c 0
EndSplineSet
EndChar

StartChar: two
Encoding: 50 50 21
Width: 1122
GlyphClass: 2
Flags: HW
LayerCount: 2
Fore
SplineSet
175 -3 m 2
 120 -3 75 42 75 97 c 0
 75 113 79 131 87 145 c 1
 157 269 247 380 355 474 c 1
 522 620 778 708 778 957 c 0
 778 1102 670 1215 530 1215 c 0
 414 1215 323 1128 303 1035 c 1
 293 992 251 955 204 955 c 0
 149 955 104 1000 104 1053 c 0
 104 1061 105 1068 106 1075 c 1
 144 1256 307 1415 532 1415 c 0
 791 1415 978 1215 978 961 c 0
 978 610 661 477 489 328 c 1
 444 288 399 242 362 197 c 1
 947 197 l 0
 1002 197 1047 152 1047 97 c 0
 1047 42 1002 -3 947 -3 c 0
 175 -3 l 2
EndSplineSet
EndChar

StartChar: three
Encoding: 51 51 22
Width: 1039
GlyphClass: 2
Flags: HW
LayerCount: 2
Fore
SplineSet
733 990 m 0
 733 1090 636 1177 523 1177 c 0
 434 1177 349 1117 328 1061 c 0
 309 1011 279 980 218 980 c 0
 174 980 127 1026 127 1069 c 0
 127 1087 131 1101 134 1111 c 0
 134 1111 l 1
 134 1111 l 0
 188 1255 329 1376 523 1376 c 0
 745 1376 934 1209 934 982 c 0
 934 866 877 774 813 712 c 1
 906 648 965 548 965 419 c 0
 965 164 746 -17 499 -17 c 0
 320 -17 175 83 94 195 c 1
 82 212 75 233 75 254 c 0
 75 308 127 345 180 345 c 0
 213 345 239 329 257 305 c 1
 303 245 393 184 493 184 c 0
 640 184 765 286 765 415 c 0
 765 550 671 591 504 592 c 1
 452 592 408 633 408 691 c 0
 408 764 469 797 521 797 c 0
 643 797 733 856 733 990 c 0
EndSplineSet
EndChar

StartChar: four
Encoding: 52 52 23
Width: 1303
GlyphClass: 2
Flags: HW
LayerCount: 2
Fore
SplineSet
728 587 m 1
 726 1003 l 1
 382 589 l 1
 728 587 l 1
929 88 m 2
 929 35 884 -7 829 -7 c 0
 774 -7 729 35 729 88 c 0
 729 89 l 1
 728 385 l 1
 175 387 l 1
 122 387 75 431 75 484 c 0
 75 507 81 529 96 548 c 0
 747 1336 l 0
 766 1360 793 1373 823 1373 c 0
 879 1373 925 1331 925 1276 c 1
 928 587 l 1
 1127 586 l 1
 1128 586 l 0
 1183 586 1228 542 1228 486 c 0
 1228 431 1184 384 1128 384 c 0
 1126 384 l 1
 928 385 l 1
 929 89 l 1
 929 88 l 2
EndSplineSet
EndChar

StartChar: five
Encoding: 53 53 24
Width: 1135
GlyphClass: 2
Flags: HW
LayerCount: 2
Fore
SplineSet
229 590 m 0
 183 590 125 622 125 673 c 0
 125 685 127 696 128 701 c 1
 232 1293 l 1
 240 1342 282 1377 330 1377 c 0
 942 1377 l 0
 991 1377 1042 1336 1042 1285 c 0
 1042 1226 1002 1177 942 1177 c 0
 414 1177 l 1
 368 918 l 1
 431 945 492 957 558 957 c 0
 839 957 1060 747 1060 469 c 0
 1060 188 834 -25 549 -25 c 0
 331 -25 161 105 85 258 c 1
 78 273 75 289 75 307 c 0
 75 352 122 395 169 395 c 0
 211 395 246 377 265 341 c 1
 313 250 412 175 550 175 c 0
 725 175 860 301 860 467 c 0
 860 632 731 755 545 755 c 0
 451 755 350 689 308 631 c 1
 290 605 262 590 229 590 c 0
EndSplineSet
EndChar

StartChar: six
Encoding: 54 54 25
Width: 1197
GlyphClass: 2
Flags: HW
LayerCount: 2
Fore
SplineSet
644 181 m 0
 808 181 922 300 922 460 c 0
 922 609 791 739 634 739 c 0
 475 739 347 608 347 457 c 0
 347 305 493 181 644 181 c 0
640 -18 m 0
 257 -18 75 353 75 713 c 0
 75 1067 269 1411 644 1411 c 0
 835 1411 980 1305 1055 1179 c 1
 1065 1164 1069 1144 1069 1124 c 0
 1069 1080 1026 1031 978 1031 c 0
 936 1031 901 1048 881 1080 c 1
 838 1151 753 1212 644 1212 c 0
 416 1212 300 1015 279 783 c 1
 360 868 487 937 622 937 c 0
 906 937 1122 728 1122 450 c 0
 1122 201 923 -18 640 -18 c 0
EndSplineSet
EndChar

StartChar: seven
Encoding: 55 55 26
Width: 1235
GlyphClass: 2
Flags: HW
LayerCount: 2
Fore
SplineSet
1060 1380 m 2
 1111 1380 1160 1341 1160 1284 c 0
 1160 1268 1156 1253 1149 1239 c 1
 948 853 780 454 643 44 c 1
 629 -2 590 -25 540 -25 c 0
 496 -25 448 18 448 62 c 0
 448 76 449 91 454 102 c 1
 578 472 726 832 900 1180 c 1
 175 1180 l 0
 120 1180 75 1225 75 1280 c 0
 75 1335 120 1380 175 1380 c 0
 1060 1380 l 2
EndSplineSet
EndChar

StartChar: eight
Encoding: 56 56 27
Width: 1070
GlyphClass: 2
Flags: HW
LayerCount: 2
Fore
SplineSet
794 386 m 0
 794 502 670 590 533 590 c 0
 398 590 275 509 275 386 c 0
 275 267 396 181 535 181 c 0
 674 181 794 267 794 386 c 0
319 996 m 0
 319 891 419 807 536 807 c 0
 651 807 751 881 751 995 c 0
 751 1097 645 1181 539 1181 c 0
 420 1181 319 1101 319 996 c 0
951 984 m 0
 951 871 904 779 813 707 c 1
 913 640 996 528 996 382 c 0
 996 140 771 -19 535 -19 c 0
 297 -19 75 138 75 384 c 0
 75 533 158 643 256 708 c 1
 175 774 120 873 120 999 c 0
 120 1214 317 1380 533 1380 c 0
 757 1380 951 1212 951 984 c 0
EndSplineSet
EndChar

StartChar: semicolon
Encoding: 59 59 30
Width: 425
GlyphClass: 2
Flags: HW
LayerCount: 2
Fore
SplineSet
221 306 m 0
 352 306 421 205 421 95 c 0
 421 55 414 11 399 -37 c 1
 364 -150 303 -239 215 -297 c 1
 198 -308 179 -314 161 -314 c 0
 108 -314 67 -267 67 -214 c 0
 67 -182 85 -156 113 -137 c 1
 153 -110 182 -73 201 -29 c 1
 122 -13 65 55 65 137 c 0
 65 221 135 306 221 306 c 0
244 574 m 0
 153 574 75 646 75 738 c 0
 75 830 153 905 244 905 c 0
 335 905 414 830 414 738 c 0
 414 646 335 574 244 574 c 0
EndSplineSet
EndChar

StartChar: less
Encoding: 60 60 31
Width: 1227
GlyphClass: 2
Flags: HW
LayerCount: 2
Fore
SplineSet
1021 963 m 2
 1032 968 1046 970 1058 970 c 0
 1110 970 1153 927 1153 875 c 0
 1153 838 1127 799 1092 786 c 1
 423 521 l 1
 1093 244 l 1
 1127 231 1153 194 1153 156 c 0
 1153 104 1110 61 1058 61 c 0
 1046 61 1032 63 1020 68 c 1
 133 435 l 1
 99 450 75 487 75 523 c 0
 75 560 100 598 135 611 c 1
 1021 963 l 2
EndSplineSet
EndChar

StartChar: equal
Encoding: 61 61 32
Width: 1109
GlyphClass: 2
Flags: HW
LayerCount: 2
Fore
SplineSet
75 702 m 4
 75 742 110 797 156 797 c 4
 163 797 168 797 175 796 c 5
 956 796 l 4
 1004 796 1035 739 1035 702 c 4
 1035 662 1002 604 954 604 c 4
 156 604 l 4
 108 604 75 663 75 702 c 4
75 378 m 0
 75 409 100 476 148 476 c 1
 171 475 l 1
 939 475 l 1
 954 476 l 1
 954 476 l 0
 1002 476 1035 417 1035 378 c 0
 1035 338 1000 283 954 283 c 0
 156 283 l 0
 110 283 75 338 75 378 c 0
EndSplineSet
EndChar

StartChar: question
Encoding: 63 63 34
Width: 949
GlyphClass: 2
Flags: HW
LayerCount: 2
Fore
SplineSet
75 958 m 0
 75 1172 253 1312 458 1312 c 0
 650 1312 802 1210 855 1058 c 1
 868 1022 874 986 874 949 c 0
 874 756 730 647 638 568 c 1
 581 519 540 487 540 413 c 0
 540 400 546 382 546 359 c 0
 546 310 506 271 456 271 c 0
 372 271 360 359 360 414 c 0
 360 647 590 728 661 843 c 1
 681 876 694 906 694 949 c 0
 694 1063 589 1132 460 1132 c 0
 344 1132 255 1066 255 957 c 0
 255 951 256 943 256 933 c 0
 256 884 216 846 166 846 c 0
 98 846 75 905 75 958 c 0
474 221 m 0
 541 221 595 167 595 100 c 0
 595 33 541 -21 474 -21 c 0
 407 -21 353 33 353 100 c 0
 353 167 407 221 474 221 c 0
EndSplineSet
EndChar

StartChar: at
Encoding: 64 64 35
Width: 1783
GlyphClass: 2
Flags: HW
LayerCount: 2
Fore
SplineSet
858 707 m 0
 739 707 640 604 640 483 c 0
 640 363 728 257 858 257 c 0
 984 257 1077 355 1079 480 c 1
 1078 606 981 707 858 707 c 0
866 56 m 0
 624 56 440 249 440 491 c 0
 440 708 631 909 846 909 c 0
 935 909 1015 886 1082 843 c 1
 1096 883 1133 911 1176 911 c 0
 1231 911 1276 866 1276 811 c 0
 1276 321 l 0
 1276 286 1320 252 1369 252 c 0
 1462 252 1506 357 1506 462 c 0
 1506 804 1210 1084 900 1084 c 0
 537 1084 273 793 273 480 c 0
 273 148 519 -137 869 -137 c 0
 940 -137 1012 -123 1088 -97 c 1
 1112 -89 1133 -83 1153 -83 c 0
 1206 -83 1233 -123 1233 -176 c 0
 1233 -228 1205 -268 1157 -286 c 1
 1060 -323 964 -341 869 -341 c 0
 407 -341 74 44 74 477 c 0
 74 884 415 1292 900 1292 c 0
 1304 1292 1658 942 1704 537 c 1
 1707 511 1708 486 1708 463 c 0
 1708 255 1590 49 1369 49 c 0
 1271 49 1192 90 1136 162 c 1
 1068 102 976 56 866 56 c 0
EndSplineSet
EndChar

StartChar: braceleft
Encoding: 123 123 36
Width: 718
GlyphClass: 2
Flags: HW
LayerCount: 2
Fore
SplineSet
50 407 m 4
 50 459 92 503 144 507 c 5
 201 510 222 554 223 620 c 6
 229 1084 l 6
 230 1189 257 1274 324 1330 c 4
 366.823242188 1366.29101562 419.129882812 1387.3046875 476.330078125 1387.3046875 c 4
 497.9375 1387.3046875 520.243164062 1384.30566406 543 1378 c 4
 584 1367 618 1324 618 1281 c 4
 618 1226 573 1181 518 1181 c 4
 503.599609375 1181 489.919921875 1185.3203125 477.17578125 1185.3203125 c 4
 468.6796875 1185.3203125 460.599609375 1183.40039062 453 1177 c 4
 432 1159 430 1128 429 1081 c 6
 423 617 l 6
 422 537 401 467 361 416 c 5
 408.838867188 359.375 429.03515625 282.733398438 429.03515625 191.659179688 c 4
 429.03515625 189.447265625 429.0234375 187.228515625 429 185 c 6
 427 -227 l 6
 427 -291 431 -333 466 -352 c 4
 474.052734375 -356.262695312 481.65625 -357.384765625 489.44921875 -357.384765625 c 4
 498.108398438 -357.384765625 507 -356 517 -356 c 4
 572 -356 617 -401 617 -456 c 4
 617 -503 580 -547 533 -554 c 4
 518.041992188 -556.510742188 503.489257812 -557.697265625 489.37890625 -557.697265625 c 4
 368.590820312 -557.697265625 280.234375 -470.749023438 248 -383 c 4
 227.833007812 -328.916992188 226.993164062 -278.194335938 226.993164062 -236.995117188 c 4
 226.993164062 -233.25 227 -229.583007812 227 -226 c 6
 229 186 l 6
 229 262 220 307 150 307 c 4
 95 307 50 352 50 407 c 4
EndSplineSet
EndChar

StartChar: bar
Encoding: 124 124 37
Width: 350
GlyphClass: 2
Flags: HW
LayerCount: 2
Fore
SplineSet
275 -295 m 2
 275 -341 236 -395 186 -395 c 0
 119 -395 75 -360 75 -294 c 0
 75 1211 l 0
 75 1265 118 1311 174 1311 c 0
 175 1311 l 0
 232 1311 275 1265 275 1210 c 0
 275 -295 l 2
EndSplineSet
EndChar

StartChar: asciitilde
Encoding: 126 126 39
Width: 822
GlyphClass: 2
Flags: HW
LayerCount: 2
Fore
SplineSet
622.504816966 1308.78515797 m 4
 622.504816966 1316.69218129 620.120117188 1325.9993679 620.120117188 1333.99023438 c 4
 620.120117188 1389.1953125 664.924804688 1434 720.130859375 1434 c 6
 720.536132812 1433.99902344 l 6
 786.41883592 1433.73197253 822.862949194 1377.44891872 822.862949194 1305.50831764 c 4
 822.862949194 1171.84765508 709.337574004 1059.6824113 576.965400457 1059.6824113 c 4
 436.581134462 1059.6824113 375.206327866 1157.732515 293.524414062 1210.74707031 c 4
 276.361497407 1221.88652151 264.335628118 1227.60711547 250.679927572 1227.60711547 c 4
 221.837266835 1227.60711547 200.139639035 1206.05875517 200.139639035 1177.62868573 c 4
 200.139639035 1172.86221222 201.0546875 1166.89650202 201.0546875 1162.0625 c 4
 201.0546875 1106.85742188 156.25 1062.05273438 101.044921875 1062.05273438 c 4
 38.5451187816 1062.05273438 -5.10218972898e-05 1112.82688378 -5.10218972898e-05 1179.95925239 c 4
 -5.10218972898e-05 1313.44602123 112.697371004 1427.87097706 247.792374835 1427.87097706 c 4
 389.315438227 1427.87097706 449.93971921 1328.8573764 532.686523438 1276.00683594 c 4
 549.359339022 1265.35880533 561.463512381 1259.91604122 574.049925329 1259.91604122 c 4
 602.001184499 1259.91604122 622.504816966 1280.43211543 622.504816966 1308.78515797 c 4
EndSplineSet
EndChar

StartChar: anuswara
Encoding: 3330 3330 41
Width: 822
GlyphClass: 2
Flags: HW
LayerCount: 2
Fore
SplineSet
598 310 m 0
 611 392 568 449 512 484 c 1
 444 526 361 503 313 458 c 1
 310 451 306 444 301 438 c 1
 264 393 256 344 267 299 c 1
 287 214 374 150 468 173 c 1
 534 189 588 242 598 310 c 0
375 691 m 1
 557 725 704 603 757 485 c 1
 824 339 780 188 694 93 c 0
 608 -1 453 -61 294 5 c 1
 176 53 55 193 76 359 c 1
 98 539 200 652 375 691 c 1
EndSplineSet
EndChar

StartChar: ml_a
Encoding: 3333 3333 43
Width: 2704
GlyphClass: 2
Flags: HW
LayerCount: 2
Fore
SplineSet
75 499 m 0
 75 836 365 1097 700 1097 c 0
 771 1097 843 1085 911 1059 c 1
 975 1080 1042 1092 1109 1092 c 0
 1310 1092 1459 1002 1548 880 c 1
 1635 1005 1779 1093 1977 1093 c 0
 2328 1093 2629 817 2629 467 c 0
 2629 214 2447 -23 2191 -23 c 0
 1960 -23 1790 162 1790 388 c 0
 1790 629 1971 812 2207 812 c 0
 2219 812 2231 811 2243 810 c 1
 2167 862 2081 893 1978 893 c 0
 1757 893 1655 749 1650 531 c 0
 1650 512 1651 492 1651 474 c 2
 1651 75 l 1
 1650 20 1606 -24 1551 -24 c 0
 1497 -24 1452 20 1451 74 c 2
 1450 472 l 1
 1450 531 l 1
 1444 744 1342 878 1136 891 c 1
 1175 838 1210 769 1210 688 c 0
 1210 630 1195 584 1167 540 c 1
 1232 484 1274 396 1274 306 c 0
 1274 115 1111 -23 924 -23 c 0
 764 -23 643 70 575 171 c 0
 515 261 488 365 488 468 c 0
 488 645 553 783 657 895 c 1
 457 875 275 713 275 498 c 0
 275 339 376 218 492 167 c 0
 526 153 553 112 553 75 c 0
 553 20 508 -25 453 -25 c 0
 441 -25 422 -21 411 -16 c 0
 230 64 75 251 75 499 c 0
963 415 m 0
 957 415 951 414 944 414 c 0
 889 414 844 459 844 514 c 0
 844 567 886 610 939 614 c 0
 977 616 1010 648 1010 687 c 0
 1010 749 949 809 905 839 c 1
 781 771 688 632 688 469 c 0
 688 321 775 177 924 177 c 0
 1001 177 1074 229 1074 303 c 0
 1074 365 1025 415 963 415 c 0
2412 403 m 0
 2412 523 2316 612 2206 612 c 0
 2085 612 1991 514 1991 390 c 0
 1991 272 2073 177 2191 177 c 0
 2301 177 2412 275 2412 403 c 0
EndSplineSet
EndChar

StartChar: ml_aa
Encoding: 3334 3334 44
Width: 2929
GlyphClass: 2
Flags: HW
LayerCount: 2
Fore
SplineSet
75 489.489257812 m 0
 75 827.206054688 364.1796875 1090.59765625 700.80078125 1090.59765625 c 0
 768.923828125 1090.59765625 837.821289062 1079.625 903.62890625 1055.47460938 c 1
 968.549804688 1078.05078125 1037.10253906 1089.79492188 1106.08203125 1089.79492188 c 0
 1308.76953125 1089.79492188 1458.88671875 998.9140625 1548.01757812 875.052734375 c 1
 1634.96289062 1000.15917969 1780.49804688 1087.71875 1978.46875 1087.71875 c 0
 2254.73632812 1087.71875 2480.54296875 924.4375 2576.69921875 708.1015625 c 1
 2709.99707031 626.504882812 2818.07910156 480.16796875 2846.81640625 307.236328125 c 0
 2852.07519531 275.588867188 2854.68554688 243.62890625 2854.68554688 211.711914062 c 0
 2854.68554688 142.814453125 2842.5234375 74.1162109375 2818.58984375 9.189453125 c 0
 2750.8203125 -174.654296875 2591.54003906 -314.962890625 2400.61523438 -359 c 0
 2357.73046875 -368.891601562 2314.15332031 -373.716796875 2270.75488281 -373.716796875 c 0
 2120.9453125 -373.716796875 1973.2734375 -316.212890625 1863.59765625 -211.080078125 c 0
 1846.02636719 -194.70703125 1831.76464844 -161.926757812 1831.76464844 -137.91015625 c 0
 1831.76464844 -82.7041015625 1876.56933594 -37.900390625 1931.77539062 -37.900390625 c 0
 1954.41699219 -37.900390625 1985.87695312 -50.802734375 2001.99804688 -66.701171875 c 0
 2072.72460938 -134.498046875 2175.04980469 -173.125 2274.63574219 -173.125 c 0
 2302.09375 -173.125 2329.34277344 -170.188476562 2355.6640625 -164.1171875 c 0
 2477.45117188 -136.02734375 2587.70507812 -38.9052734375 2630.93359375 78.365234375 c 0
 2646.59863281 120.860351562 2654.60546875 166.663085938 2654.60546875 212.239257812 c 0
 2654.60546875 274.291992188 2641.80078125 322 2620.98242188 368.384765625 c 1
 2585.09863281 159.491210938 2415.31347656 -29.5283203125 2184.95019531 -29.5283203125 c 0
 1978.09570312 -29.5283203125 1788.68847656 139.95703125 1788.68847656 365.963867188 c 0
 1788.68847656 520.9453125 1870.93066406 630.786132812 1965.20898438 698.361328125 c 0
 2050.62207031 759.58203125 2140.41894531 790.3984375 2261.94921875 793.05859375 c 1
 2182.87988281 852.654296875 2089.31835938 887.693359375 1979.02148438 887.693359375 c 0
 1756.52695731 887.693359375 1655.50459578 744.316084928 1650.23242188 524.287109375 c 0
 1650.671875 504.71875 1650.875 485.4765625 1650.89453125 466.982421875 c 2
 1651.32617188 76.056640625 l 2
 1650.70800781 21.4765625 1605.90625 -22.8203125 1551.32324219 -22.8203125 c 0
 1497.01953125 -22.8203125 1452.22167969 21.2451171875 1451.32617188 75.541015625 c 2
 1449.74804688 465.25390625 l 2
 1449.72265625 471.440429688 1449.70605469 477.693359375 1449.70605469 484.00390625 c 0
 1449.70605469 497.375 1449.78417969 511.010742188 1450.03320312 524.853515625 c 0
 1443.78613281 740.444335938 1340.83886719 876.063476562 1132.68554688 888.64453125 c 1
 1173.29003906 835.025390625 1209.42578125 763.985351562 1209.42578125 681.220703125 c 0
 1209.42578125 624.522460938 1194.77832031 578.416992188 1167.76757812 535.36328125 c 1
 1232.43164062 479.924804688 1274.74414062 393.09375 1274.74414062 303.65234375 c 0
 1274.74414062 113.7265625 1113.07910156 -21.466796875 926.904296875 -21.466796875 c 0
 768.443359375 -21.466796875 647.7578125 68.9814453125 579.287109375 167.61328125 c 0
 516.313476562 258.329101562 488.619140625 365.122070312 488.619140625 470.127929688 c 0
 488.619140625 640.661132812 549.911132812 776.452148438 650.474609375 887.67578125 c 1
 550.719726562 876.169921875 453.540039062 829.8125 385.482421875 758.974609375 c 0
 316.61328125 687.291992188 275.013671875 586.329101562 275.013671875 488.659179688 c 0
 275.013671875 334.821289062 367.6640625 217.122070312 474.955078125 161.916015625 c 0
 505.630859375 146.701171875 530.52734375 106.5625 530.52734375 72.3203125 c 0
 530.52734375 17.115234375 485.723632812 -27.689453125 430.517578125 -27.689453125 c 0
 416.715820312 -27.689453125 395.629882812 -22.41796875 383.451171875 -15.921875 c 0
 217.028320312 69.7099609375 75 250.590820312 75 489.489257812 c 0
966.901367188 408.494140625 m 0
 958.811523438 408.494140625 951.833007812 407.25 943.708007812 407.25 c 0
 888.502929688 407.25 843.698242188 452.0546875 843.698242188 507.259765625 c 0
 843.698242188 563.595703125 888.747070312 603.645507812 946.599609375 607.96484375 c 0
 980.62109375 613.52734375 1009.38378906 642.217773438 1009.38378906 679.904296875 c 0
 1009.38378906 744.321289062 945.654296875 805.20703125 900.177734375 834.8828125 c 1
 779.219726562 766.905273438 688.7109375 630.288085938 688.7109375 471.739257812 c 0
 688.7109375 354.444335938 743.174804688 253.428710938 823.5625 207.091796875 c 0
 855.322265625 188.784179688 890.5859375 178.538085938 926.509765625 178.538085938 c 0
 1001.64453125 178.538085938 1074.45996094 228.3671875 1074.45996094 300.622070312 c 0
 1074.45996094 361.302734375 1027.12695312 408.494140625 966.901367188 408.494140625 c 0
2185.42871094 170.4765625 m 0
 2329.21386719 170.4765625 2429.15820312 315.272460938 2429.15820312 464.098632812 c 0
 2429.15820312 498.168945312 2424.20410156 532.5703125 2415.06640625 566.12109375 c 1
 2371.93359375 583.391601562 2322.25878906 593.171875 2274.04003906 593.171875 c 0
 2142.25976562 593.171875 2037.72460938 530.174804688 2001.29492188 434.640625 c 0
 1993.49609375 414.1875 1989.71972656 391.481445312 1989.71972656 368.466796875 c 0
 1989.71972656 254.405273438 2081.515625 170.4765625 2185.42871094 170.4765625 c 0
EndSplineSet
EndChar

StartChar: ml_i
Encoding: 3335 3335 45
Width: 1984
GlyphClass: 2
Flags: HW
LayerCount: 2
Fore
SplineSet
1026.84863281 919.2421875 m 1
 1099.20079178 1017.49473022 1220.69029673 1094.59667969 1380.40625 1094.59667969 c 0
 1685.91601562 1094.59667969 1907.13378906 825.245117188 1907.13378906 521.305664062 c 0
 1907.13378906 229.479492188 1716.93652344 39.861328125 1476.08105469 -13 c 0
 1392.71582031 -31.294921875 1312.91796875 -32 1240.00683594 -32.314453125 c 2
 576.258789062 -35.177734375 l 2
 572.463867188 -35.1943359375 568.688476562 -35.201171875 564.932617188 -35.201171875 c 0
 534.112304688 -35.201171875 504.618164062 -34.7099609375 476.541992188 -34.7099609375 c 0
 401.870117188 -34.7099609375 307.921875 -35.9443359375 279.141601562 -78.234375 c 0
 276.328125 -82.369140625 275.110351562 -86.1015625 275.110351562 -87.830078125 c 0
 275.110351562 -108.018554688 297.205078125 -122.5234375 317.731445312 -131.087890625 c 0
 352.797851562 -145.715820312 405.426757812 -148.099609375 470.268554688 -148.12890625 c 2
 1807.97753906 -148.73046875 l 2
 1808.35546875 -148.724609375 1808.96875 -148.720703125 1809.34667969 -148.720703125 c 0
 1864.55175781 -148.720703125 1909.35644531 -193.525390625 1909.35644531 -248.73046875 c 0
 1909.35644531 -303.936523438 1864.55175781 -348.741210938 1809.34667969 -348.741210938 c 0
 1808.94335938 -348.741210938 1808.29007747 -348.732318413 1807.88769531 -348.73046875 c 2
 444.314453125 -348.16796875 l 2
 438.056838914 -348.287354399 431.676395913 -348.360587604 425.182986599 -348.360587604 c 0
 369.864537444 -348.360587604 306.347418577 -343.045597329 240.729492188 -315.671875 c 0
 161.313476562 -282.541992188 75 -203.385742188 75 -89.484375 c 0
 75 60.9404296875 207.024414062 137.287109375 329.686523438 156.333984375 c 0
 379.69140625 164.098632812 427.353515625 165.774414062 472.2421875 165.774414062 c 0
 506.3359375 165.774414062 538.831054688 164.807617188 569.538085938 164.807617188 c 0
 571.498046875 164.807617188 573.450195312 164.811523438 575.395507812 164.8203125 c 2
 1239.14355469 167.68359375 l 2
 1391.49804688 168.341796875 1500.70605469 184.122070312 1586.01855469 252.974609375 c 0
 1657.08007812 310.327148438 1707.11035156 400.286132812 1707.11035156 521.803710938 c 0
 1707.11035156 716.279296875 1571.35449219 894.579101562 1380.86132812 894.579101562 c 0
 1213.65527344 894.579101562 1138.24316406 771.361328125 1132.35058594 607.61328125 c 0
 1133.18847656 584.645507812 1133.40136719 562.329101562 1133.40136719 541.2265625 c 2
 1133.40136719 288.220703125 l 2
 1132.81933594 233.603515625 1088.01757812 189.276367188 1033.39746094 189.276367188 c 0
 979.17578125 189.276367188 934.37890625 233.274414062 933.403320312 287.486328125 c 2
 931.563476562 537.521484375 l 2
 931.497070312 546.504882812 931.44140625 555.654296875 931.44140625 564.955078125 c 0
 931.44140625 579.685546875 931.58203125 594.796875 932.047851562 610.23046875 c 0
 923.212890625 785.490234375 822.893554688 891.794921875 640.057617188 891.794921875 c 0
 567.299804688 891.794921875 493.478515625 869.924804688 436.002929688 830.34375 c 1
 619.642578125 828.57421875 766.923828125 684.506835938 766.923828125 499.248046875 c 0
 766.923828125 321.48046875 623.655273438 174.904296875 445.326171875 174.904296875 c 0
 245.225724391 174.904296875 90.6450303004 344.979905088 90.6450303004 544.079641196 c 0
 90.6450303004 580.883739745 94.5426332946 618.359967853 99.2783203125 646.9375 c 0
 139.170260529 887.629020775 355.035308417 1092.02539062 638.12890625 1092.02539062 c 0
 812.119140625 1092.02539062 944.080078125 1020.8203125 1026.84863281 919.2421875 c 1
566.859375 497.881835938 m 0
 566.859375 570.872070312 508.720703125 630.07421875 435.657226562 630.07421875 c 0
 361.470703125 630.07421875 310.086914062 579.237304688 298.436523438 515.392578125 c 1
 313.186523438 444.462890625 362.823242188 374.928710938 444.41796875 374.928710938 c 0
 511.578125 374.928710938 566.859375 430.772460938 566.859375 497.881835938 c 0
EndSplineSet
EndChar

StartChar: ml_u
Encoding: 3337 3337 47
Width: 1384
GlyphClass: 2
Flags: HW
LayerCount: 2
Fore
SplineSet
421 216 m 0
 211 216 82 402 82 598 c 0
 82 902 347 1098 636 1098 c 0
 983 1098 1282 834 1282 487 c 0
 1282 156 1035 -29 700 -29 c 0
 680 -29 660 -28 641 -28 c 2
 536 -26 l 2
 519 -26 503 -26 487 -26 c 0
 400 -26 275 -35 275 -112 c 0
 275 -188 427 -185 517 -185 c 2
 1208 -187 l 1
 1209 -187 l 2
 1264 -187 1309 -232 1309 -287 c 0
 1309 -342 1264 -387 1209 -387 c 2
 1207 -387 l 1
 516 -385 l 1
 483 -385 l 2
 424 -385 358 -384 288 -363 c 0
 183 -332 75 -250 75 -110 c 0
 75 90 281 175 473 175 c 0
 497 175 519 174 540 174 c 2
 645 172 l 2
 657 172 669 171 681 171 c 0
 911 171 1080 257 1080 484 c 0
 1080 718 876 898 639 898 c 0
 584 898 530 888 481 868 c 1
 628 834 739 702 739 542 c 0
 739 368 597 216 421 216 c 0
419 416 m 0
 486 416 539 475 539 539 c 0
 539 608 484 677 410 677 c 0
 339 677 285 623 285 553 c 1
 297 485 346 416 419 416 c 0
EndSplineSet
EndChar

StartChar: ml_r
Encoding: 3339 3339 49
Width: 1688
GlyphClass: 2
Flags: HW
LayerCount: 2
Fore
SplineSet
334.353515625 266.576171875 m 1
 202.840820312 352.360351562 75 508.32421875 75 712.201171875 c 0
 75 902.427734375 203.176757812 1094.35351562 412.013671875 1094.35351562 c 0
 584.767578125 1094.35351562 721.420898438 955.364257812 721.420898438 789.954101562 c 0
 721.420898438 616.933501177 584.801269782 479.33203125 410.478515625 479.33203125 c 0
 402.018554688 479.33203125 393.4296875 479.6640625 384.716796875 480.345703125 c 1
 484.37890625 387.375976562 676.40234375 340.34765625 849.711914062 340.34765625 c 0
 1033.41113281 340.34765625 1168.3203125 376.4375 1283.7734375 470.048828125 c 1
 1111.87470681 475.9910395 980.166015625 608.231286205 980.166015625 783.1015625 c 0
 980.166015625 951.906262867 1109.2403793 1093.20996094 1284.08105469 1093.20996094 c 0
 1493.6797331 1093.20996094 1613.56835938 906.156658092 1613.56835938 715.727539062 c 0
 1613.56835938 504.69921875 1481.74902344 354.702148438 1346.75 269.578125 c 1
 1465.75097656 210.08984375 1580.47460938 89.109375 1580.47460938 -76.9296875 c 0
 1580.47460938 -434.525519 1203.44512676 -496.975585938 851.405273438 -496.975585938 c 0
 498.235836582 -496.975585938 115.680664062 -431.089307452 115.680664062 -71.5166015625 c 0
 115.680664062 90.7060546875 220.69140625 205.811523438 334.353515625 266.576171875 c 1
407.213867188 678.323242188 m 0
 469.62109375 678.323242188 520.715820312 727.392578125 520.715820312 789.859375 c 0
 520.715820312 846.524414062 473.833984375 894.080078125 415.973632812 894.080078125 c 0
 359.184246902 894.080078125 296.946289062 850.032141604 296.946289062 790.333984375 c 0
 296.946289062 728.923828125 347.0859375 678.323242188 407.213867188 678.323242188 c 0
1179.77246094 783.0390625 m 0
 1179.77246094 720.595703125 1230.61816406 669.731445312 1294.25 669.731445312 c 0
 1356.49707031 669.731445312 1401.61035156 726.041015625 1408.85351562 781.8125 c 1
 1396.18847656 838.694335938 1355.25390625 893.30078125 1288.95507812 893.30078125 c 0
 1225.39257812 893.30078125 1179.77246094 841.794921875 1179.77246094 783.0390625 c 0
845.870117188 -323.97265625 m 0
 1073.06835938 -323.97265625 1379.9296875 -297.08827073 1379.9296875 -76.5380859375 c 0
 1379.9296875 175.129084975 1110.91113281 175.564453125 850.241210938 175.564453125 c 0
 668.720703125 175.564453125 315.706054688 103.182821943 315.706054688 -71.0234375 c 0
 315.706054688 -289.872862673 619.043945312 -323.97265625 845.870117188 -323.97265625 c 0
EndSplineSet
EndChar

StartChar: ml_l
Encoding: 3340 3340 50
Width: 2097
GlyphClass: 2
Flags: HW
LayerCount: 2
Fore
SplineSet
1040 877 m 5
 1120 990 1261 1077 1441 1077 c 4
 1595 1077 1742 1012 1848 903 c 4
 1960 788 2022 636 2022 471 c 4
 2022 379 2000 284 1953 201 c 4
 1942 174 1922 151 1904 130 c 4
 1837 51 1734 -18 1596 -18 c 4
 1420 -18 1298 95 1252 229 c 4
 1239 268 1233 308 1233 348 c 4
 1233 548 1379 688 1546 716 c 4
 1566 719 1587 721 1607 721 c 4
 1660 721 1714 710 1763 688 c 5
 1747 716 1727 741 1705 764 c 4
 1636 834 1536 877 1440 877 c 4
 1277 877 1179 775 1151 637 c 4
 1142 590 1140 536 1140 477 c 6
 1137 82 l 5
 1137 81 l 5
 1136 27 1091 -17 1037 -17 c 4
 982 -17 938 27 937 82 c 6
 937 83 l 5
 938 477 l 6
 938 481 938 486 938 490 c 4
 938 669 899 785 780 845 c 4
 740 865 694 875 646 875 c 4
 552 875 455 832 388 762 c 4
 366 739 347 713 331 685 c 5
 381 709 436 721 491 721 c 4
 684 721 827 587 860 418 c 4
 865 394 866 371 866 347 c 4
 866 223 813 131 741 69 c 4
 678 14 604 -20 502 -20 c 4
 337 -20 223 75 156 179 c 4
 153 183 150 189 148 193 c 4
 97 279 75 377 75 472 c 4
 75 635 134 785 243 900 c 4
 347 1009 493 1075 646 1075 c 4
 823 1075 961 988 1040 877 c 5
1433 348 m 4
 1433 254 1502 182 1596 182 c 4
 1681 182 1738 233 1773 289 c 5
 1779 307 1782 327 1782 347 c 4
 1782 447 1707 521 1606 521 c 4
 1511 521 1433 446 1433 348 c 4
666 347 m 4
 666 445 589 520 493 520 c 4
 392 520 316 446 316 346 c 4
 316 325 319 304 326 285 c 5
 361 230 420 180 503 180 c 4
 597 180 666 252 666 347 c 4
EndSplineSet
EndChar

StartChar: ml_e
Encoding: 3342 3342 51
Width: 2252
GlyphClass: 2
Flags: HW
LayerCount: 2
Fore
SplineSet
1171 -2 m 1
 1183 -159 1231 -267 1342 -267 c 0
 1455 -267 1491 -163 1497 -6 c 1
 1171 -2 l 1
460 546 m 0
 349 546 260 456 260 357 c 0
 260 272 322 205 392 181 c 0
 427 169 456 131 456 87 c 0
 456 43 415 -3 369 -3 c 0
 355 -3 339 -2 327 3 c 1
 189 51 71 185 71 357 c 0
 71 569 243 737 460 737 c 0
 677 737 846 560 846 360 c 0
 846 304 831 245 803 191 c 1
 979 190 l 1
 980 304 l 1
 980 700 1127 1090 1541 1090 c 0
 1927 1090 2177 706 2177 306 c 0
 2177 -3 2041 -260 1874 -426 c 1
 1855 -445 1832 -454 1806 -454 c 0
 1754 -454 1711 -411 1711 -359 c 0
 1711 -333 1720 -310 1739 -291 c 0
 1872 -158 1989 59 1989 304 c 0
 1989 604 1828 900 1550 900 c 0
 1258 900 1169 622 1169 303 c 0
 1169 187 l 1
 1499 184 l 1
 1502 677 l 1
 1502 728 1545 772 1597 772 c 0
 1649 772 1692 734 1692 676 c 1
 1687 4 l 0
 1685 -249 1590 -457 1348 -457 c 0
 1102 -457 994 -239 981 0 c 1
 574 4 l 1
 526 4 479 45 479 94 c 0
 479 135 497 169 533 185 c 1
 597 211 656 275 656 356 c 0
 656 463 569 546 460 546 c 0
EndSplineSet
EndChar

StartChar: ml_ee
Encoding: 3343 3343 52
Width: 2257
GlyphClass: 2
Flags: HW
LayerCount: 2
Fore
SplineSet
1208 -5 m 1
 1221 -127 1278 -207 1376 -207 c 0
 1464 -207 1506 -137 1506 -14 c 0
 1506 -6 l 1
 1208 -5 l 1
452 92 m 0
 452 41 411 -4 357 -4 c 0
 344 -4 332 0 321 4 c 1
 191 52 75 183 75 348 c 0
 75 558 247 721 468 721 c 0
 683 721 855 556 855 348 c 0
 855 292 839 237 809 186 c 1
 1015 185 l 1
 1015 431 l 0
 1015 810 1189 1090 1595 1090 c 0
 1885 1090 2130 910 2130 641 c 0
 2130 554 2083 383 2027 323 c 1
 2120 251 2183 132 2183 -8 c 0
 2183 -218 2001 -401 1791 -401 c 0
 1781 -401 1773 -400 1767 -400 c 1
 1707 -399 1678 -349 1678 -305 c 0
 1678 -260 1708 -210 1770 -210 c 0
 1900 -210 1993 -135 1993 0 c 0
 1993 109 1912 196 1818 209 c 1
 1766 216 1737 261 1737 304 c 0
 1737 342 1758 379 1800 395 c 1
 1876 419 1939 568 1939 652 c 0
 1939 807 1778 899 1601 899 c 0
 1313 899 1205 722 1205 428 c 0
 1205 185 l 1
 1503 184 l 1
 1507 705 l 1
 1507 761 1557 796 1604 796 c 0
 1661 796 1698 749 1698 695 c 1
 1697 613 1695 350 1695 206 c 0
 1695 124 1697 72 1697 0 c 0
 1697 -236 1599 -395 1374 -395 c 0
 1154 -395 1035 -214 1018 -5 c 1
 570 -3 l 1
 510 -3 477 47 477 93 c 0
 477 127 495 164 536 180 c 1
 599 202 663 263 663 345 c 0
 663 447 577 528 466 528 c 0
 352 528 264 440 264 347 c 0
 264 267 323 204 391 180 c 1
 422 168 452 135 452 92 c 0
EndSplineSet
EndChar

StartChar: ml_n
Encoding: 3346 3346 54
Width: 1376
GlyphClass: 2
Flags: HW
LayerCount: 2
Fore
SplineSet
308.34765625 612.453125 m 5
 357.16796875 636.951171875 409.262695312 649.912109375 466.356445312 649.912109375 c 4
 664.406381157 649.912109375 818.260742188 496.205087047 818.260742188 298.899414062 c 4
 818.260742188 101.513589298 668.517859452 -48.4892578125 472.104492188 -48.4892578125 c 4
 213.482987735 -48.4892578125 75 194.572278911 75 448.961914062 c 4
 75 829.672087741 382.457101266 1091.01855469 756.0703125 1091.01855469 c 4
 991.474081369 1091.01855469 1215.50976562 950.247838966 1215.50976562 705.154296875 c 4
 1215.50976562 642.299804688 1197.73632812 580.87109375 1164.21679688 527.666015625 c 5
 1246.11328125 470.85546875 1301.19238281 371.5 1301.19238281 266.252929688 c 4
 1301.19238281 99.0751953125 1166.66699219 -52 983.189453125 -52 c 4
 899.2734375 -52 793.377929688 -19.603515625 793.377929688 67.38671875 c 4
 793.377929688 122.591796875 838.182617188 167.396484375 893.387695312 167.396484375 c 4
 924.407226562 167.396484375 949.170898438 149.14453125 981.622070312 149.14453125 c 4
 1050.44628906 149.14453125 1101.18261719 203.6796875 1101.18261719 265.5078125 c 4
 1101.18261719 330.143554688 1047.95214844 384.004882812 980.60546875 384.004882812 c 4
 969.514648438 384.004882812 959.0546875 381.40625 947.979492188 381.40625 c 4
 892.7734375 381.40625 847.969726562 426.209960938 847.969726562 481.416015625 c 4
 847.969726562 522.706054688 880.115234375 565.685546875 919.72265625 577.3515625 c 4
 971.048828125 592.374023438 1015.48339844 641.45703125 1015.48339844 705.969726562 c 4
 1015.48339844 831.900645783 880.560660147 890.8984375 754.048828125 890.8984375 c 4
 540.46484375 890.8984375 374.961914062 767.489257812 308.34765625 612.453125 c 5
466.056640625 449.909179688 m 4
 380.99609375 449.909179688 314.143554688 384.030273438 314.143554688 297.364257812 c 4
 314.143554688 216.312914721 394.687733967 151.94921875 472.90625 151.94921875 c 4
 556.424804688 151.94921875 617.932617188 216.0625 617.932617188 300.37109375 c 4
 617.932617188 384.483398438 550.514648438 449.909179688 466.056640625 449.909179688 c 4
EndSplineSet
EndChar

StartChar: k1
Encoding: 3349 3349 57
Width: 1905
GlyphClass: 2
Flags: HW
LayerCount: 2
Fore
SplineSet
414 -14 m 0
 228 -14 75 138 75 323 c 0
 75 581.890309193 316.267544092 702.330983718 559 711 c 1
 608.439952444 900.519817701 755.645507812 1094 994 1094 c 0
 1231.65917969 1094 1377.1118884 901.482516414 1428 714 c 1
 1646.87337624 702.412585964 1830 571.029513148 1830 341 c 0
 1830 147 1671 -18 1472 -18 c 0
 1461 -18 1450 -18 1439 -17 c 0
 1388 -13 1347 31 1347 82 c 0
 1347 137 1392 182 1447 182 c 0
 1548.14318095 182 1630 239.373516049 1630 341 c 4
 1630 445 1546 498 1452 511 c 1
 1447.19239976 241.774386631 1280.38694851 -18 993 -18 c 0
 868 -18 754 44 686 117 c 1
 622 37 521 -14 414 -14 c 0
1217 715 m 1
 1181 801 1107 907 993 907 c 0
 879 907 805 798 770 713 c 1
 1217 715 l 1
1252 515 m 1
 736 513 l 1
 740.300849015 345.266888428 825.186582913 180 993 180 c 0
 1162.97012208 180 1247.94264923 350.677293654 1252 515 c 1
416 188 m 0
 496 188 561 252 561 335 c 2
 561 339 l 1
 545 395 537 452 536 509 c 1
 408.884142288 499.126923673 276 451.585769225 276 321 c 4
 276 245 342 188 416 188 c 0
EndSplineSet
EndChar

StartChar: k2
Encoding: 3350 3350 58
Width: 1736
GlyphClass: 2
Flags: HW
LayerCount: 2
Fore
SplineSet
1461 1011 m 2
 1461 1066 1506 1111 1561 1111 c 0
 1616 1111 1661 1066 1661 1011 c 2
 1661 1009 l 1
 1657 102 l 2
 1657 47 1612 2 1557 2 c 2
 908 3 l 2
 853 3 808 48 808 103 c 0
 808 134 829 172 856 188 c 0
 957 249 1039 358 1039 512 c 0
 1039 724.995063081 872.916992188 894 663 894 c 4
 472 894 338 762 293 610 c 1
 342 642 413 666 482 666 c 0
 672 666 826 512 826 323 c 0
 826 138 675 -15 490 -15 c 0
 231.047265726 -15 75 233.960984301 75 491 c 0
 75 821.030037538 323.196289062 1094 662 1094 c 4
 983.5234375 1094 1239 838.827898788 1239 512 c 0
 1239 397 1199 282 1149 203 c 1
 1458 202 l 1
 1461 1010 l 1
 1461 1011 l 2
626 323 m 0
 626 401 561 466 482 466 c 0
 399 466 335 403 335 320 c 0
 335 238.822872837 422.201227417 185 490 185 c 0
 564 185 626 249 626 323 c 0
EndSplineSet
EndChar

StartChar: k3
Encoding: 3351 3351 59
Width: 1829
GlyphClass: 2
Flags: HW
LayerCount: 2
Fore
SplineSet
581.676757812 -15 m 0
 293.94140625 -15 75 237.69140625 75 525.586914062 c 0
 75 794.573242188 248.075195312 998.801757812 448.80859375 1080.22753906 c 0
 459.452148438 1084.72167969 475.560546875 1088.09960938 487.708007812 1088.09960938 c 0
 542.913085938 1088.09960938 587.717773438 1043.29492188 587.717773438 988.08984375 c 0
 587.717773438 950.338867188 559.166015625 908.5859375 523.986328125 894.891601562 c 0
 390.793945312 840.864257812 275.009765625 704.828125 275.009765625 526.211914062 c 0
 275.009765625 347.119140625 406.241210938 185.010742188 581.2734375 185.010742188 c 0
 752.209942678 185.010742188 801.06640625 311.170142491 801.06640625 486.418945312 c 0
 801.056640625 519.748046875 801.012695312 553.072265625 801.012695312 586.403320312 c 0
 801.012695312 880.009890299 946.877929688 1094.12402344 1238.16894531 1094.12402344 c 4
 1528.32617188 1094.12402344 1754.08300781 831.5877679 1754.08300781 546.231445312 c 0
 1754.08300781 259.009765625 1546.09667969 38.4833984375 1304.484375 -16.2392578125 c 0
 1298.08886719 -17.7861328125 1287.55761719 -19.041015625 1280.97753906 -19.041015625 c 0
 1225.77246094 -19.041015625 1180.96777344 25.763671875 1180.96777344 80.96875 c 0
 1180.96777344 125.73046875 1216.51171875 169.567382812 1260.30664062 178.819335938 c 0
 1417.3515625 214.387695312 1554.07421875 358.842773438 1554.07421875 545.583984375 c 0
 1554.07421875 725.594474984 1416.82128906 893.994140625 1235.88476562 893.994140625 c 4
 1058.50683594 893.994140625 1001.01464844 763.488409698 1001.01464844 581.916015625 c 0
 1001.02441406 548.54296875 1001.06835938 515.174804688 1001.06835938 481.799804688 c 0
 1001.06835938 197.130159554 865.478018814 -15 581.676757812 -15 c 0
EndSplineSet
EndChar

StartChar: k4
Encoding: 3352 3352 60
Width: 2352
GlyphClass: 2
Flags: HW
LayerCount: 2
Fore
SplineSet
466.958007812 867.375 m 0
 359.614257812 867.375 275.08203125 781.6875 275.08203125 674.931640625 c 0
 275.08203125 588.19140625 328.265625 523.870117188 390.765625 496.37109375 c 0
 424.483398438 482.123046875 451.848632812 440.852539062 451.848632812 404.248046875 c 0
 451.848632812 349.041992188 407.043945312 304.237304688 351.838867188 304.237304688 c 0
 339.806640625 304.237304688 321.162109375 308.301757812 310.220703125 313.30859375 c 0
 183.905273438 368.88671875 75 498.939453125 75 673.814453125 c 0
 75 895.619221471 246.30349175 1067.60839844 468.755859375 1067.60839844 c 0
 691.398365624 1067.60839844 862.616210938 895.152648717 862.616210938 674.05078125 c 4
 862.616210938 613.306640625 848.555664062 552.928710938 821.0703125 497.8828125 c 1
 980.439453125 499.00390625 l 1
 980.51953125 596.197265625 l 2
 981.213867188 919.033203125 1132.94579007 1096.89750052 1454.41992188 1097.13085938 c 2
 1454.82226562 1097.13085938 l 2
 1769.78370262 1097.13085938 1931.76564312 893.377923107 1931.76564312 574.236482225 c 0
 1931.76564312 566.803853662 1931.67778436 559.308638551 1931.50195312 551.751953125 c 2
 1928.37890625 402.638671875 l 2
 1927.12792969 349.106445312 1882.65429688 305.350585938 1829.109375 304.96875 c 2
 1180.01367188 300.404296875 l 1
 1179.80273438 202 l 1
 2077.15820312 202 l 1
 2077.94140625 991.26171875 l 2
 2077.93652344 991.623046875 2077.93261719 992.208984375 2077.93261719 992.5703125 c 0
 2077.93261719 1047.77636719 2122.73730469 1092.58105469 2177.94335938 1092.58105469 c 0
 2233.1484375 1092.58105469 2277.953125 1047.77636719 2277.953125 992.5703125 c 0
 2277.953125 992.153320312 2277.94824219 991.475585938 2277.94140625 991.05859375 c 2
 2277.05664062 101.8984375 l 2
 2276.99511719 46.759765625 2232.1953125 2.0048828125 2177.05664062 2 c 2
 1079.58789062 2 l 2
 1024.38769531 2.0048828125 979.587890625 46.8095703125 979.587890625 102.009765625 c 2
 979.587890625 102.21484375 l 1
 980.009765625 298.998046875 l 1
 565.51953125 296.08203125 l 2
 565.34375 296.081054688 565.057617188 296.080078125 564.880859375 296.080078125 c 0
 509.67578125 296.080078125 464.87109375 340.884765625 464.87109375 396.08984375 c 0
 464.87109375 435.391601562 495.01171875 477.728515625 532.1484375 490.591796875 c 0
 602.377929688 514.866210938 662.288085938 581.569335938 662.288085938 675.219726562 c 0
 662.288085938 784.482421875 577.174804688 867.375 466.958007812 867.375 c 0
1454.66210938 897.119140625 m 2
 1247.75484092 896.783740202 1180.97070312 806.997070312 1180.51953125 595.767578125 c 2
 1180.44335938 500.41015625 l 1
 1730.69140625 504.28125 l 1
 1731.55664062 556.408203125 l 2
 1731.71437881 563.188169496 1731.79415641 569.880076368 1731.79415641 576.482712126 c 0
 1731.79415641 778.647073665 1657.00209497 897.119140625 1455.25976562 897.119140625 c 2
 1454.66210938 897.119140625 l 2
EndSplineSet
EndChar

StartChar: ng
Encoding: 3353 3353 61
Width: 2055
GlyphClass: 2
Flags: HW
LayerCount: 2
Fore
SplineSet
658 1091 m 4
 845 1091 994 993 1076 873 c 5
 1162 998 1309 1091 1507 1091 c 4
 1731.31054688 1091 1980.86035156 903.489257812 1980.86035156 694.420898438 c 4
 1980.86035156 625.983398438 1954.12011719 555.236328125 1891 488 c 5
 1939 442 1980 367 1980 281 c 4
 1980 104 1825 -20 1650 -20 c 4
 1553 -20 1406 16 1406 118 c 4
 1406 173 1451 218 1506 218 c 4
 1521 218 1542 212 1555 205 c 4
 1582 190 1618 181 1652 181 c 4
 1719 181 1779 222 1779 283 c 4
 1779 365 1690 379 1599 380 c 6
 1540 381 l 6
 1485 382 1441 426 1441 481 c 4
 1441 534 1484 578 1536 581 c 6
 1605 584 l 6
 1698 588 1772 604 1772 696 c 4
 1772 823.608398438 1631.078125 891 1504 891 c 4
 1266.06152344 891 1177 718.016601562 1177 475 c 4
 1177 468 1178 461 1178 454 c 6
 1180 77 l 5
 1180 76 l 6
 1180 21 1135 -23 1080 -23 c 4
 1026 -23 981 21 980 75 c 6
 977 454 l 6
 975.188476562 700.30078125 900.783203125 890 659 890 c 4
 520 890 396 803 334 697 c 5
 389 722 443 734 495 734 c 4
 696.23046875 734 872 567.984375 872 353 c 4
 872 142.287109375 708.538085938 -13 502 -13 c 4
 237.073242188 -13 75 220.650390625 75 479 c 4
 75 805 330 1091 658 1091 c 4
672 352 m 4
 672 454 595 532 495 532 c 4
 399 532 314 458 314 358 c 4
 314 258.306640625 404.456054688 186 501 186 c 4
 595 186 672 255 672 352 c 4
EndSplineSet
EndChar

StartChar: ch1
Encoding: 3354 3354 62
Width: 1559
GlyphClass: 2
Flags: HW
LayerCount: 2
Fore
SplineSet
1284 995 m 2
 1284 1050 1329 1095 1384 1095 c 0
 1439 1095 1484 1050 1484 995 c 2
 1484 102 l 2
 1484 47 1439 2 1384 2 c 2
 152 0 l 1
 150 0 l 2
 95 0 50 45 50 100 c 0
 50 155 95 200 150 200 c 2
 151 200 l 1
 710 202 l 1
 811 216 898 302 898 414 c 0
 898 517 820 608 717 608 c 0
 632 608 561 539 561 448 c 0
 561 425 565 402 574 383 c 0
 579 372 584 353 584 341 c 0
 584 286 539 241 484 241 c 0
 392 241 360 362 360 449 c 0
 360 656 525 808 720 808 c 0
 931.004740032 808 1098 623.210826108 1098 415 c 0
 1098 333 1077 266 1039 203 c 1
 1284 202 l 1
 1284 995 l 2
EndSplineSet
EndChar

StartChar: ch2
Encoding: 3355 3355 63
Width: 2515
GlyphClass: 2
Flags: HW
LayerCount: 2
Fore
SplineSet
1213 485 m 4
 1213 818 1482 1095 1818 1095 c 4
 2164 1095 2441 817 2441 468 c 4
 2441 218 2270 -8 2013 -8 c 4
 1766 -8 1597 205 1597 447 c 4
 1597 635 1706 807 1847 894 c 5
 1836 895 1826 895 1816 895 c 4
 1590 895 1413 706 1413 487 c 4
 1413 371 1466 251 1553 174 c 4
 1572 158 1587 124 1587 99 c 4
 1587 44 1542 -1 1487 -1 c 6
 1486 -1 l 5
 151 3 l 5
 150 3 l 6
 95 3 50 48 50 103 c 4
 50 158 95 203 150 203 c 4
 328.666666667 203 507.333333333 203 686 203 c 4
 691 204 699 206 704 206 c 4
 808 217 898 307 898 420 c 4
 898 521 819 613 720 613 c 4
 638 613 560 543 560 454 c 4
 560 433 564 411 574 389 c 4
 579 378 584 358 584 346 c 4
 584 291 539 246 484 246 c 4
 392 246 360 367 360 454 c 4
 360 662 523 813 719 813 c 4
 931 813 1097 629 1097 420 c 4
 1097 344 1077 268 1035 201 c 5
 1284 200 l 5
 1236 292 1213 390 1213 485 c 4
2012 192 m 4
 2152 192 2241 328 2241 465 c 4
 2241 586 2178 705 2112 772 c 5
 1939 765 1798 622 1798 444 c 4
 1798 317 1884 192 2012 192 c 4
EndSplineSet
EndChar

StartChar: ch3
Encoding: 3356 3356 64
Width: 1540
GlyphClass: 2
Flags: HW
LayerCount: 2
Fore
SplineSet
785.7109375 964.34375 m 5
 846.775390625 1032.35351562 937.731445312 1095 1049.2109375 1095 c 4
 1280.37011719 1095 1454.77832031 907.261110508 1454.77832031 678.84765625 c 4
 1454.77832031 572.796875 1413.24804688 474.745117188 1349.0703125 397.388671875 c 5
 1410.62109375 356.739257812 1465.00390625 277.788085938 1465.00390625 185.373046875 c 4
 1465.00390625 44.94921875 1353.15429688 -67.29296875 1212.62988281 -67.29296875 c 4
 1077.53320312 -67.29296875 972.188476562 45.01171875 961.5859375 171.794921875 c 5
 798.495117188 81.55859375 617.728737174 -63.8701171875 374.375976562 -63.8701171875 c 4
 226.661747376 -63.8701171875 84.099609375 26.9994396853 84.099609375 182.859375 c 4
 84.099609375 337.943137656 218.80965215 417.598632812 369.502929688 417.598632812 c 4
 520.454791333 417.598632812 673.810567208 383.26953125 809.489257812 383.26953125 c 4
 1026.91736414 383.26953125 1254.77050781 473.685219258 1254.77050781 679.452148438 c 4
 1254.77050781 795.071124296 1165.20605469 898.916015625 1047.55664062 898.916015625 c 4
 921.728515625 898.916015625 886.102539062 821.3984375 883.76953125 692.8203125 c 6
 881.57421875 537.359375 l 6
 880.06640625 483.706054688 840.279296875 440.16015625 786.603515625 440.16015625 c 4
 731.458984375 440.16015625 691.654296875 484.916015625 691.59375 540.060546875 c 6
 692.666015625 707.83984375 l 6
 693.896484375 845.271484375 623 896 517.44921875 894.7734375 c 5
 598 868 618.833007812 776.020507812 618.833007812 691.36328125 c 4
 618.833007812 538.287113296 510.306640625 436.717773438 358.583007812 436.717773438 c 4
 194.53125 436.717773438 75 556.315666234 75 714.669921875 c 4
 75 941.671102148 259.864257812 1095.21679688 483.0703125 1095.21679688 c 4
 607.385742188 1095.21679688 718.724609375 1032.22753906 785.7109375 964.34375 c 5
426.364257812 691.76953125 m 4
 426.364257812 736.290039062 385.189453125 768.622070312 340.359375 768.622070312 c 4
 308.11967842 768.622070312 275.663085938 738.752929688 275.663085938 703.63671875 c 4
 275.663085938 652.620117188 303.456054688 618.729492188 353.111328125 618.729492188 c 4
 391.341796875 618.729492188 426.364257812 652.009765625 426.364257812 691.76953125 c 4
1278.84179688 183.553710938 m 4
 1278.84179688 219.137695312 1239.34667969 253.813476562 1205.05566406 253.813476562 c 4
 1178.16015625 253.813476562 1144.02832031 219.252929688 1144.02832031 189.237304688 c 4
 1144.02832031 158.555664062 1185.26757812 120.75 1215.39550781 120.75 c 4
 1244.19140625 120.75 1278.84179688 155.19921875 1278.84179688 183.553710938 c 4
605.607421875 195.33984375 m 5
 529.16015625 203.634765625 453.499023438 225.966796875 375.795898438 225.966796875 c 4
 343.98046875 225.966796875 284.420898438 211.344726562 284.420898438 184.63671875 c 4
 284.420898438 148.369140625 338.983398438 125.697265625 380.775390625 125.697265625 c 4
 464.836914062 125.697265625 534.537109375 163.234375 605.607421875 195.33984375 c 5
EndSplineSet
EndChar

StartChar: ch4
Encoding: 3357 3357 65
Width: 3131
GlyphClass: 2
Flags: HW
LayerCount: 2
Back
SplineSet
1959.50488281 1434 m 4
 2013.23828125 1434 2057.50878906 1389.8203125 2059.4453125 1337.70507812 c 5
 2059.4453125 1337.6328125 l 5
 2062.74707031 1196.54296875 2066.04394531 1055.44726562 2069.34375 914.35546875 c 4
 2070.14648438 880.0625 2071.14160156 843.954101562 2070.62597656 806.685546875 c 5
 2080.78125 742.41015625 2108.96484375 680.078125 2151.26367188 632.30859375 c 4
 2213.13769531 562.434570312 2309.58398438 518.71875 2402.9140625 518.244140625 c 4
 2495.41503906 517.774414062 2591.46289062 559.453125 2655.24707031 627.33984375 c 4
 2795.70117188 776.830078125 2773.25488281 1016.57226562 2627.26367188 1144.10546875 c 4
 2554.87402344 1207.34375 2452.37304688 1240.68945312 2356.63085938 1232.1484375 c 4
 2353.79882812 1231.85546875 2349.18847656 1231.61816406 2346.34082031 1231.61816406 c 4
 2291.13476562 1231.61816406 2246.33105469 1276.421875 2246.33105469 1331.62792969 c 4
 2246.33105469 1382.84765625 2287.78417969 1427.52636719 2338.859375 1431.35742188 c 4
 2490.91015625 1444.921875 2643.87695312 1395.15722656 2758.84277344 1294.7265625 c 4
 2873.80761719 1194.29589844 2943.671875 1049.40234375 2950.65625 896.908203125 c 4
 2957.49121094 747.73828125 2903.69921875 599.6953125 2801.00195312 490.392578125 c 5
 2801.00195312 490.392578125 l 5
 2698.18554688 380.962890625 2552.69726562 317.481445312 2401.89648438 318.248046875 c 4
 2248.78125 319.026367188 2101.27441406 386.2890625 2000.39257812 501.076171875 c 5
 1951.91894531 415.969726562 1868.82226562 341.563476562 1759.62695312 323.146484375 c 4
 1608.48535156 297.654296875 1488.55859375 386.981445312 1429.1796875 477.4765625 c 4
 1372.84375 563.3359375 1355.68847656 665.139648438 1348.46484375 785.453125 c 6
 1343.77148438 863.646484375 l 6
 1331.29199219 1071.59179688 1264.36230469 1200.79296875 1071.359375 1226.30078125 c 4
 1051.51171875 1228.92382812 1031.34863281 1229.88671875 1011.1171875 1229.42578125 c 5
 1109.11914062 1122.34570312 1169.64648438 982.986328125 1181.046875 837.28125 c 4
 1190.00683594 722.78125 1169.19628906 599.779296875 1099.18554688 496.111328125 c 4
 1035.85644531 402.336914062 920.551757812 313.96484375 770.1015625 317.65625 c 4
 621.901367188 321.29296875 509.302734375 414.001953125 449.61328125 512.775390625 c 4
 384.791992188 620.043945312 370.159179688 744.108398438 384.609375 858.162109375 c 4
 402.228515625 997.220703125 463.8359375 1128.8828125 560.091796875 1230.8515625 c 5
 404.913085938 1231.72363281 286.793945312 1147.39648438 225.171875 1045.10546875 c 4
 152.552734375 924.560546875 152.83984375 769.442382812 225.61328125 649.244140625 c 4
 261.301757812 590.30078125 314.266601562 540.489257812 375.287109375 508.482421875 c 4
 405.532226562 493.150390625 430.078125 453.1875 430.078125 419.279296875 c 4
 430.078125 364.073242188 385.274414062 319.26953125 330.068359375 319.26953125 c 4
 316.061523438 319.26953125 294.700195312 324.689453125 282.38671875 331.3671875 c 4
 114.383789062 419.487304688 -29.4697265625 605.764648438 -29.73828125 846.890625 c 4
 -30.0048828125 1088.02832031 113.715820312 1274.75976562 281.240234375 1363.10546875 c 4
 436.611328125 1445.04101562 624.077148438 1452.49121094 787.9375 1385.4609375 c 5
 954.094726562 1451.26464844 1143.74804688 1441.54882812 1284.29296875 1365.21484375 c 4
 1398.54394531 1303.16308594 1486.75683594 1189.94238281 1520.77734375 1052.63085938 c 4
 1536.39746094 989.590820312 1540.1640625 929.747070312 1543.41210938 875.62890625 c 6
 1548.10546875 797.435546875 l 6
 1555.40234375 675.880859375 1572.84277344 573.780273438 1656.4765625 531.875 c 4
 1754.22851562 482.897460938 1823.88574219 575.063476562 1848.47070312 650.107421875 c 4
 1862.69238281 693.513671875 1868.13476562 743.20703125 1869.76757812 797.39453125 c 5
 1865.5703125 834.76953125 1865.27539062 872.676757812 1869.06835938 910.51171875 c 5
 1859.49804688 1333.03125 l 5
 1859.49804688 1333.10351562 l 6
 1859.49609375 1333.34863281 1859.49414062 1333.74511719 1859.49414062 1333.99023438 c 4
 1859.49414062 1389.1953125 1904.29882812 1434 1959.50488281 1434 c 4
786.334960938 1160.69921875 m 5
 678.139648438 1091.78027344 599.833984375 965.674804688 583.025390625 833.0234375 c 4
 567.353515625 709.32421875 609.634765625 595.481445312 689.051757812 544.857421875 c 4
 742.388671875 510.85546875 805.0390625 508.095703125 861.947265625 540.4765625 c 4
 944.8203125 587.630859375 991.235351562 699.28125 981.659179688 821.677734375 c 4
 971.208007812 955.243164062 895.782226562 1086.89746094 786.334960938 1160.69921875 c 5
EndSplineSet
Fore
SplineSet
1116 893 m 5
 1224 776 1288 628 1288 451 c 4
 1288 212 1136 -19 884 -19 c 4
 730 -19 615 76 554 176 c 4
 504 259 484 352 484 442 c 4
 484 631 554 776 665 894 c 5
 664 894 663 894 662 894 c 4
 442 894 276 729 276 511 c 4
 276 353 370 230 480 172 c 4
 510 157 535 117 535 83 c 4
 535 28 490 -17 435 -17 c 4
 421 -17 399 -12 387 -5 c 4
 219 83 75 269 75 511 c 4
 75 842 330 1094 662 1094 c 4
 740 1094 819 1079 893 1049 c 5
 967 1078 1046 1092 1123 1092 c 4
 1464 1092 1628 866 1648 539 c 6
 1653 461 l 6
 1661 331 1684 181 1815 181 c 4
 1934 181 1971 337 1975 461 c 5
 1973 481 1971 501 1971 521 c 4
 1971 539 1972 556 1974 574 c 5
 1964 996 l 5
 1964 997 l 6
 1964 1052 2009 1097 2064 1097 c 4
 2118 1097 2162 1053 2164 1001 c 4
 2168 831 2176 662 2176 491 c 4
 2176 484 2175 477 2175 470 c 5
 2200 310 2340 182 2509 182 c 4
 2698 182 2854 344 2854 532 c 4
 2854 728 2696 897 2491 897 c 4
 2477 897 2464 895 2451 895 c 4
 2396 895 2351 940 2351 995 c 4
 2351 1046 2393 1091 2444 1095 c 4
 2460 1096 2477 1097 2493 1097 c 4
 2804 1097 3056 841 3056 535 c 4
 3056 234 2807 -18 2509 -18 c 4
 2354 -18 2206 49 2105 164 c 5
 2051 69 1954 -18 1812 -18 c 4
 1560 -18 1467 212 1453 449 c 5
 1449 527 l 5
 1436 747 1357 893 1126 893 c 6
 1116 893 l 5
891 824 m 5
 773 749 685 610 685 446 c 4
 685 316 752 181 884 181 c 4
 1019 181 1088 321 1088 453 c 4
 1088 607 1007 746 891 824 c 5
EndSplineSet
EndChar

StartChar: nj
Encoding: 3358 3358 66
Width: 2527
GlyphClass: 2
Flags: HW
LayerCount: 2
Fore
SplineSet
1043.703125 901.19140625 m 5
 1122.35839844 1013.01464844 1255 1095.12890625 1433.11132812 1095.12890625 c 4
 1520.06835938 1095.12890625 1591.30175781 1077.79882812 1663.15820312 1046.90039062 c 5
 1733.83789062 1077.93457031 1810.67773438 1095.12207031 1889.25488281 1095.12207031 c 4
 2208.73144531 1095.12207031 2452.62109375 822.47265625 2452.62109375 505.334960938 c 4
 2452.62109375 305.145507812 2357.00488281 117.84375 2199.61523438 0 c 4
 2184.72167969 -11.4775390625 2157.37304688 -20.7919921875 2138.5703125 -20.7919921875 c 4
 2083.36425781 -20.7919921875 2038.56054688 24.0126953125 2038.56054688 79.2177734375 c 4
 2038.56054688 107.329101562 2057.01074219 143.5625 2079.74414062 160.09765625 c 4
 2184.578125 238.591796875 2252.61816406 371.796875 2252.61816406 505.057617188 c 4
 2252.61816406 711.278320312 2096.86230469 894.954101562 1892.15234375 894.954101562 c 4
 1887.125 894.954101562 1882.08496094 894.83984375 1877.0390625 894.62109375 c 5
 1971.78125 791.326171875 2030.18652344 660.254882812 2049.84960938 524.140625 c 4
 2054.36621094 492.872070312 2056.91113281 460.682617188 2056.91113281 428.139648438 c 4
 2056.91113281 256.576171875 1976.20507812 104.837890625 1857.52539062 30.662109375 c 4
 1802.72558594 -3.587890625 1738.61523438 -23.90625 1671.27050781 -23.90625 c 4
 1522.63476562 -23.90625 1413.1875 68.9501953125 1355.18945312 165.720703125 c 4
 1304.05664062 251.03515625 1285.42773438 346.141601562 1285.42773438 437.29296875 c 4
 1285.42773438 617.922851562 1344.27148438 770.143554688 1454.625 894.4375 c 5
 1447.68359375 894.858398438 1440.43652344 895.115234375 1433.40332031 895.115234375 c 4
 1281.38867188 895.115234375 1188.89257812 804.90234375 1161.52734375 678.298828125 c 4
 1151.796875 633.284179688 1150.38769531 580.779296875 1150.38769531 522.520507812 c 4
 1150.43359375 373.975585938 1150.56933594 225.434570312 1150.66015625 76.890625 c 4
 1150.01855469 22.333984375 1105.21777344 -21.9443359375 1050.65722656 -21.9443359375 c 4
 996.338867188 -21.9443359375 951.540039062 22.1337890625 950.66015625 76.4453125 c 6
 948.974609375 516.1796875 l 6
 948.653320312 600.008789062 941.940429688 674.625976562 915.3984375 730.478515625 c 4
 872.390625 820.982421875 774.322265625 891.334960938 644.014648438 891.334960938 c 4
 476.028320312 891.334960938 359.018554688 778.895507812 307.646484375 654.97265625 c 5
 361.754882812 686.275390625 418.456054688 703.640625 488.78125 703.640625 c 4
 687.788085938 703.640625 849.138671875 541.849609375 849.138671875 344.508789062 c 4
 849.138671875 148.608398438 688.587890625 -11.162109375 495.178710938 -11.162109375 c 4
 472.969726562 -11.162109375 451.040039062 -9.03125 429.56640625 -5.12109375 c 4
 427.224609375 -5.3212890625 423.416015625 -5.4833984375 421.065429688 -5.4833984375 c 4
 413.616210938 -5.4833984375 401.741210938 -3.880859375 394.55859375 -1.90625 c 4
 318.970703125 18.0126953125 251.947265625 62.1533203125 203.90625 123.6953125 c 5
 114.736328125 222.736328125 75 346.595703125 75 488.352539062 c 4
 75 699.696289062 169.677734375 862.068359375 294.83203125 964.576171875 c 4
 389.392578125 1042.02539062 497.57421875 1091.4296875 644.879882812 1091.4296875 c 4
 821.112304688 1091.4296875 961.064453125 1007.87109375 1043.703125 901.19140625 c 5
1856.66210938 430.473632812 m 4
 1856.66210938 599.25 1774.92285156 737.928710938 1664.6171875 817.19140625 c 5
 1664.61523438 817.19140625 l 5
 1557.53125 737.87890625 1485.51464844 596.987304688 1485.51464844 439.194335938 c 4
 1485.51464844 334.866210938 1523.25976562 245.080078125 1589.34570312 201.814453125 c 4
 1614.45800781 185.374023438 1642.50097656 176.102539062 1670.81640625 176.102539062 c 4
 1739.90917969 176.102539062 1791.06835938 223.515625 1819.12304688 272.064453125 c 4
 1844.60644531 316.166015625 1856.66210938 371.818359375 1856.66210938 430.473632812 c 4
649.076171875 345.978515625 m 4
 649.076171875 432.684570312 576.364257812 503.587890625 487.450195312 503.587890625 c 4
 400.280273438 503.587890625 327.939453125 430.758789062 327.939453125 343.556640625 c 4
 327.939453125 252.526367188 405.030273438 188.831054688 494.9375 188.831054688 c 4
 579.59765625 188.831054688 649.076171875 259.729492188 649.076171875 345.978515625 c 4
EndSplineSet
EndChar

StartChar: t1
Encoding: 3359 3359 67
Width: 1134
GlyphClass: 2
Flags: HW
LayerCount: 2
Fore
SplineSet
1060 318 m 4
 1060 75 815 -22 589 -22 c 4
 388 -22 224 43 102 174 c 5
 84 191 75 215 75 240 c 4
 75 294 119 333 171 333 c 4
 198 333 222 322 240 303 c 5
 325 215 439 170 590 170 c 4
 744 170 871 217 871 320 c 4
 871 425 752 453 574 453 c 5
 296 454 88 536 88 772 c 4
 88 975 309 1096 549 1096 c 4
 741 1096 892 1029 996 892 c 5
 1009 874 1016 854 1016 831 c 4
 1016 778 969 740 918 740 c 4
 890 740 864 752 845 776 c 5
 779 860 682 904 543 904 c 4
 401 904 278 847 278 770 c 4
 278 671 405 648 561 646 c 4
 838 642 1060 566 1060 318 c 4
EndSplineSet
EndChar

StartChar: t2
Encoding: 3360 3360 68
Width: 1238
GlyphClass: 2
Flags: HW
LayerCount: 2
Fore
SplineSet
618 174 m 0
 824 174 973 325 973 502 c 0
 973 677 824 831 621 831 c 0
 414 831 265 683 265 504 c 0
 265 317 418 174 618 174 c 0
75 499 m 0
 75 799 307 1021 622 1021 c 0
 928 1021 1163 796 1163 503 c 0
 1163 219 918 -16 620 -16 c 0
 313 -16 75 206 75 499 c 0
EndSplineSet
EndChar

StartChar: t4
Encoding: 3362 3362 70
Width: 2554
GlyphClass: 2
Flags: HW
LayerCount: 2
Fore
SplineSet
1896 692 m 0
 1896 597 1976 523 2072 523 c 0
 2176 523 2256 603 2256 698 c 0
 2256 798 2156 860 2078 860 c 0
 1971 860 1896 797 1896 692 c 0
886 388 m 0
 886 444 891 504 891 552 c 0
 891 729 789 857 612 857 c 0
 414 857 265 690 265 498 c 0
 265 294 419 165 634 165 c 0
 681 165 716 110 716 70 c 0
 716 7 662 -25 608 -25 c 0
 306 -25 75 200 75 496 c 0
 75 795 320 1047 607 1047 c 0
 900 1047 1081 833 1081 550 c 0
 1081 504 1077 449 1077 412 c 0
 1077 260 1098 165 1202 165 c 0
 1358 165 1391 362 1392 570 c 0
 1394 963 l 1
 1395 1018 1437 1057 1495 1057 c 0
 1546 1057 1584 1009 1584 962 c 1
 1582 567 l 1
 1582 567 1581 527 1581 496 c 0
 1581 290 1705 159 1902 159 c 0
 2044 159 2157 257 2226 366 c 1
 2173 341 2118 332 2076 332 c 1
 1859 333 1707 503 1707 695 c 0
 1707 885 1872 1052 2075 1052 c 0
 2319 1052 2479 848 2479 613 c 0
 2479 275 2251 -31 1901 -31 c 0
 1721 -31 1584 47 1498 159 c 1
 1440 60 1339 -24 1187 -24 c 0
 967 -24 886 197 886 388 c 0
EndSplineSet
EndChar

StartChar: nh
Encoding: 3363 3363 71
Width: 2773
GlyphClass: 2
Flags: HW
LayerCount: 2
Fore
SplineSet
647.33203125 1097.76757812 m 4
 829.676757812 1097.76757812 973.126953125 1003.25878906 1054.69628906 889.470703125 c 5
 1119.53710938 993.392578125 1241.51269531 1093.4921875 1401.06054688 1093.4921875 c 4
 1560.35546875 1093.4921875 1678.86230469 995.043945312 1743.83691406 890.2421875 c 5
 1826.17675781 1003.57324219 1961.92089844 1090.93261719 2145.33984375 1090.93261719 c 4
 2449.2265625 1090.93261719 2698.64746094 844.336914062 2698.64746094 535.841796875 c 4
 2698.64746094 231.1171875 2453.00585938 -18 2143.51464844 -18 c 4
 2121.46289062 -18 2099.3515625 -16.6787109375 2077.30371094 -14 c 4
 2027.95410156 -8.7353515625 1987.90234375 35.81640625 1987.90234375 85.4462890625 c 4
 1987.90234375 140.651367188 2032.70605469 185.456054688 2087.91210938 185.456054688 c 4
 2105.74902344 185.456054688 2123.46191406 182.13671875 2141.58691406 182.13671875 c 4
 2339.43457031 182.13671875 2498.52832031 339.8984375 2498.52832031 534.002929688 c 4
 2498.52832031 731.729492188 2340.11132812 890.895507812 2145.90527344 890.895507812 c 4
 1977.28417969 890.895507812 1877.5703125 780.149414062 1848.64550781 638.12109375 c 4
 1838.84667969 590.005859375 1837.06835938 535.685546875 1837.06835938 476.581054688 c 4
 1837.06835938 470.28515625 1837.08886719 463.935546875 1837.12207031 457.533203125 c 6
 1839.06152344 79.1328125 l 5
 1839.06152344 78.845703125 l 6
 1838.65429688 24.05078125 1793.8515625 -20.4208984375 1739.0546875 -20.4208984375 c 4
 1684.97265625 -20.4208984375 1640.17773438 23.462890625 1639.06542969 77.533203125 c 5
 1639.06542969 77.8203125 l 5
 1636.06933594 452.55859375 l 6
 1634.66699219 628.022460938 1614.59960938 773.487304688 1515.49316406 851.4765625 c 4
 1482.16699219 877.701171875 1443.93945312 893.4609375 1401.97558594 893.4609375 c 4
 1310.41992188 893.4609375 1245.98535156 828.313476562 1211.77636719 761.822265625 c 4
 1174.81640625 689.981445312 1164.71484375 603.02734375 1164.25878906 496.30859375 c 4
 1164.55566406 480.213867188 1164.68847656 464.359375 1164.78613281 448.880859375 c 6
 1167.11035156 79.810546875 l 6
 1167.11035156 79.5634765625 1167.11035156 79.31640625 1167.11035156 79.0703125 c 4
 1166.69140625 24.287109375 1121.88867188 -20.1748046875 1067.10351562 -20.1748046875 c 4
 1013.06835938 -20.1748046875 968.2734375 23.669921875 967.116210938 77.693359375 c 5
 967.116210938 77.810546875 l 5
 966.0859375 214.852539062 964.166992188 351.661132812 964.166992188 488.90625 c 4
 964.166992188 490.923828125 964.168945312 492.9453125 964.172851562 494.970703125 c 4
 960.166992188 674.708984375 910.541992188 798.92578125 790.311523438 862.751953125 c 4
 747.349609375 885.55859375 697.78515625 897.765625 647.517578125 897.765625 c 4
 552.954101562 897.765625 454.205078125 851.76171875 387.573242188 779.234375 c 4
 342.213867188 729.860351562 309.397460938 667.069335938 291.276367188 599.70703125 c 5
 349.859375 643.29296875 422.552734375 667.7578125 496.397460938 667.7578125 c 4
 687.56640625 667.7578125 839.418945312 518.19921875 839.418945312 325.446289062 c 4
 839.418945312 171.474609375 742.446289062 58.056640625 630.151367188 11.26953125 c 4
 586.657226562 -6.8525390625 540.946289062 -15.3876953125 495.548828125 -15.3876953125 c 4
 363.116210938 -15.3876953125 271.202148438 45.4228515625 205.942382812 116.00390625 c 4
 124.5078125 204.080078125 75 323.458007812 75 477.162109375 c 4
 75 644.856445312 130.987304688 795.564453125 240.291992188 914.54296875 c 4
 343.56640625 1026.95703125 490.838867188 1097.76757812 647.33203125 1097.76757812 c 4
497.509765625 467.713867188 m 4
 416.64453125 467.713867188 352.95703125 405.907226562 352.95703125 324.95703125 c 4
 352.95703125 241.953125 409.857421875 184.883789062 494.888671875 184.883789062 c 4
 578.256835938 184.883789062 639.259765625 243.791992188 639.259765625 326.7578125 c 4
 639.259765625 405.213867188 575.416015625 467.713867188 497.509765625 467.713867188 c 4
EndSplineSet
EndChar

StartChar: th1
Encoding: 3364 3364 72
Width: 1799
GlyphClass: 2
Flags: HW
LayerCount: 2
Fore
SplineSet
508 440 m 4
 508 627 581 778 684 889 c 5
 674 890 664 890 654 890 c 4
 477 890 346 779 297 644 c 4
 282 603 275 561 275 517 c 4
 275 344 383 221 512 171 c 4
 548 158 577 116 577 78 c 4
 577 23 532 -22 477 -22 c 4
 466 -22 450 -19 440 -15 c 4
 262 54 118 216 83 422 c 4
 78 453 75 485 75 517 c 4
 75 712 164 856 277 952 c 4
 364 1025 469 1072 581 1086 c 4
 606 1089 630 1090 655 1090 c 4
 738 1090 821 1073 897 1040 c 5
 974 1073 1057 1091 1141 1091 c 6
 1142 1091 l 6
 1170 1091 1199 1089 1227 1085 c 4
 1447 1053 1625 899 1693 705 c 4
 1714 644 1725 579 1725 515 c 4
 1725 483 1722 452 1717 420 c 4
 1683 218 1544 58 1373 -13 c 4
 1362 -18 1344 -22 1333 -22 c 4
 1278 -22 1233 23 1233 78 c 4
 1233 115 1261 157 1296 171 c 4
 1420 223 1525 345 1525 515 c 4
 1525 639 1471 730 1401 793 c 4
 1334 853 1251 891 1143 891 c 4
 1132 891 1122 891 1111 890 c 5
 1215 779 1289 627 1289 437 c 4
 1289 267 1208 117 1092 43 c 4
 1036 7 970 -15 899 -15 c 4
 749 -15 637 79 578 176 c 4
 528 258 508 350 508 440 c 4
898 812 m 5
 794 737 708 607 708 442 c 4
 708 339 749 251 816 210 c 4
 842 194 873 185 900 185 c 4
 970 185 1022 233 1051 282 c 4
 1077 326 1089 381 1089 439 c 4
 1089 608 1003 737 898 812 c 5
EndSplineSet
EndChar

StartChar: th2
Encoding: 3365 3365 73
Width: 1609
GlyphClass: 2
Flags: HW
LayerCount: 2
Fore
SplineSet
75 1000.80175781 m 4
 75 1055.28710938 119.509765625 1100.81152344 175.009765625 1100.81152344 c 4
 230.21484375 1100.81152344 275.01953125 1056.00683594 275.01953125 1000.80175781 c 4
 275.01953125 1000.57714844 275.018554688 1000.21289062 275.016601562 999.98828125 c 6
 279.661132812 200.837890625 l 1
 368.428710938 200.7734375 457.196289062 200.708984375 545.963867188 200.64453125 c 1
 543.819335938 479.412109375 l 6
 543.71875 491.208984375 543.623046875 503.220703125 543.623046875 515.432617188 c 4
 543.623046875 679.521484375 573.267578125 804.15625 652.063476562 908.64453125 c 4
 732.521484375 1015.33886719 865.049804688 1098.03125 1040.07714844 1098.03125 c 4
 1305.59277344 1098.03125 1479.48632812 922.709960938 1521.58496094 696.6171875 c 4
 1532.81835938 636.288085938 1534.01660156 579.08984375 1534.01660156 526.448242188 c 4
 1534.01660156 520.018554688 1533.99902344 513.65625 1533.97949219 507.365234375 c 6
 1532.79003906 99.6875 l 2
 1532.61230469 44.66015625 1487.80859375 0 1432.71972656 0 c 2
 180.186523438 0.91015625 l 2
 125.36328125 0.955078125 80.5966796875 45.4853515625 80.2607421875 100.306640625 c 2
 75.0205078125 998.78515625 l 6
 75.0087890625 999.341796875 75 1000.24511719 75 1000.80175781 c 4
1324.96386719 660.0078125 m 4
 1299.34375 797.60546875 1201.5625 898.009765625 1040.58886719 898.009765625 c 4
 877.807617188 898.009765625 781.1875 791.359375 754.014648438 653.357421875 c 4
 745.48046875 610.01953125 743.682617188 561.2890625 743.682617188 508.262695312 c 4
 743.682617188 499.3359375 743.733398438 490.288085938 743.811523438 481.123046875 c 6
 745.971679688 200.498046875 l 1
 769.385742188 200.481445312 792.80078125 200.46484375 816.215820312 200.447265625 c 2
 1333.10449219 200.072265625 l 1
 1333.97949219 507.990234375 l 6
 1333.99121094 511.829101562 1333.99804688 515.64453125 1333.99804688 519.434570312 c 4
 1333.99804688 571.287109375 1332.69140625 618.505859375 1324.96386719 660.0078125 c 4
EndSplineSet
EndChar

StartChar: th3
Encoding: 3366 3366 74
Width: 1215
GlyphClass: 2
Flags: HW
LayerCount: 2
Fore
SplineSet
685 897 m 4
 436 897 276 668 276 439 c 4
 276 337 307 232 376 142 c 4
 388 127 398 99 398 80 c 4
 398 25 353 -20 298 -20 c 4
 270 -20 234 -2 217 20 c 4
 124 142 75 293 75 444 c 4
 75 514 85 584 107 652 c 4
 180 882 396 1098 689 1098 c 4
 905 1098 1106 955 1106 729 c 4
 1106 653 1081 579 1032 520 c 5
 1092 472 1140 391 1140 291 c 4
 1140 115 988 -26 817 -26 c 4
 739 -26 589 15 589 115 c 4
 589 170 634 215 689 215 c 4
 706 215 732 208 746 198 c 4
 768 183 793 176 817 176 c 4
 881 176 940 225 940 290 c 4
 940 377 864 392 774 394 c 6
 741 395 l 6
 687 396 643 441 643 495 c 4
 643 542 681 585 727 593 c 6
 754 598 l 6
 758 599 766 599 770 599 c 4
 849 599 905 661 905 731 c 4
 905 839 793 897 685 897 c 4
EndSplineSet
EndChar

StartChar: th4
Encoding: 3367 3367 75
Width: 1917
GlyphClass: 2
Flags: HW
LayerCount: 2
Fore
SplineSet
1068.06933594 463.90625 m 5
 1081.22070312 305.075195312 1169.33789062 179.778320312 1338.00488281 179.778320312 c 4
 1516.08984375 179.778320312 1643.08203125 332.944335938 1643.08203125 508.176757812 c 4
 1643.08203125 534.731445312 1640.16601562 561.793945312 1634.06933594 588.90625 c 4
 1600.06933594 739.90625 1468.06933594 865.90625 1303.06933594 882.90625 c 4
 1253.06933594 887.90625 1212.06933594 932.90625 1212.06933594 982.90625 c 4
 1212.06933594 1037.90625 1257.06933594 1082.90625 1312.06933594 1082.90625 c 4
 1315.06933594 1082.90625 1321.06933594 1081.90625 1324.06933594 1081.90625 c 4
 1577.06933594 1054.90625 1777.06933594 864.90625 1829.06933594 632.90625 c 4
 1838.08105469 592.349609375 1842.59667969 550.950195312 1842.59667969 509.6015625 c 4
 1842.59667969 295.486328125 1715.88476562 111.314453125 1557.06933594 31.90625 c 4
 1488.75878906 -2.736328125 1413.54394531 -20 1338.74316406 -20 c 4
 1175.18457031 -20 1043.75292969 62.9951171875 968.069335938 163.90625 c 5
 892.436523438 62.736328125 760.84765625 -18.1728515625 596.043945312 -18.1728515625 c 4
 311.721679688 -18.1728515625 75 224.654296875 75 520.229492188 c 4
 75 834.66796875 328.965820312 1082.921875 639.932617188 1082.921875 c 4
 641.311523438 1082.921875 642.690429688 1082.91699219 644.069335938 1082.90625 c 6
 645.069335938 1082.90625 l 6
 700.069335938 1082.90625 745.069335938 1037.90625 745.069335938 982.90625 c 4
 745.069335938 927.90625 700.069335938 882.90625 645.069335938 882.90625 c 4
 455.069335938 882.90625 305.069335938 741.90625 279.069335938 572.90625 c 4
 276.57421875 556.158203125 275.349609375 539.15625 275.349609375 522.108398438 c 4
 275.349609375 337.2109375 416.912109375 181.8203125 596.784179688 181.8203125 c 4
 764.294921875 181.8203125 855.377929688 303.12890625 867.069335938 462.90625 c 5
 865.069335938 500.90625 865.069335938 535.90625 865.069335938 569.90625 c 6
 865.069335938 983.90625 l 5
 866.069335938 1038.90625 910.069335938 1082.90625 965.069335938 1082.90625 c 4
 1019.06933594 1082.90625 1064.06933594 1038.90625 1065.06933594 984.90625 c 6
 1070.06933594 568.90625 l 6
 1070.06933594 535.90625 1070.06933594 500.90625 1068.06933594 463.90625 c 5
EndSplineSet
EndChar

StartChar: n1
Encoding: 3368 3368 76
Width: 1917
GlyphClass: 2
Flags: HW
LayerCount: 2
Fore
SplineSet
596.323242188 1089.13769531 m 0
 757.577148438 1089.13769531 892.48828125 1006.20898438 967.848632812 905.630859375 c 1
 1043.21191406 1007.35351562 1172.81054688 1090.04394531 1338.23632812 1090.04394531 c 0
 1629.01855469 1090.04394531 1842.88769531 844.83984375 1842.88769531 561.841796875 c 0
 1842.88769531 520.684570312 1838.36425781 478.727539062 1828.89550781 436.609375 c 0
 1776.82519531 204.977539062 1576.9140625 14.0947265625 1324.20410156 -12.41796875 c 0
 1320.94628906 -12.806640625 1315.63867188 -13.1220703125 1312.35742188 -13.1220703125 c 0
 1257.15234375 -13.1220703125 1212.34765625 31.681640625 1212.34765625 86.8876953125 c 0
 1212.34765625 137.319335938 1253.11132812 181.94140625 1303.33691406 186.490234375 c 0
 1468.47167969 203.813476562 1599.73242188 329.0859375 1633.76464844 480.4765625 c 0
 1639.84179688 507.510742188 1642.74902344 534.509765625 1642.74902344 561.017578125 c 0
 1642.74902344 736.28125 1515.6796875 890.038085938 1337.9375 890.038085938 c 0
 1168.96972656 890.038085938 1081.03515625 765.109375 1068.07519531 606.353515625 c 1
 1069.45703125 582.034179688 1069.83496094 558.377929688 1069.83496094 535.5234375 c 0
 1069.83496094 523.634765625 1069.73242188 511.963867188 1069.61621094 500.529296875 c 2
 1065.38964844 85.076171875 l 2
 1064.34277344 30.9384765625 1019.546875 -13 965.3984375 -13 c 0
 910.752929688 -13 865.950195312 31.3486328125 865.393554688 85.9921875 c 2
 864.975585938 499.775390625 l 2
 864.97265625 502.607421875 864.970703125 505.453125 864.970703125 508.313476562 c 0
 864.970703125 539.76171875 865.22265625 572.870117188 867.475585938 607.28125 c 1
 858.400390625 730.51171875 806.272460938 817.940429688 716.401367188 861.244140625 c 0
 677.322265625 880.07421875 636.875976562 888.46484375 597.185546875 888.46484375 c 0
 420.193359375 888.46484375 276.05078125 732.54296875 276.05078125 554.717773438 c 0
 276.05078125 446.682617188 324.625 340.783203125 402.708007812 274.134765625 c 0
 469.229492188 217.35546875 556.688476562 186.94140625 644.526367188 186.94140625 c 0
 699.732421875 186.94140625 744.537109375 142.13671875 744.537109375 86.931640625 c 0
 744.537109375 31.7255859375 699.732421875 -13.078125 644.526367188 -13.078125 c 0
 644.352539062 -13.078125 644.0703125 -13.078125 643.895507812 -13.076171875 c 0
 642.370117188 -13.0888671875 640.845703125 -13.0947265625 639.321289062 -13.0947265625 c 0
 328.391601562 -13.0947265625 75 235.90625 75 549.939453125 c 0
 75 843.358398438 310.432617188 1089.13769531 596.323242188 1089.13769531 c 0
EndSplineSet
EndChar

StartChar: p1
Encoding: 3370 3370 77
Width: 1681
GlyphClass: 2
Flags: HW
LayerCount: 2
Fore
SplineSet
1404.68359375 976.697265625 m 4
 1404.68359375 1031.32519531 1449.25195312 1076.70703125 1504.69433594 1076.70703125 c 4
 1559.89941406 1076.70703125 1604.70410156 1031.90234375 1604.70410156 976.697265625 c 4
 1604.70410156 976.354492188 1604.70019531 975.798828125 1604.69628906 975.45703125 c 6
 1606.21972656 100.669921875 l 5
 1606.21972656 100.504882812 l 6
 1606.21972656 45.298828125 1561.41503906 0.494140625 1506.20996094 0.494140625 c 4
 1506.07324219 0.494140625 1505.85253906 0.4951171875 1505.71582031 0.49609375 c 6
 577.610351562 5.185546875 l 6
 522.709960938 5.4892578125 478.153320312 50.29296875 478.153320312 105.193359375 c 4
 478.153320312 141.111328125 504.803710938 182.073242188 537.641601562 196.626953125 c 4
 597.995117188 223.338867188 648.708007812 284.1953125 648.708007812 368.841796875 c 4
 648.708007812 473.216796875 564.729492188 554.56640625 461.836914062 554.56640625 c 4
 359.651367188 554.56640625 275.180664062 472.6171875 275.180664062 369.095703125 c 4
 275.180664062 280.580078125 331.760742188 216.026367188 398.002929688 191.91015625 c 4
 435.05078125 179.006835938 465.119140625 136.694335938 465.119140625 97.4638671875 c 4
 465.119140625 42.2587890625 420.314453125 -2.5458984375 365.109375 -2.5458984375 c 4
 354.971679688 -2.5458984375 339.0546875 0.376953125 329.579101562 3.978515625 c 4
 193.540039062 53.5068359375 75 186.508789062 75 367.627929688 c 4
 75 584.672851562 247.893554688 754.567382812 461.962890625 754.567382812 c 4
 676.594726562 754.567382812 848.920898438 585.522460938 848.920898438 367.737304688 c 4
 848.920898438 311.434570312 836.624023438 255.5078125 812.592773438 204 c 5
 1406.04394531 201.001953125 l 5
 1404.69628906 975.109375 l 6
 1404.68945312 975.546875 1404.68359375 976.258789062 1404.68359375 976.697265625 c 4
EndSplineSet
EndChar

StartChar: p2
Encoding: 3371 3371 78
Width: 2198
GlyphClass: 2
Flags: HW
LayerCount: 2
Fore
SplineSet
2020 1 m 6
 585 4 l 6
 530 5 486 49 486 104 c 0
 486 139 512 180 544 195 c 0
 601 221 654 285 654 366 c 0
 654 472 570 556 465 556 c 0
 359 556 275 466 275 366 c 0
 275 280 336 211 404 188 c 0
 442 176 473 132 473 92 c 0
 473 37 428 -8 373 -8 c 0
 363 -8 348 -5 339 -2 c 0
 200 45 75 186 75 365 c 0
 75 386 77 406 80 428 c 0
 108 604 265 756 465 756 c 0
 658 756 807 615 844 452 c 0
 850 424 854 396 854 367 c 0
 854 311 842 255 818 203 c 1
 1037 202 l 1
 1038 446 l 2
 1038 514 1038 589 1055 668 c 0
 1105 906 1293 1088 1576 1088 c 0
 1867 1088 2060 902 2108 656 c 0
 2121 591 2123 530 2123 472 c 2
 2123 438 l 1
 2120 101 l 2
 2120 46 2075 1 2020 1 c 6
1577 888 m 0
 1395 888 1282 779 1250 626 c 0
 1239 573 1238 512 1238 446 c 2
 1237 201 l 1
 1921 201 l 1
 1923 439 l 1
 1923 455 l 2
 1923 586 1909 681 1852 759 c 0
 1796 835 1702 888 1577 888 c 0
EndSplineSet
EndChar

StartChar: p3
Encoding: 3372 3372 79
Width: 2560
GlyphClass: 2
Flags: HW
LayerCount: 2
Fore
SplineSet
687 1098 m 4
 881 1098 1029 1004 1114 882 c 5
 1193 998 1332 1092 1516 1092 c 4
 1654 1092 1788 1035 1885 937 c 4
 1985 835 2039 696 2039 555 c 4
 2039 415 1993 298 1911 199 c 5
 2284 198 l 5
 2285 965 l 6
 2285 966 l 4
 2285 1021 2330 1066 2385 1066 c 4
 2440 1066 2485 1021 2485 966 c 4
 2485 965 l 6
 2484 97 l 6
 2484 42 2439 -3 2384 -3 c 6
 2383 -3 l 5
 1540 0 l 6
 1485 0 1441 45 1441 100 c 4
 1441 148 1479 193 1527 199 c 4
 1694 221 1839 367 1839 554 c 4
 1839 643 1803 735 1742 797 c 4
 1683 857 1597 892 1514 892 c 4
 1347 892 1250 773 1225 628 c 4
 1217 580 1216 526 1216 468 c 6
 1216 98 l 5
 1216 97 l 6
 1215 42 1171 -1 1116 -1 c 4
 1062 -1 1017 43 1016 97 c 6
 1015 468 l 6
 1015 598 1003 693 949 770 c 4
 897 844 808 898 688 898 c 4
 601 898 511 867 441 812 c 4
 400 780 365 739 338 694 c 5
 383 713 431 722 480 722 c 4
 508 722 537 719 565 712 c 4
 712 677 843 541 843 361 c 4
 843 329 839 297 830 266 c 4
 792 127 669 8 489 8 c 4
 342 8 239 82 172 171 c 4
 108 256 75 347 75 472 c 4
 75 522 81 572 93 619 c 4
 155 869 382 1098 687 1098 c 4
642 359 m 4
 642 451 574 522 482 522 c 4
 388 522 317 454 317 360 c 4
 317 336 324 313 331 292 c 5
 367 245 417 208 489 208 c 4
 577 208 642 273 642 359 c 4
EndSplineSet
EndChar

StartChar: p4
Encoding: 3373 3373 80
Width: 1344
GlyphClass: 2
Flags: HW
LayerCount: 2
Fore
SplineSet
736.932617188 769.643554688 m 4
 857.171875 769.643554688 912.845703125 723.412109375 1004.80078125 723.412109375 c 4
 1040.02636719 723.412109375 1069.0546875 733.831054688 1069.0546875 766.956054688 c 4
 1069.0546875 843.219726562 971.856445312 873.203125 902.96875 887.349609375 c 4
 856.260742188 896.940429688 810.954101562 901.432617188 767.504882812 901.432617188 c 4
 571.83984375 901.432617188 413.830078125 810.333007812 335.0625 683.546875 c 4
 293.463867188 616.588867188 275.043945312 544.56640625 275.043945312 474.504882812 c 4
 275.043945312 352.608398438 330.805664062 236.650390625 417.271484375 163.63671875 c 4
 437.439453125 147.073242188 453.807617188 112.44921875 453.807617188 86.3505859375 c 4
 453.807617188 31.1455078125 409.002929688 -13.6591796875 353.797851562 -13.6591796875 c 4
 333.178710938 -13.6591796875 303.806640625 -2.6884765625 288.236328125 10.828125 c 4
 158.490234375 120.387695312 75 293.452148438 75 475.641601562 c 4
 75 580.560546875 102.688476562 688.505859375 165.177734375 789.08984375 c 4
 277.509765625 969.90234375 490.51171875 1102.21972656 761.71484375 1102.21972656 c 4
 819.688476562 1102.21972656 880.321289062 1096.17285156 943.19921875 1083.26171875 c 4
 1101.19238281 1050.81738281 1269.03125 959.438476562 1269.03125 767.251953125 c 4
 1269.03125 619.92578125 1146.703125 523.770507812 1002.55273438 523.770507812 c 4
 912.033203125 523.770507812 785.927734375 569.57421875 733.28125 569.57421875 c 4
 700.977539062 569.57421875 653.545898438 553.123046875 653.545898438 524.930664062 c 4
 653.545898438 518.6796875 655.919921875 511.8515625 661.390625 504.49609375 c 4
 682.8671875 475.622070312 722.91796875 467.750976562 769.518554688 467.750976562 c 4
 827.880859375 467.750976562 891.403320312 479.130859375 950.4296875 479.130859375 c 4
 1006.31835938 479.130859375 1069.53320312 471.583984375 1130.73632812 439.0390625 c 4
 1196.92382812 403.84375 1265.16210938 330.095703125 1265.16210938 230.911132812 c 4
 1265.16210938 120.998046875 1187.30566406 47.4296875 1110.07421875 15 c 4
 1041.37597656 -13.8466796875 975.833007812 -14.3994140625 922.751953125 -14.3994140625 c 4
 805.982421875 -14.3994140625 690.166992188 -8.5361328125 574.3671875 3.5859375 c 4
 524.145507812 8.1376953125 483.385742188 52.759765625 483.385742188 103.1875 c 4
 483.385742188 158.392578125 528.189453125 203.197265625 583.395507812 203.197265625 c 4
 586.661132812 203.197265625 591.944335938 202.884765625 595.1875 202.5 c 4
 702.555664062 191.260742188 810.517578125 185.6171875 918.47265625 185.6015625 c 6
 918.860351562 185.6015625 l 6
 983.491210938 185.6015625 1033.85253906 188.1640625 1058.69726562 216.92578125 c 4
 1062.98242188 221.88671875 1064.765625 226.6875 1064.765625 231.236328125 c 4
 1064.765625 244.594726562 1049.38574219 255.779296875 1036.83398438 262.453125 c 4
 1011.70019531 275.818359375 982.008789062 279.978515625 949.596679688 279.978515625 c 4
 894.874023438 279.978515625 833.181640625 268.614257812 771.283203125 268.614257812 c 4
 715.735351562 268.614257812 652.985351562 276.078125 592.095703125 308.138671875 c 4
 520.893554688 345.626953125 454.486328125 428.114257812 454.486328125 524.619140625 c 4
 454.486328125 676.919921875 596.219726562 769.643554688 736.932617188 769.643554688 c 4
EndSplineSet
EndChar

StartChar: m1
Encoding: 3374 3374 81
Width: 1407
GlyphClass: 2
Flags: HW
LayerCount: 2
Fore
SplineSet
1332.81445312 464.262695312 m 0
 1332.81445312 346.358738397 1331 220.962793948 1331 100 c 4
 1330.99511719 44.8056640625 1286.19433594 0.005859375 1231 0 c 2
 273.7265625 0 l 2
 272.494140625 -0.0546875 270.491210938 -0.099609375 269.256835938 -0.099609375 c 0
 268.022460938 -0.099609375 266.020507812 -0.0546875 264.787109375 0 c 2
 175 0 l 2
 119.805664062 0.005859375 75.005859375 44.8056640625 75 100 c 2
 75 484 l 1
 75.0625 484 l 2
 75.0556640625 484.432617188 75.0498046875 485.134765625 75.0498046875 485.567382812 c 0
 75.0498046875 658.758789062 164.198242188 830.080078125 293.15625 941.166015625 c 0
 373.0625 1009.99707031 472.623046875 1062.171875 577.97265625 1082.33203125 c 0
 616.939453125 1090.23144531 661.295898438 1093.56054688 704.532226562 1093.56054688 c 0
 706.034179688 1093.56054688 707.536132812 1093.5546875 709.0390625 1093.54492188 c 1
 709.0390625 1093.54492188 l 1
 1053.89355469 1091.16210938 1332.81445312 810.166015625 1332.81445312 464.262695312 c 0
645.75 889.0078125 m 1
 564.283203125 877.283203125 485.159179688 842.587890625 423.6875 789.634765625 c 0
 336.000976562 714.099609375 279.7265625 597.547851562 275.00390625 481.8828125 c 1
 275.00390625 201.48046875 l 1
 473.26171875 231.426757812 659.170898438 366.071289062 748.134765625 545.5703125 c 0
 776.295898438 602.389648438 793.517578125 660.223632812 793.517578125 713.931640625 c 0
 793.517578125 807.291015625 741.086914062 888.653320312 645.75 889.0078125 c 1
987.62109375 785.98828125 m 1
 991.604492188 762.028320312 993.516601562 737.89453125 993.516601562 714.028320312 c 0
 993.516601562 619.030273438 964.873046875 532.5 927.33203125 456.755859375 c 0
 878.469726562 358.168945312 809.959960938 271.1640625 727.900390625 200 c 1
 1131.00390625 200 l 1
 1132.29101562 484 l 2
 1133 594 1068.12778008 716.84014011 987.62109375 785.98828125 c 1
EndSplineSet
EndChar

StartChar: y1
Encoding: 3375 3375 82
Width: 1925
GlyphClass: 2
Flags: HW
HStem: -28 142<546.147 828.879 1147.46 1418.42> 890 135<318.156 539.006 883.758 1132.29>
VStem: 93.6982 141<422.703 802.094> 625.698 138<389.311 748.695> 1235.7 141<401.982 775.796> 1666.7 142<375.263 751.799>
LayerCount: 2
Fore
SplineSet
438 1095 m 0
 562 1095 660 1025 720 941 c 1
 787 1022 888 1092 1028 1092 c 0
 1198 1092 1309 987 1367 872 c 0
 1404 799 1418 720 1418 643 c 0
 1418 617 1417 592 1414 567 c 0
 1396 421 1330 284 1228 179 c 1
 1232 179 1235 179 1239 179 c 0
 1274 179 1308 183 1341 192 c 0
 1507 236 1651 392 1651 595 c 0
 1651 713 1596 836 1507 914 c 0
 1488 931 1472 965 1472 990 c 0
 1472 1045 1517 1090 1572 1090 c 0
 1593 1090 1624 1078 1640 1064 c 0
 1773 946 1851 774 1851 596 c 0
 1851 295 1639 64 1393 -2 c 0
 1342 -16 1289 -22 1237 -22 c 0
 1155 -22 1074 -6 998 25 c 1
 921 -5 838 -21 755 -21 c 0
 727 -21 700 -20 672 -16 c 0
 375 23 147 263 89 543 c 0
 80 585 75 628 75 673 c 0
 75 833 148 969 255 1039 c 0
 308 1074 372 1095 438 1095 c 0
608 622 m 0
 608 630 609 638 609 646 c 0
 609 730 582 801 541 845 c 0
 513 875 474 895 438 895 c 0
 373 895 328 849 304 802 c 0
 285 765 275 719 275 671 c 0
 275 642 279 613 285 583 c 0
 326 382 488 211 698 183 c 0
 716 181 734 179 752 179 c 0
 760 179 769 180 777 180 c 1
 671 295 609 444 609 609 c 0
 609 611 609 612 609 614 c 0
 609 616 608 620 608 622 c 0
1000 250 m 1
 1125 327 1218 470 1218 641 c 0
 1218 768 1155 892 1028 892 c 0
 961 892 914 860 879 820 c 0
 833 767 809 689 809 609 c 0
 809 464 887 325 1000 250 c 1
EndSplineSet
EndChar

StartChar: r3
Encoding: 3376 3376 83
Width: 1462
GlyphClass: 2
Flags: HW
LayerCount: 2
Fore
SplineSet
923.326171875 -17 m 4
 689.412109375 -17 495.15625 170.470703125 495.15625 414.399414062 c 4
 495.15625 449.350585938 499.357421875 484.440429688 507.880859375 518.865234375 c 4
 551.44921875 694.838867188 711.712890625 850.729492188 932.232421875 850.74609375 c 5
 868.6953125 878.689453125 800.129882812 893.4375 728.357421875 893.4375 c 4
 503.987304688 893.4375 316.221679688 745.067382812 281.01171875 553.212890625 c 4
 277.07421875 531.759765625 275.130859375 509.80859375 275.130859375 487.791992188 c 4
 275.130859375 340.916015625 352.78125 233.748046875 448.15625 174.1171875 c 4
 474.765625 158.002929688 496.362304688 119.677734375 496.362304688 88.5693359375 c 4
 496.362304688 33.3642578125 451.557617188 -11.4404296875 396.352539062 -11.4404296875 c 4
 380.087890625 -11.4404296875 355.795898438 -4.283203125 342.12890625 4.53515625 c 4
 195.341796875 96.310546875 75 261.2734375 75 486.955078125 c 4
 75 521.169921875 78.0810546875 555.443359375 84.296875 589.314453125 c 4
 136.193359375 872.100585938 403.16015625 1093.43945312 728.123046875 1093.43945312 c 4
 883.6796875 1093.43945312 1033.7109375 1044.82519531 1155.61132812 948.234375 c 4
 1275.68164062 853.091796875 1360.29882812 714.415039062 1382.1640625 559.59765625 c 4
 1385.80761719 533.796875 1387.64453125 507.727539062 1387.64453125 481.649414062 c 4
 1387.64453125 366.263671875 1351.6875 250.685546875 1277.19140625 157.376953125 c 4
 1202.43457031 63.7412109375 1082.06835938 -17 923.326171875 -17 c 4
695.625 416.873046875 m 4
 695.625 285.225585938 797.912109375 183.03125 922.7265625 183.03125 c 4
 1042.3515625 183.03125 1123.08203125 261.611328125 1160.31835938 349.021484375 c 5
 1163.92578125 369.1640625 1168.56054688 389.958007812 1168.56054688 411.833007812 c 4
 1168.56054688 532.671875 1085.40917969 619.737304688 989.560546875 643.72265625 c 4
 971.686523438 648.1953125 952.952148438 650.377929688 934.067382812 650.377929688 c 4
 812.88671875 650.377929688 725.829101562 566.971679688 702.017578125 470.798828125 c 4
 697.715820312 453.424804688 695.625 435.227539062 695.625 416.873046875 c 4
EndSplineSet
EndChar

StartChar: rh
Encoding: 3377 3377 84
Width: 1339
GlyphClass: 2
Flags: HW
LayerCount: 2
Fore
SplineSet
75 518.91796875 m 4
 75 843.8046875 349.017578125 1088.8671875 670.182617188 1088.8671875 c 4
 990.330078125 1088.8671875 1264.30078125 841.904296875 1264.30078125 519.724609375 c 4
 1264.30078125 252.506835938 1075.90136719 50.833984375 860.854492188 -7 c 4
 853.454101562 -9.103515625 841.204101562 -10.810546875 833.51171875 -10.810546875 c 4
 778.305664062 -10.810546875 733.500976562 33.994140625 733.500976562 89.19921875 c 4
 733.500976562 132.14453125 767.28515625 175.572265625 808.911132812 186.13671875 c 4
 945.5703125 222.889648438 1064.22363281 350.889648438 1064.22363281 521.061523438 c 4
 1064.22363281 729.8125 879.924804688 888.865234375 669.81640625 888.865234375 c 4
 459.434570312 888.865234375 275.11328125 730.580078125 275.11328125 520.409179688 c 4
 275.11328125 350.826171875 391.459960938 224.275390625 525.499023438 185.73046875 c 4
 566.189453125 174.641601562 599.21484375 131.413085938 599.21484375 89.23828125 c 4
 599.21484375 34.033203125 554.41015625 -10.771484375 499.205078125 -10.771484375 c 4
 491.03125 -10.771484375 478.047851562 -8.849609375 470.225585938 -6.48046875 c 4
 259.603515625 54.0869140625 75 252.963867188 75 518.91796875 c 4
EndSplineSet
EndChar

StartChar: l3
Encoding: 3378 3378 85
Width: 1656
GlyphClass: 2
Flags: HW
LayerCount: 2
Fore
SplineSet
1379.93261719 990.946289062 m 4
 1379.93261719 1045.56347656 1424.49707031 1090.95605469 1479.94140625 1090.95605469 c 4
 1535.14648438 1090.95605469 1579.95117188 1046.15136719 1579.95117188 990.946289062 c 4
 1579.95117188 990.612304688 1579.94824219 990.0703125 1579.94335938 989.736328125 c 6
 1581.75097656 106.23046875 l 5
 1581.75097656 106.037109375 l 6
 1581.75097656 50.9755859375 1537.06347656 6.171875 1482.00195312 6.02734375 c 6
 175.318359375 2.748046875 l 5
 175.078125 2.748046875 l 6
 119.890625 2.748046875 75.0859375 47.5380859375 75.068359375 102.7265625 c 6
 75.0009765625 420.986328125 l 6
 75 422.376953125 75 423.770507812 75 425.166015625 c 4
 75 608.880859375 100.0546875 753.717773438 183.94921875 872.599609375 c 4
 266.018554688 988.895507812 408.03515625 1085.04980469 594.796875 1085.04980469 c 4
 876.625976562 1085.04980469 1116.84277344 856.5234375 1116.84277344 561.72265625 c 4
 1116.84277344 523.2734375 1112.60644531 484.680664062 1103.97363281 446.701171875 c 4
 1094.22558594 403.837890625 1050.63769531 368.96875 1006.68066406 368.869140625 c 6
 275.012695312 367.263671875 l 5
 275.046875 203 l 5
 1381.546875 205.775390625 l 5
 1379.9453125 989.328125 l 6
 1379.93847656 989.774414062 1379.93261719 990.499023438 1379.93261719 990.946289062 c 4
916.155273438 568.671875 m 5
 910.953125 746.814453125 767.975585938 885.03125 595.28515625 885.03125 c 4
 403.856445312 884.994140625 300.306640625 741.6796875 280.754882812 567.27734375 c 5
 916.155273438 568.671875 l 5
EndSplineSet
EndChar

StartChar: lh
Encoding: 3379 3379 86
Width: 1286
GlyphClass: 2
Flags: HW
LayerCount: 2
Fore
SplineSet
190.03515625 315.342773438 m 4
 143.045898438 359.409179688 111.408203125 414.025390625 93.6357421875 472.143554688 c 5
 78.611328125 503.822265625 76.1669921875 548.533203125 76.1669921875 590.361328125 c 4
 76.1669921875 760.240234375 171.19140625 888.831054688 272.681640625 965.721679688 c 4
 395.778320312 1058.98144531 544.141601562 1093.56347656 689.936523438 1093.56347656 c 4
 784.921875 1093.56347656 887.40234375 1078.16308594 980.818359375 1025.63769531 c 4
 1081.63671875 968.952148438 1180.15527344 862.333984375 1180.15527344 708.815429688 c 4
 1180.15527344 639.77734375 1155.44433594 579.217773438 1122.54296875 536.995117188 c 5
 1172.31542969 489.37890625 1211.80273438 419.634765625 1211.80273438 330.194335938 c 4
 1211.80273438 209.123046875 1139.33496094 119.572265625 1061.87890625 72.0009765625 c 4
 985.801757812 25.279296875 900.337890625 12.46484375 792.354492188 12.46484375 c 4
 789.801757812 12.46484375 787.270507812 12.466796875 784.759765625 12.4677734375 c 6
 402.478515625 12.6396484375 l 5
 401.745117188 12.6396484375 l 6
 339.654296875 12.6396484375 275.142578125 9.623046875 275.142578125 -47.076171875 c 4
 275.142578125 -58.62109375 278.880859375 -66.8173828125 284.791015625 -74.3798828125 c 5
 284.791015625 -74.3798828125 l 5
 304.184570312 -99.193359375 339.791015625 -101.254882812 387.715820312 -101.254882812 c 4
 624.739257812 -101.173828125 861.7890625 -101 1098.79492188 -101 c 4
 1154.00097656 -101 1198.80566406 -145.8046875 1198.80566406 -201.009765625 c 4
 1198.80566406 -256.215820312 1154.00097656 -301.01953125 1098.79492188 -301.01953125 c 4
 1098.4140625 -301.01953125 1097.79589844 -301.015625 1097.41503906 -301.010742188 c 6
 388.53515625 -301.254882812 l 6
 386.779296875 -301.255859375 384.99609375 -301.256835938 383.188476562 -301.256835938 c 4
 316.91015625 -301.256835938 261.885742188 -293.203125 211.505859375 -267.100585938 c 5
 211.505859375 -267.100585938 l 5
 138.665039062 -229.361328125 75 -154.251953125 75 -46.3583984375 c 4
 75 95.470703125 181.068359375 183.318359375 298.66796875 205.420898438 c 4
 335.32421875 212.311523438 367.993164062 212.646484375 395.729492188 212.646484375 c 4
 398.043945312 212.646484375 400.323242188 212.64453125 402.568359375 212.643554688 c 6
 784.848632812 212.471679688 l 5
 786.40625 212.471679688 l 6
 887.622070312 212.471679688 966.587890625 223.228515625 1000.6640625 287.200195312 c 4
 1007.91113281 300.807617188 1011.72265625 316.755859375 1011.72265625 331.235351562 c 4
 1011.72265625 426.108634539 901.832314259 429.032839802 808.630859375 433.745117188 c 4
 756.880859375 436.9921875 714.881835938 481.708007812 714.881835938 533.559570312 c 4
 714.881835938 588.764648438 759.686523438 633.569335938 814.891601562 633.569335938 c 4
 815.833007812 633.569335938 817.361328125 633.54296875 818.302734375 633.510742188 c 6
 848.973632812 632.098632812 l 6
 859.504882812 631.615234375 872.294921875 631.009765625 882.997070312 631.009765625 c 4
 942.487304688 631.009765625 980.095703125 651.782226562 980.095703125 709.376953125 c 4
 980.095703125 777.077148438 930.470703125 824.501953125 882.797851562 851.305664062 c 4
 830.3046875 880.821289062 761.995117188 893.55859375 689.333007812 893.55859375 c 4
 589.733398438 893.55859375 494.287109375 871.017578125 418.958984375 823.772460938 c 5
 572.817382812 809.8671875 696.795898438 686.916015625 696.795898438 522.87890625 c 4
 696.795898438 520.978515625 696.778320312 519.076171875 696.7421875 517.172851562 c 6
 696.7421875 517.170898438 l 5
 693.721679688 358.048828125 568.93359375 228.516601562 404.477539062 228.516601562 c 4
 311.030273438 228.516601562 241.5234375 267.053710938 190.03515625 315.342773438 c 4
496.793945312 522.560546875 m 4
 496.793945312 578.966796875 452.032226562 624.411132812 394.23046875 624.411132812 c 4
 334.087890625 624.411132812 293.279296875 583.0390625 285.131835938 531.321289062 c 5
 301.412109375 479.248046875 339.58984375 428.60546875 404.809570312 428.60546875 c 4
 456.797851562 428.60546875 496.793945312 470.956054688 496.793945312 522.560546875 c 4
EndSplineSet
EndChar

StartChar: zh
Encoding: 3380 3380 87
Width: 1269
GlyphClass: 2
Flags: HW
LayerCount: 2
Fore
SplineSet
600 503 m 5
 540 565 475 650 475 762 c 4
 475 937 634 1091 825 1091 c 4
 1020 1091 1194 933 1194 732 c 4
 1194 556 1067 431 943 372 c 5
 953 343 959 312 959 280 c 4
 959 103 793 -12 605 -12 c 4
 478 -12 355 40 266 127 c 5
 249 143 236 169 236 194 c 4
 236 246 279 287 331 287 c 4
 354 287 383 276 399 260 c 5
 454 208 532 180 608 180 c 4
 701 180 767 223 767 287 c 4
 767 300 764 311 760 321 c 5
 726 317 695 314 663 314 c 4
 406 314 75 448 75 770 c 4
 75 879 122 988 210 1062 c 5
 226 1076 251 1087 273 1087 c 4
 325 1087 368 1046 368 994 c 4
 368 969 356 940 335 923 c 5
 292 886 268 828 268 770 c 4
 268 601 429 519 600 503 c 5
1003 730 m 4
 1003 828 922 898 825 898 c 4
 735 898 669 837 669 758 c 4
 669 662 764 607 840 531 c 5
 927 566 1003 630 1003 730 c 4
EndSplineSet
EndChar

StartChar: v1
Encoding: 3381 3381 88
Width: 1729
GlyphClass: 2
Flags: HW
LayerCount: 2
Fore
SplineSet
1454.16113281 989.340820312 m 4
 1454.16113281 1044.08203125 1498.77636719 1089.35058594 1554.16992188 1089.35058594 c 4
 1609.375 1089.35058594 1654.1796875 1044.54589844 1654.1796875 989.340820312 c 4
 1654.1796875 988.904296875 1654.17382812 988.196289062 1654.16699219 987.759765625 c 6
 1652.69628906 98.62890625 l 6
 1652.59960938 43.5205078125 1607.79589844 -1.2060546875 1552.68652344 -1.2060546875 c 4
 1552.60449219 -1.2060546875 1552.47167969 -1.205078125 1552.38964844 -1.205078125 c 6
 831.133789062 1 l 6
 776.127929688 1.1982421875 731.485351562 46.001953125 731.485351562 101.008789062 c 4
 731.485351562 139.475585938 760.772460938 181.5078125 796.858398438 194.830078125 c 4
 919.620117188 240.072265625 1026.02050781 362.971679688 1026.02050781 524.263671875 c 4
 1026.02050781 726.236328125 853.020507812 888.46875 649.9453125 888.46875 c 4
 447.666015625 888.46875 275.030273438 728.690429688 275.030273438 529.268554688 c 4
 275.030273438 347.719726562 414.9921875 205.465820312 577.166992188 184.8125 c 4
 626.19140625 179.288085938 665.978515625 134.765625 665.978515625 85.431640625 c 4
 665.978515625 30.2255859375 621.173828125 -14.5791015625 565.96875 -14.5791015625 c 4
 562.06640625 -14.5791015625 555.763671875 -14.1328125 551.899414062 -13.583984375 c 4
 415.5390625 3.7822265625 289.509765625 72.8544921875 201.508789062 178.45703125 c 5
 201.508789062 178.458984375 l 5
 119.818359375 276.48828125 75 401.076171875 75 528.236328125 c 4
 75 838.727539062 336.740234375 1088.4921875 648.99609375 1088.4921875 c 4
 963.015625 1088.4921875 1226.03125 837.9296875 1226.03125 523.703125 c 4
 1226.03125 407.595703125 1186.49316406 290.278320312 1120.95605469 200.115234375 c 5
 1452.86230469 199.099609375 l 5
 1454.16894531 988.091796875 l 6
 1454.16503906 988.436523438 1454.16113281 988.99609375 1454.16113281 989.340820312 c 4
EndSplineSet
EndChar

StartChar: z1
Encoding: 3382 3382 89
Width: 1920
GlyphClass: 2
Flags: HW
LayerCount: 2
Back
SplineSet
388.267578125 1433.9765625 m 4
 388.865234375 1433.98925781 389.834960938 1434 390.43359375 1434 c 4
 445.638671875 1434 490.443359375 1389.1953125 490.443359375 1333.99023438 c 4
 490.443359375 1299.85546875 465.659179688 1259.77246094 435.12109375 1244.51953125 c 4
 350.240234375 1200.61230469 279.7421875 1124.34960938 242.62890625 1036.28515625 c 4
 195.020507812 923.31640625 202.236328125 783.374023438 261.81640625 677.091796875 c 4
 288.919921875 628.743164062 326.051757812 587.1796875 368.92578125 559.22265625 c 4
 411.37109375 531.545898438 461.838867188 516.470703125 508.330078125 518.1484375 c 4
 549.610351562 519.637695312 592.1015625 534.553710938 625.587890625 559.298828125 c 4
 659.11328125 584.071289062 686.083984375 620.444335938 700.275390625 659.990234375 c 4
 717.510742188 708.015625 719.3828125 771.33984375 718.09765625 844.310546875 c 4
 716.8046875 917.766601562 712.778320312 1004.16210938 740.341796875 1095.640625 c 4
 769.30078125 1191.74902344 829.845703125 1274.57617188 909.6015625 1332.796875 c 4
 989.151367188 1390.86621094 1084.40722656 1422.22949219 1181.18945312 1425.63085938 c 4
 1330.91210938 1430.89257812 1473.29394531 1369.43652344 1578.03710938 1269.44921875 c 4
 1682.00878906 1170.19824219 1745.390625 1038.40917969 1769.7890625 902.033203125 c 4
 1793.0859375 771.813476562 1782.04882812 625.842773438 1703.58984375 502.728515625 c 4
 1664.20214844 440.921875 1609.03808594 387.819335938 1540.28320312 353.466796875 c 4
 1471.07226562 318.88671875 1391.10839844 305.118164062 1311.67773438 320.279296875 c 4
 1252.69921875 331.537109375 1198.96875 357.87890625 1154.01757812 394.494140625 c 4
 1109.20703125 430.99609375 1074.34375 476.626953125 1049.77929688 526.62890625 c 4
 1000.65039062 626.631835938 995.016601562 737.756835938 1016.72265625 838.857421875 c 4
 1040.69433594 950.506835938 1098.17773438 1053.05371094 1180.91210938 1131.76367188 c 4
 1213.68457031 1162.94140625 1250.03710938 1189.8984375 1288.9453125 1212.32226562 c 5
 1255.69921875 1222.15722656 1221.55371094 1226.92578125 1188.21484375 1225.75390625 c 4
 1130.58789062 1223.72851562 1072.765625 1204.28515625 1027.52148438 1171.2578125 c 4
 982.484375 1138.38183594 947.454101562 1089.76953125 931.837890625 1037.94140625 c 4
 916.624023438 987.44921875 916.75 922.626953125 918.06640625 847.830078125 c 4
 919.391601562 772.547851562 921.369140625 683.96875 888.51953125 592.43359375 c 4
 860.78515625 515.150390625 810.748046875 447.442382812 744.4453125 398.44921875 c 4
 678.104492188 349.427734375 598.3046875 321.263671875 515.541015625 318.27734375 c 4
 422.775390625 314.930664062 333.965820312 343.255859375 259.685546875 391.69140625 c 4
 185.834960938 439.846679688 128.39453125 506.08984375 87.357421875 579.29296875 c 4
 -4.1259765625 742.487304688 -14.037109375 942.241210938 58.328125 1113.95507812 c 4
 114.112304688 1246.32421875 215.645507812 1356.1640625 343.23046875 1422.16015625 c 4
 354.879882812 1428.39648438 375.056640625 1433.69042969 388.267578125 1433.9765625 c 4
1482.3359375 1077.08398438 m 5
 1421.56347656 1061.43261719 1363.98828125 1029.88671875 1318.765625 986.86328125 c 4
 1265.7890625 936.462890625 1227.6171875 868.365234375 1212.26757812 796.873046875 c 4
 1198.55371094 732.999023438 1204.015625 666.2578125 1229.28710938 614.81640625 c 4
 1241.92285156 589.096679688 1259.72949219 566.340820312 1280.33007812 549.560546875 c 4
 1300.79199219 532.893554688 1325.28320312 521.294921875 1349.17578125 516.734375 c 4
 1381.03710938 510.653320312 1418.74902344 516.319335938 1450.89257812 532.37890625 c 4
 1483.4921875 548.666992188 1513.42480469 576.471679688 1534.92773438 610.212890625 c 4
 1578.25195312 678.194335938 1589.5234375 773.971679688 1572.9140625 866.8125 c 4
 1559.17285156 943.619140625 1527.90234375 1017.23242188 1482.3359375 1077.08398438 c 5
EndSplineSet
Fore
SplineSet
982 558 m 0
 982 525 983 492 983 458 c 0
 983 395 979 325 953 253 c 0
 900 106 756 -22 564 -22 c 0
 370 -22 225 109 152 239 c 0
 101 330 75 433 75 536 c 0
 75 617 91 698 123 774 c 0
 179 906 280 1016 408 1082 c 0
 420 1089 440 1094 455 1094 c 0
 510 1094 555 1049 555 994 c 0
 555 960 531 920 500 905 c 0
 378 842 276 715 276 537 c 0
 276 467 293 397 326 337 c 0
 370 258 453 178 564 178 c 0
 663 178 738 244 765 320 c 0
 780 361 783 412 783 471 c 0
 783 505 782 536 782 571 c 0
 782 628 785 691 805 756 c 0
 860 938 1036 1086 1263 1086 c 0
 1406 1086 1542 1026 1643 930 c 0
 1747 831 1810 698 1834 562 c 0
 1841 523 1845 483 1845 443 c 0
 1845 347 1823 250 1768 163 c 0
 1708 68 1592 -26 1444 -26 c 0
 1422 -26 1399 -24 1376 -20 c 0
 1197 14 1069 183 1069 389 c 0
 1069 425 1073 462 1081 499 c 0
 1115 658 1220 796 1353 873 c 1
 1322 882 1292 886 1263 886 c 0
 1134 886 1028 803 996 698 c 0
 984 659 982 612 982 558 c 0
1269 389 m 0
 1269 278 1330 174 1443 174 c 0
 1513 174 1569 223 1599 270 c 0
 1632 321 1645 381 1645 442 c 0
 1645 553 1601 666 1547 737 c 1
 1413 702 1306 593 1277 457 c 0
 1272 434 1269 411 1269 389 c 0
EndSplineSet
EndChar

StartChar: sh
Encoding: 3383 3383 90
Width: 1938
GlyphClass: 2
Flags: HW
LayerCount: 2
Fore
SplineSet
736.677734375 749.99609375 m 4
 736.677734375 941.190429688 893.846679688 1088.8125 1087.25195312 1088.8125 c 4
 1290.49902344 1088.8125 1410.203125 952.90625 1410.203125 748.162109375 c 4
 1410.203125 741.98046875 1410.15234375 736.005859375 1410.10742188 730.24609375 c 6
 1409.39257812 638.837890625 l 5
 1536.88964844 712.46484375 1637.52050781 848.4609375 1664.89648438 1003.3984375 c 4
 1672.99609375 1048.93652344 1717.10839844 1085.89550781 1763.36132812 1085.89550781 c 4
 1818.50292969 1085.89550781 1863.30761719 1041.14257812 1863.37109375 986 c 6
 1863.37109375 98 l 6
 1863.36523438 42.8056640625 1818.56542969 -1.994140625 1763.37109375 -2 c 6
 539.37109375 -2 l 6
 484.192382812 -1.97265625 439.41015625 42.8310546875 439.41015625 98.009765625 c 4
 439.41015625 134.2265625 466.372070312 175.325195312 499.59375 189.748046875 c 4
 552.108398438 212.515625 596.120117188 265.046875 596.120117188 338.358398438 c 4
 596.120117188 428.310546875 524.069335938 497.830078125 435.16015625 497.830078125 c 4
 347.216796875 497.830078125 275.188476562 427.474609375 275.188476562 338.413085938 c 4
 275.188476562 265.279296875 319.45703125 212.330078125 371.99609375 189.6484375 c 4
 406.041015625 175.51953125 433.672851562 134.137695312 433.672851562 97.2763671875 c 4
 433.672851562 42.0712890625 388.868164062 -2.7333984375 333.662109375 -2.7333984375 c 4
 321.845703125 -2.7333984375 303.505859375 1.1923828125 292.724609375 6.029296875 c 4
 175.74609375 56.5302734375 75 175.012695312 75 337.125976562 c 4
 75 540.122070312 235.27734375 697.83984375 435.702148438 697.83984375 c 4
 615.455078125 697.83984375 753.930664062 566.750976562 787.666015625 415.85546875 c 4
 793.47265625 389.8828125 796.34375 363.5390625 796.34375 337.286132812 c 4
 796.34375 289.637695312 786.885742188 242.2890625 768.353515625 198 c 5
 1205.93945312 198 l 5
 1207.29882812 371.705078125 l 5
 1195.0859375 370.930664062 1182.8125 370.529296875 1170.5078125 370.529296875 c 4
 999.350585938 370.529296875 856.529296875 453.796875 786.44921875 571.974609375 c 4
 754.915039062 625.149414062 736.677734375 686.439453125 736.677734375 749.99609375 c 4
1210.15625 741.619140625 m 4
 1210.15625 836.00390625 1180.6796875 888.668945312 1089.04589844 888.668945312 c 4
 1006.91015625 888.668945312 936.78125 829.791992188 936.78125 751.30859375 c 4
 936.78125 679.463867188 985.149414062 628.93359375 1036.50390625 601.541015625 c 4
 1075.328125 580.83203125 1122.52148438 571.091796875 1172.27636719 571.091796875 c 4
 1184.3515625 571.091796875 1196.57714844 571.665039062 1208.87109375 572.794921875 c 5
 1210.11523438 731.810546875 l 6
 1210.14160156 735.155273438 1210.15625 738.42578125 1210.15625 741.619140625 c 4
1663.37109375 584.55859375 m 5
 1591.68652344 511.842773438 1503.53320312 453.926757812 1407.65625 416.865234375 c 5
 1405.94335938 198 l 5
 1663.37109375 198 l 5
 1663.37109375 584.55859375 l 5
EndSplineSet
EndChar

StartChar: s1
Encoding: 3384 3384 91
Width: 2438
GlyphClass: 2
Flags: HW
LayerCount: 2
Fore
SplineSet
985.484375 931.890625 m 5
 1038.59277344 1016.55566406 1129.62988281 1093.84765625 1257.578125 1093.96289062 c 6
 1257.84082031 1093.96289062 l 6
 1411.4765625 1093.96289062 1519.29296875 980.015625 1566.22265625 871.853515625 c 4
 1604.78710938 782.971679688 1612.02832031 693.229492188 1612.02832031 610.879882812 c 4
 1612.02832031 582.315429688 1611.15722656 554.640625 1610.41992188 528.19921875 c 6
 1609.74804688 504.083984375 l 6
 1609.28808594 487.60546875 1608.96679688 471.701171875 1608.96679688 456.4140625 c 4
 1608.96679688 322.171875 1650.42480469 235.091796875 1744.42578125 194.998046875 c 4
 1773.84179688 182.451171875 1807.65527344 176.013671875 1842.21777344 176.013671875 c 4
 2023.34667969 176.013671875 2163.79980469 338.26171875 2163.79980469 523.830078125 c 4
 2163.79980469 711.407226562 2031.75195312 853.359375 1879.77148438 895.37890625 c 4
 1838.51855469 906.154296875 1805.03808594 949.504882812 1805.03808594 992.141601562 c 4
 1805.03808594 1047.34765625 1849.84179688 1092.15234375 1905.04785156 1092.15234375 c 4
 1912.93945312 1092.15234375 1925.49316406 1090.35742188 1933.06835938 1088.14648438 c 4
 2164.5546875 1024.14648438 2363.83398438 808.73046875 2363.83398438 522.737304688 c 4
 2363.83398438 227.908203125 2134.23632812 -24 1841.79199219 -24 c 4
 1609.15917969 -24 1455.64550781 131.311523438 1418.95117188 328.498046875 c 4
 1410.82714844 372.157226562 1408.80078125 413.788085938 1408.80078125 452.756835938 c 4
 1408.80078125 472.4296875 1409.31738281 491.423828125 1409.82617188 509.658203125 c 6
 1410.49804688 533.7734375 l 6
 1411.09277344 555.116210938 1411.50195312 575.965820312 1411.50195312 596.211914062 c 4
 1411.50195312 717.950195312 1392.50195312 820.225585938 1323.15429688 870.76171875 c 4
 1302.59765625 885.7421875 1277.32617188 893.868164062 1256.2421875 893.868164062 c 4
 1190.28710938 893.868164062 1148.26464844 827.084960938 1129.23242188 770.654296875 c 4
 1106.33398438 702.758789062 1104.31640625 619.166992188 1104.13085938 526.78125 c 4
 1104.13769531 521.615234375 1104.21484375 516.215820312 1104.21484375 511.138671875 c 6
 1103.90820312 77.279296875 l 6
 1103.11425781 22.8798828125 1058.31445312 -21.2705078125 1003.90917969 -21.2705078125 c 4
 949.452148438 -21.2705078125 904.65234375 22.921875 903.908203125 77.4453125 c 6
 904.009765625 510.72265625 l 6
 904.01171875 516.690429688 904.055664062 523.104492188 904.055664062 529.252929688 c 4
 904.055664062 712.0390625 855.716796875 834.129882812 719.41015625 879.3671875 c 4
 690.98046875 888.801757812 659.942382812 893.469726562 628.258789062 893.469726562 c 4
 431.534179688 893.469726562 275.010742188 731.22265625 275.010742188 535.279296875 c 4
 275.010742188 341.870117188 435.205078125 178.10546875 636.887695312 178.10546875 c 4
 662.162109375 178.10546875 686.420898438 184.385742188 711.15234375 184.385742188 c 4
 766.357421875 184.385742188 811.162109375 139.581054688 811.162109375 84.3759765625 c 4
 811.162109375 37.0341796875 773.189453125 -7.2470703125 726.400390625 -14.46484375 c 4
 695.826171875 -19.6298828125 665.021484375 -22.16796875 634.321289062 -22.16796875 c 4
 322.182617188 -22.16796875 75 235.549804688 75 535.912109375 c 4
 75 842.799804688 320.2734375 1093.53808594 628.736328125 1093.53808594 c 4
 789.026367188 1093.53808594 906.044921875 1026.25976562 985.484375 931.890625 c 5
EndSplineSet
EndChar

StartChar: h1
Encoding: 3385 3385 92
Width: 2258
GlyphClass: 2
Flags: HW
LayerCount: 2
Fore
SplineSet
464.884765625 556.3046875 m 4
 360.069335938 556.3046875 275.53515625 469.575195312 275.53515625 365.828125 c 4
 275.53515625 279.379882812 334.76171875 213.19921875 400.212890625 189.525390625 c 4
 437.360351562 176.666992188 467.509765625 134.327148438 467.509765625 95.0166015625 c 4
 467.509765625 39.810546875 422.705078125 -4.9931640625 367.5 -4.9931640625 c 4
 357.428710938 -4.9931640625 341.607421875 -2.107421875 332.185546875 1.44921875 c 4
 200.4609375 49.0927734375 75 187.93359375 75 364.349609375 c 4
 75 402.041015625 80.7275390625 441.448242188 93.34375 482.046875 c 4
 137.38671875 623.7734375 280.008789062 755.80078125 462.10546875 755.80078125 c 4
 596.458007812 755.80078125 693.96484375 697.567382812 762.09375 616.25390625 c 4
 818.661132812 548.740234375 852.717773438 459.458984375 852.717773438 365.874023438 c 4
 852.717773438 311.584960938 841.256835938 255.84765625 816.08203125 202.0703125 c 5
 1200.76757812 201 l 5
 1126.64941406 295.2265625 1083.98925781 417.625 1083.98925781 541.19140625 c 4
 1083.98925781 841.426757812 1326.06835938 1085.68945312 1628.99023438 1085.68945312 c 4
 1936.74121094 1085.68945312 2183.25195312 832.513671875 2183.25195312 524.9453125 c 4
 2183.25195312 278.411132812 2024.57128906 82.7158203125 1839.53710938 3.640625 c 4
 1828.82617188 -1.1220703125 1810.62109375 -4.98828125 1798.89941406 -4.98828125 c 4
 1743.69433594 -4.98828125 1698.88964844 39.81640625 1698.88964844 95.0224609375 c 4
 1698.88964844 132.044921875 1726.68847656 173.497070312 1760.94140625 187.548828125 c 4
 1880.53125 238.657226562 1984.38964844 362.42578125 1984.38964844 525.057617188 c 4
 1984.38964844 613.323242188 1950.203125 703.890625 1891.58398438 768.900390625 c 4
 1824.53417969 843.2578125 1727.06640625 884.216796875 1628.4296875 884.216796875 c 4
 1550.70898438 884.216796875 1472.26269531 858.787109375 1407.40039062 804.228515625 c 4
 1330.78222656 739.78125 1284.83886719 639.315429688 1284.83886719 535.731445312 c 4
 1284.83886719 362.974609375 1416.69628906 226.833007812 1564.95703125 198.2265625 c 4
 1609.64257812 189.552734375 1645.91015625 145.569335938 1645.91015625 100.048828125 c 4
 1645.91015625 44.8427734375 1601.10546875 0.0380859375 1545.90039062 0.0380859375 c 4
 1545.85351562 0.0380859375 1545.77832031 0.0390625 1545.73242188 0.0390625 c 6
 580.244140625 2.7265625 l 6
 525.21875 2.90625 480.561523438 47.7109375 480.561523438 102.735351562 c 4
 480.561523438 138.736328125 507.297851562 179.736328125 540.2421875 194.25390625 c 4
 600.111328125 220.6015625 652.81640625 284.552734375 652.81640625 366.368164062 c 4
 652.81640625 470.991210938 565.717773438 556.3046875 464.884765625 556.3046875 c 4
EndSplineSet
EndChar

StartChar: avagraha
Encoding: 3389 3389 93
Width: 1438
GlyphClass: 2
Flags: HW
LayerCount: 2
Fore
SplineSet
223 -80 m 0
 223 -115 215 -136 215 -157 c 0
 215 -239 283 -300 363 -300 c 0
 510 -300 541 -165 566 4 c 0
 639 486 l 1
 443 486 l 0
 397 486 362 541 362 581 c 0
 362 621 396 678 443 678 c 0
 668 678 l 1
 711 963 l 1
 748 1203 842 1460 1115 1460 c 0
 1312 1460 1463 1314 1463 1117 c 0
 1463 1050 1445 983 1360 983 c 0
 1320 983 1271 1024 1271 1066 c 0
 1271 1084 1275 1107 1275 1123 c 0
 1275 1200 1197 1269 1125 1269 c 0
 969 1269 926 1120 899 934 c 1
 861 678 l 1
 1051 678 l 0
 1098 678 1132 621 1132 581 c 0
 1132 541 1099 486 1051 486 c 0
 832 486 l 1
 755 -25 l 0
 718 -269 630 -494 360 -494 c 0
 174 -494 25 -339 25 -155 c 0
 25 -93 39 5 132 5 c 0
 174 5 223 -34 223 -80 c 0
EndSplineSet
EndChar

StartChar: a2
Encoding: 3390 3390 94
Width: 1011
GlyphClass: 2
Flags: HW
LayerCount: 2
Fore
SplineSet
737 549 m 0
 737 718 648 896 475 896 c 0
 374 896 292 814 284 720 c 0
 280 669 235 628 184 628 c 0
 129 628 84 673 84 728 c 0
 84 731 85 735 85 738 c 0
 102 932 268 1096 476 1096 c 0
 768 1096 937 825 937 550 c 0
 937 267 770 -21 464 -21 c 0
 252 -21 87 145 75 345 c 0
 75 347 75 350 75 352 c 0
 75 407 120 452 175 452 c 0
 228 452 273 410 275 357 c 0
 281 261 362 179 464 179 c 0
 648 179 737 370 737 549 c 0
EndSplineSet
EndChar

StartChar: i1
Encoding: 3391 3391 95
Width: 340
GlyphClass: 2
Flags: HW
LayerCount: 2
Fore
SplineSet
-559.345703125 1197.80859375 m 4
 -506.203125 1342.94335938 -362.1640625 1471.68066406 -171.203125 1471.68066406 c 4
 71.2861328125 1471.68066406 220.337890625 1297.33203125 253.59765625 1087.23242188 c 4
 262.731445312 1029.52832031 262.893554688 975.521484375 263 926.43359375 c 6
 264.833984375 77.41796875 l 6
 264.841796875 76.953125 264.84765625 76.1982421875 264.84765625 75.7333984375 c 4
 264.84765625 20.5283203125 220.04296875 -24.2763671875 164.837890625 -24.2763671875 c 4
 109.631835938 -24.2763671875 64.828125 20.5283203125 64.828125 75.7333984375 c 4
 64.828125 76.078125 64.8310546875 76.638671875 64.8359375 76.984375 c 6
 63 926 l 6
 62.6806640625 1072.95703125 40.5673828125 1173.89355469 -45.7578125 1233.49609375 c 4
 -80.509765625 1257.48828125 -124.040039062 1270.73925781 -168.55859375 1270.73925781 c 4
 -268.48828125 1270.73925781 -343.803710938 1204.7890625 -371.5390625 1129.04101562 c 4
 -384.489257812 1092.09765625 -426.771484375 1062.11425781 -465.918945312 1062.11425781 c 4
 -521.124023438 1062.11425781 -565.928710938 1106.91894531 -565.928710938 1162.125 c 4
 -565.928710938 1172.30859375 -562.979492188 1188.29492188 -559.345703125 1197.80859375 c 4
EndSplineSet
EndChar

StartChar: i2
Encoding: 3392 3392 96
Width: 398
GlyphClass: 2
Flags: HW
LayerCount: 2
Fore
SplineSet
-172 1267 m 0
 -216 1267 -252 1245 -252 1204 c 0
 -252 1180 -215 1149 -180 1149 c 0
 -142 1149 -113 1173 -113 1205 c 0
 -113 1245 -135 1267 -172 1267 c 0
32 1209 m 0
 32 1085 -84 995 -193 995 c 0
 -306 995 -404 1093 -404 1203 c 0
 -404 1367 -254 1446 -101 1446 c 0
 177 1446 323 1286 323 1009 c 1
 320 72 l 1
 320 12 270 -19 225 -19 c 0
 180 -19 130 12 130 73 c 1
 133 1008 l 1
 133 1140 109 1203 31 1237 c 1
 32 1226 32 1218 32 1209 c 0
EndSplineSet
EndChar

StartChar: u1
Encoding: 3393 3393 97
Width: 794
GlyphClass: 2
Flags: HW
LayerCount: 2
Fore
SplineSet
266 -253 m 0
 266 -326 324 -387 396 -387 c 0
 473 -387 530 -334 530 -255 c 0
 530 -181 460 -116 392 -116 c 0
 318 -116 266 -180 266 -253 c 0
399 -579 m 0
 212 -579 76 -429 76 -258 c 0
 76 -131 154 -27 244 24 c 1
 317 160 440 400 440 575 c 0
 440 731 359 839 246 861 c 1
 203 869 169 908 169 957 c 0
 169 999 207 1051 253 1051 c 0
 482 1051 629 806 629 587 c 0
 629 442 574 264 473 55 c 1
 613 21 720 -99 720 -259 c 0
 720 -441 577 -579 399 -579 c 0
EndSplineSet
EndChar

StartChar: u2
Encoding: 3394 3394 98
Width: 973
GlyphClass: 2
Flags: HW
LayerCount: 2
Fore
SplineSet
572 -301 m 0
 572 -214 500 -149 418 -149 c 0
 339 -149 264 -228 264 -306 c 0
 264 -383 342 -447 419 -447 c 0
 500 -447 572 -382 572 -301 c 0
414 -636 m 0
 219 -636 77 -479 77 -297 c 0
 77 -175 144 -67 239 -9 c 1
 307 141 439 388 439 530 c 0
 439 687 376 812 262 833 c 1
 207 845 168 877 168 930 c 0
 168 975 205 1025 253 1025 c 0
 498 1025 629 772 629 534 c 0
 629 404 554 223 487 78 c 1
 496 79 504 79 512 79 c 0
 784 79 999 -152 999 -423 c 0
 999 -711 771 -947 464 -947 c 0
 352 -947 250 -914 159 -849 c 1
 132 -830 120 -802 120 -774 c 0
 120 -728 154 -679 210 -679 c 0
 235 -679 262 -691 290 -710 c 0
 323 -733 401 -756 474 -756 c 0
 665 -756 809 -613 809 -420 c 0
 809 -355 788 -296 759 -251 c 1
 761 -267 762 -281 762 -297 c 0
 762 -491 604 -636 414 -636 c 0
EndSplineSet
EndChar

StartChar: r1
Encoding: 3395 3395 99
Width: 393
GlyphClass: 2
Flags: HW
LayerCount: 2
Fore
SplineSet
-525 -312 m 0
 -525 -375 -448 -408 -367 -408 c 0
 -276 -408 -175 -365 -108 -319 c 1
 -205 -266 -296 -242 -395 -242 c 0
 -467 -242 -525 -268 -525 -312 c 0
19 -187 m 1
 102 -66 139 79 139 274 c 0
 139 475 90 674 -9 869 c 1
 -17 884 -21 900 -21 914 c 0
 -21 970 33 999 77 999 c 0
 110 999 136 979 151 949 c 1
 263 730 319 506 319 277 c 0
 319 -167 98 -587 -365 -587 c 0
 -536 -587 -707 -495 -707 -315 c 0
 -707 -146 -549 -62 -394 -62 c 0
 -229 -62 -93 -117 19 -187 c 1
EndSplineSet
EndChar

StartChar: e1
Encoding: 3398 3398 100
Width: 1407
GlyphClass: 2
Flags: HW
LayerCount: 2
Fore
SplineSet
883.825195312 370.276367188 m 0
 883.825195312 157.983398438 708.5 -12.2197265625 500.935546875 -12.2197265625 c 0
 347.296875 -12.2197265625 224.291992188 79.8984375 158.357421875 178.485351562 c 0
 100.411132812 265.126953125 75 365.4609375 75 464.5703125 c 0
 75 499.059570312 78.0771484375 533.400390625 83.931640625 566.963867188 c 0
 107.752929688 703.540039062 176.899414062 829.639648438 279.25390625 923.153320312 c 0
 392.702148438 1026.80273438 547.861328125 1086.13574219 706.974609375 1086.13574219 c 0
 813.215820312 1086.13574219 921.21875 1059.68359375 1019.74609375 1002.30761719 c 0
 1185.58203125 905.733398438 1332.50390625 709.435546875 1332.50390625 462.237304688 c 0
 1332.50390625 425.525390625 1329.26367188 387.690429688 1322.36328125 348.893554688 c 0
 1299.87988281 222.483398438 1238.58789062 105.0078125 1147.76757812 14.2529296875 c 0
 1131.51269531 -2.447265625 1099.40625 -16 1076.1015625 -16 c 0
 1020.89648438 -16 976.091796875 28.8046875 976.091796875 84.009765625 c 0
 976.091796875 107.337890625 989.66796875 139.465820312 1006.39648438 155.725585938 c 0
 1080.95214844 230.227539062 1132.08984375 341.029296875 1132.08984375 460.766601562 c 0
 1132.08984375 519.166015625 1119.92480469 579.689453125 1092.38085938 639.165039062 c 0
 1031.0390625 771.611328125 887.807617188 887.772460938 704.415039062 887.772460938 c 0
 571.314453125 887.772460938 430.1015625 848 356.1015625 718 c 1
 418.1015625 756 458.32421875 759.524414062 494.754882812 759.524414062 c 0
 706.586914062 759.524414062 883.825195312 585.331054688 883.825195312 370.276367188 c 0
683.818359375 370.497070312 m 0
 683.818359375 474.278320312 596.123046875 557.956054688 494.056640625 557.956054688 c 0
 389.236328125 557.956054688 299.017578125 474.559570312 299.017578125 361.899414062 c 0
 299.017578125 352.2734375 299.731445312 342.735351562 301.1953125 333.430664062 c 1
 332.596679688 259.514648438 402.208007812 187.18359375 501.174804688 187.18359375 c 0
 601.625976562 187.18359375 683.818359375 269.814453125 683.818359375 370.497070312 c 0
EndSplineSet
EndChar

StartChar: e2
Encoding: 3399 3399 101
Width: 1038
GlyphClass: 2
Flags: HW
LayerCount: 2
Fore
SplineSet
75 550 m 4
 75 837 301 1078 590 1078 c 6
 591 1078 l 6
 690 1078 776 1055 851 988 c 4
 902 943 947 874 947 782 c 4
 947 640 839 534 698 534 c 4
 552 534 444 646 444 790 c 4
 444 808 445 826 449 843 c 5
 350 792 275 683 275 552 c 4
 275 417 354 303 446 244 c 5
 445 253 444 262 444 271 c 4
 444 383 508 462 585 502 c 4
 623 522 664 532 705 532 c 4
 855 532 963 414 963 275 c 4
 963 149 875 57 787 16 c 4
 736 -7 683 -17 632 -17 c 4
 583 -17 535 -8 491 5 c 4
 273 70 75 274 75 550 c 4
693 710 m 4
 733 710 766 742 766 782 c 6
 766 782 l 6
 766 822 733 853 693 853 c 6
 693 853 l 6
 653 853 620 822 620 782 c 6
 620 782 l 6
 620 742 653 710 693 710 c 4
708 343 m 4
 668 343 634 311 634 271 c 4
 634 231 668 199 708 199 c 4
 748 199 781 231 781 271 c 4
 781 311 748 343 708 343 c 4
EndSplineSet
EndChar

StartChar: xx
Encoding: 3405 3405 106
Width: 142
GlyphClass: 4
Flags: HW
LayerCount: 2
Fore
SplineSet
166 1295 m 0
 166 1314 159 1331 159 1365 c 0
 159 1412 209 1450 252 1450 c 0
 336 1450 357 1368 357 1304 c 0
 357 1101 207 947 7 947 c 0
 -195 947 -336 1116 -336 1295 c 0
 -336 1358 -323 1454 -230 1454 c 0
 -187 1454 -138 1413 -138 1368 c 0
 -138 1336 -145 1316 -145 1294 c 0
 -145 1206 -73 1140 7 1140 c 0
 97 1140 166 1214 166 1295 c 0
EndSplineSet
EndChar

StartChar: dotreph
Encoding: 3406 3406 107
Width: 0
GlyphClass: 4
Flags: HW
LayerCount: 2
Fore
SplineSet
147 1094 m 0
 53 1094 -25 1169 -25 1262 c 0
 -25 1355 53 1427 147 1427 c 0
 240 1427 323 1356 323 1262 c 0
 323 1168 240 1094 147 1094 c 0
EndSplineSet
EndChar

StartChar: au2
Encoding: 3415 3415 108
Width: 1556
GlyphClass: 2
Flags: HW
LayerCount: 2
Fore
SplineSet
839 617 m 5
 839 612 l 5
 830 566 786 539 744 539 c 4
 689 539 650 586 650 634 c 6
 650 678 l 5
 648 790 572 884 456 884 c 4
 347 884 265 792 265 684 c 4
 265 655 273 627 289 598 c 4
 297 584 301 568 301 553 c 4
 301 506 262 460 208 460 c 4
 167 460 136 483 122 511 c 5
 89 569 75 627 75 687 c 4
 75 895 236 1075 456 1075 c 4
 583 1075 695 1013 752 925 c 5
 815 1013 929 1073 1060 1073 c 4
 1302 1073 1481 842 1481 608 c 4
 1481 230 1121 0 744 0 c 4
 628 0 509 25 405 71 c 4
 374 84 347 117 347 157 c 4
 347 209 389 252 442 252 c 4
 456 252 469 249 482 243 c 4
 561 209 654 191 746 191 c 4
 1029 191 1291 353 1291 610 c 4
 1291 753 1191 880 1054 880 c 4
 911 880 842 776 839 617 c 5
EndSplineSet
EndChar

StartChar: datemark
Encoding: 3449 3449 109
Width: 2321
GlyphClass: 2
Flags: HW
LayerCount: 2
Fore
SplineSet
1793 497 m 1
 1700 499 1637 497 1601 491 c 1
 1475 474 1419 428 1407 358 c 1
 1399 305 1415 262 1463 225 c 1
 1510 186 1566 178 1632 202 c 1
 1733 235 1810 353 1793 497 c 1
984 -6 m 0
 935 -6 897 42 897 88 c 1
 899 450 l 0
 900 587 892 650 840 725 c 0
 769 829 625 876 477 817 c 1
 385 780 317 710 284 615 c 1
 229 455 310 309 410 242 c 1
 478 198 583 169 687 196 c 1
 698 200 705 201 714 201 c 0
 765 201 809 158 809 112 c 0
 809 63 784 24 737 12 c 1
 469 -59 248 83 148 247 c 0
 76 366 50 520 103 676 c 1
 153 824 262 931 400 991 c 0
 471 1022 546 1035 625 1031 c 0
 790 1022 916 954 999 828 c 1
 1067 927 1170 988 1307 1019 c 0
 1501 1062 1676 985 1785 895 c 1
 1852 839 1903 768 1939 686 c 1
 2153 682 l 1
 2201 682 2248 642 2248 592 c 0
 2248 534 2207 492 2152 492 c 0
 2150 492 l 1
 1985 495 l 1
 2002 256 1862 81 1693 24 c 1
 1482 -50 1299 70 1239 220 c 1
 1192 337 1221 460 1288 537 c 1
 1384 649 1527 686 1719 688 c 1
 1666 760 1597 805 1505 827 c 1
 1446 842 1392 843 1345 832 c 1
 1202 800 1123 719 1099 582 c 1
 1093 552 1091 508 1090 446 c 1
 1087 88 l 1
 1087 87 l 1
 1086 31 1043 -6 984 -6 c 0
EndSplineSet
EndChar

StartChar: ZWNJ
Encoding: 8204 8204 110
Width: 321
GlyphClass: 2
Flags: HW
LayerCount: 2
Fore
SplineSet
41 1002 m 1
 250 1002 l 1
 250 -7 l 1
 41 -7 l 1
 41 1002 l 1
EndSplineSet
EndChar

StartChar: ZWJ
Encoding: 8205 8205 111
Width: 320
GlyphClass: 2
Flags: HW
LayerCount: 2
Fore
SplineSet
45 812 m 1
 27 785 l 1
 -137 785 l 1
 65 1082 l 1
 -124 1355 l 1
 46 1355 l 1
 131 1222 l 1
 134 1217 141 1207 147 1197 c 1
 257 1355 l 1
 426 1355 l 1
 229 1086 l 1
 434 785 l 1
 269 785 l 1
 249 817 l 1
 249 -6 l 1
 45 -6 l 1
 45 812 l 1
113 919 m 1
 182 919 l 1
 148 972 l 1
 113 919 l 1
EndSplineSet
EndChar

StartChar: rupee
Encoding: 8377 8377 112
Width: 1165
GlyphClass: 2
Flags: HW
LayerCount: 2
Fore
SplineSet
802 799 m 1
 751 639 631 518 493 446 c 1
 993 153 l 1
 1021 137 1040 103 1040 72 c 0
 1040 20 997 -21 945 -21 c 0
 929 -21 909 -16 895 -7 c 1
 218 389 l 0
 191 405 173 437 173 468 c 0
 173 513 208 554 254 561 c 1
 399 582 534 675 599 799 c 1
 179 801 l 1
 124 801 83 844 83 896 c 0
 83 948 126 991 178 991 c 0
 179 991 l 1
 632 989 l 1
 615 1084 543 1153 454 1163 c 1
 446 1164 446 1164 444 1165 c 1
 171 1166 l 1
 116 1166 75 1209 75 1261 c 0
 75 1313 118 1356 170 1356 c 0
 171 1356 l 1
 986 1353 l 1
 1041 1353 1083 1310 1083 1258 c 0
 1083 1206 1040 1163 988 1163 c 0
 987 1163 l 1
 766 1164 l 1
 801 1108 818 1049 824 989 c 1
 994 988 l 1
 1049 988 1091 945 1091 893 c 0
 1091 841 1048 798 996 798 c 0
 995 798 l 1
 802 799 l 1
EndSplineSet
EndChar

StartChar: uni25CC
Encoding: 9676 9676 113
Width: 1130
GlyphClass: 2
Flags: HW
LayerCount: 2
Fore
SplineSet
233 343 m 1
 301 245 268 281 361 226 c 1
 385 212 l 1
 276 74 l 1
 257 84 l 1
 148 151 139 168 84 246 c 1
 69 266 l 1
 220 365 l 1
 233 343 l 1
693 9 m 2
 660 -1 619 -6 571 -6 c 0
 523 -6 482 -1 445 9 c 1
 422 14 l 1
 450 183 l 1
 475 178 l 1
 517 171 549 168 568 168 c 0
 587 168 619 171 661 177 c 1
 686 182 l 1
 714 14 l 1
 693 9 l 2
205 406 m 1
 22 378 l 1
 17 401 l 1
 9 438 5 476 5 513 c 0
 5 550 9 587 17 625 c 1
 22 649 l 1
 205 621 l 1
 193 593 l 1
 187 576 183 548 183 513 c 0
 183 478 187 450 193 434 c 1
 205 406 l 1
360 800 m 2
 266 751 278 749 233 684 c 1
 220 662 l 1
 69 760 l 1
 84 780 l 1
 155 881 153 877 257 941 c 1
 275 954 l 1
 386 813 l 1
 360 800 l 2
1057 245 m 2
 977 138 998 152 881 84 c 0
 880 84 l 1
 860 74 l 1
 758 212 l 1
 780 226 l 1
 780 226 l 0
 851 267 886 297 906 340 c 1
 919 366 l 1
 1074 266 l 1
 1057 245 l 2
1122 627 m 2
 1131 589 1136 551 1136 513 c 0
 1136 475 1131 438 1122 400 c 1
 1117 378 l 1
 944 406 l 1
 946 429 l 1
 946 429 l 0
 952 467 955 494 955 510 c 0
 955 526 952 556 946 598 c 1
 944 621 l 1
 1117 649 l 1
 1122 627 l 2
714 1012 m 1
 686 844 l 1
 661 849 l 1
 619 856 589 858 568 858 c 0
 547 858 517 856 475 849 c 1
 450 844 l 1
 422 1012 l 1
 445 1017 l 1
 493 1029 535 1034 570 1034 c 0
 605 1034 645 1029 691 1017 c 1
 714 1012 l 1
908 684 m 2
 867 748 825 786 785 799 c 0
 754 809 l 1
 861 954 l 1
 881 941 l 1
 969 885 1014 850 1059 779 c 1
 1071 759 l 1
 921 662 l 1
 908 684 l 2
EndSplineSet
EndChar

StartChar: r4
Encoding: 65539 -1 114
Width: 614
GlyphClass: 2
LigCaretCntFixed: 1
Flags: HW
LayerCount: 2
Fore
SplineSet
453 -141 m 0
 477 -142 500 -153 515 -170 c 1
 546 -202 554 -258 512 -298 c 1
 495 -314 472 -324 447 -323 c 1
 283 -317 168 -250 112 -121 c 1
 68 -18 64 136 93 345 c 1
 102 427 118 549 143 705 c 1
 165 861 177 949 180 970 c 0
 180 971 l 1
 180 971 l 0
 191 1018 238 1060 304 1050 c 0
 305 1050 l 1
 306 1050 l 0
 345 1040 368 989 358 937 c 1
 312 630 283 425 272 321 c 1
 247 140 250 16 277 -46 c 1
 302 -105 355 -138 453 -141 c 0
EndSplineSet
LCarets2: 1 0
EndChar

StartChar: y2
Encoding: 65540 -1 115
Width: 598
GlyphClass: 2
LigCaretCntFixed: 1
Flags: HW
LayerCount: 2
Fore
SplineSet
232 -421 m 0
 346 -421 433 -331 433 -219 c 0
 433 91 64 332 64 711 c 0
 64 792 76 877 101 958 c 1
 112 1000 153 1025 194 1025 c 0
 238 1025 287 989 287 941 c 0
 287 927 287 915 284 905 c 1
 265 834 255 768 255 702 c 0
 255 333 625 142 625 -219 c 0
 625 -430 458 -613 235 -613 c 0
 33 -613 -135 -461 -135 -258 c 0
 -135 -115 -61 -14 37 46 c 1
 53 56 71 61 88 61 c 0
 141 61 183 17 183 -38 c 0
 183 -69 166 -96 138 -112 c 1
 92 -139 55 -195 55 -255 c 0
 55 -347 133 -421 232 -421 c 0
EndSplineSet
LCarets2: 1 3
EndChar

StartChar: v2
Encoding: 65543 -1 118
Width: 437
GlyphClass: 3
LigCaretCntFixed: 1
Flags: HW
LayerCount: 2
Fore
SplineSet
-328 -246 m 0
 -328 -204 -299 -145 -247 -145 c 0
 173 -145 l 1
 169 931 l 1
 169 946 l 0
 169 992 224 1025 264 1025 c 0
 316 1025 359 983 359 932 c 0
 359 931 l 1
 363 -240 l 1
 363 -289 326 -335 268 -335 c 0
 -242 -335 l 0
 -292 -335 -328 -285 -328 -246 c 0
EndSplineSet
LCarets2: 1 0
EndChar

StartChar: k1cil
Encoding: 3455 3455 119
Width: 1964
GlyphClass: 3
Flags: HW
LayerCount: 2
Fore
SplineSet
265 311 m 0
 265 238 330 175 401 175 c 0
 495 175 561 236 561 319 c 0
 561 329 l 1
 546 384 538 440 537 499 c 1
 375 487 265 423 265 311 c 0
1570 166 m 0
 1631 166 1701 224 1701 303 c 0
 1701 418 1598 485 1460 500 c 1
 1440 443 1432 396 1432 352 c 0
 1432 257 1493 166 1570 166 c 0
1252 504 m 1
 727 502 l 1
 730 324 822 167 989 167 c 0
 1155 167 1250 330 1252 504 c 1
1219 694 m 1
 1176 794 1092 870 990 870 c 0
 884 870 800 791 759 692 c 1
 1219 694 l 1
1309 1360 m 0
 1309 1412 1348 1458 1395 1458 c 0
 1424 1458 1451 1450 1470 1432 c 1
 1577 1335 1630 1212 1630 1068 c 0
 1630 942 1572 790 1532 682 c 1
 1717 649 1889 517 1889 304 c 0
 1889 140 1760 -24 1580 -24 c 0
 1451 -24 1363 41 1307 128 c 1
 1235 47 1127 -21 989 -21 c 0
 854 -21 748 46 681 117 c 1
 623 41 533 -15 415 -15 c 0
 237 -15 75 123 75 299 c 0
 75 568 298 680 558 691 c 1
 612 892 776 1060 989 1060 c 0
 1181 1060 1309 938 1377 803 c 1
 1412 890 1440 975 1440 1062 c 0
 1440 1157 1406 1232 1341 1293 c 1
 1319 1312 1309 1335 1309 1360 c 0
EndSplineSet
LCarets2: 2 0 0
EndChar

StartChar: nhcil
Encoding: 3450 3450 120
Width: 2769
GlyphClass: 2
Flags: HW
LayerCount: 2
Fore
SplineSet
1741.89355469 894.795898438 m 5
 1820.79199219 1005.65722656 1950.69140625 1094.75390625 2129.56640625 1094.75390625 c 4
 2141.94140625 1094.75390625 2154.31542969 1094.28417969 2166.65722656 1093.35058594 c 5
 2153.47265625 1154.81835938 2120.59277344 1213.45214844 2074.35253906 1253.37207031 c 4
 2054.62890625 1269.91894531 2038.62011719 1304.24414062 2038.62011719 1329.99023438 c 4
 2038.62011719 1385.1953125 2083.42480469 1430 2138.63085938 1430 c 4
 2160.60449219 1430 2189.26855469 1418.78417969 2205.05566406 1404.76074219 c 4
 2311.96191406 1312.46875 2372.99316406 1176.87011719 2372.99316406 1036.80078125 c 4
 2372.99316406 1035.08300781 2372.984375 1033.36425781 2372.96582031 1031.64550781 c 5
 2561.48925781 928.87890625 2694.21777344 709.616210938 2694.21777344 445.306640625 c 4
 2694.21777344 355.090820312 2676.06640625 261.540039062 2626.19628906 176.885742188 c 4
 2568.72265625 79.322265625 2458.09375 -15.736328125 2308.49023438 -15.736328125 c 4
 2165.10253906 -15.736328125 2060.96289062 70.857421875 2005.90527344 165.063476562 c 4
 1965.85449219 233.59375 1948.60058594 309.591796875 1948.60058594 384.383789062 c 4
 1948.60058594 608.896484375 2075.54785156 737.544921875 2140.26074219 894.456054688 c 5
 2136.91113281 894.5703125 2133.55957031 894.627929688 2130.20800781 894.627929688 c 4
 1968.43359375 894.627929688 1875.4296875 779.639648438 1848.33300781 641.708007812 c 5
 1848.33300781 641.706054688 l 5
 1838.77832031 593.06640625 1837.06738281 538.477539062 1837.06738281 479.264648438 c 4
 1837.06738281 472.583984375 1837.08886719 465.842773438 1837.12402344 459.045898438 c 6
 1839.06152344 80.6435546875 l 5
 1839.06152344 80.3583984375 l 6
 1838.65429688 25.5625 1793.8515625 -18.908203125 1739.0546875 -18.908203125 c 4
 1684.97265625 -18.908203125 1640.17773438 24.974609375 1639.06542969 79.0458984375 c 6
 1636.06933594 454.071289062 l 6
 1634.66699219 629.534179688 1614.59765625 775.000976562 1515.49121094 852.989257812 c 4
 1482.16699219 879.212890625 1443.94042969 894.973632812 1401.97851562 894.973632812 c 4
 1310.42089844 894.973632812 1245.98632812 829.827148438 1211.77636719 763.334960938 c 4
 1190.41894531 721.821289062 1177.12402344 672.750976562 1170.54589844 620.358398438 c 5
 1170.54589844 620.356445312 l 5
 1165.73144531 582.000976562 1164.44238281 541.041015625 1164.25683594 497.893554688 c 4
 1164.5546875 481.772460938 1164.68847656 465.895507812 1164.78613281 450.393554688 c 6
 1167.11035156 81.3193359375 l 6
 1167.11035156 81.07421875 1167.11035156 80.828125 1167.11035156 80.5830078125 c 4
 1166.69042969 25.7998046875 1121.88769531 -18.6611328125 1067.10351562 -18.6611328125 c 4
 1013.06933594 -18.6611328125 968.274414062 25.18359375 967.116210938 79.2060546875 c 5
 967.116210938 79.3232421875 l 5
 967.116210938 79.3232421875 l 5
 966.0859375 216.3671875 964.165039062 353.182617188 964.165039062 490.426757812 c 4
 964.165039062 492.454101562 964.166992188 494.485351562 964.170898438 496.520507812 c 4
 960.1640625 676.241210938 910.53125 800.444335938 790.309570312 864.264648438 c 4
 747.348632812 887.0703125 697.784179688 899.279296875 647.518554688 899.279296875 c 4
 552.954101562 899.279296875 454.206054688 853.274414062 387.573242188 780.747070312 c 4
 342.212890625 731.372070312 309.395507812 668.580078125 291.274414062 601.217773438 c 5
 349.8515625 644.80859375 422.556640625 669.271484375 496.397460938 669.271484375 c 4
 687.567382812 669.271484375 839.416992188 519.712890625 839.416992188 326.958984375 c 4
 839.416992188 172.986328125 742.447265625 59.5673828125 630.151367188 12.7802734375 c 4
 586.659179688 -5.3408203125 540.94921875 -13.875 495.553710938 -13.875 c 4
 363.119140625 -13.875 271.203125 46.93359375 205.942382812 117.516601562 c 4
 124.508789062 205.592773438 75 324.970703125 75 478.674804688 c 4
 75 646.370117188 130.984375 797.076171875 240.291992188 916.055664062 c 4
 343.56640625 1028.46875 490.838867188 1099.28027344 647.33203125 1099.28027344 c 4
 829.678710938 1099.28027344 973.123046875 1004.77246094 1054.69042969 890.985351562 c 5
 1119.53320312 994.908203125 1241.5078125 1095.00683594 1401.05859375 1095.00683594 c 4
 1558.88378906 1095.00683594 1676.73828125 998.208007812 1741.89355469 894.795898438 c 5
2327.63378906 822.159179688 m 5
 2277.77539062 699.575195312 2175.55761719 559.791992188 2153.59863281 438.915039062 c 4
 2150.421875 421.423828125 2148.84570312 403.721679688 2148.84570312 386.262695312 c 4
 2148.84570312 283.692382812 2205.82617188 184.296875 2307.64648438 184.296875 c 4
 2376.11425781 184.296875 2425.65234375 230.505859375 2453.86621094 278.399414062 c 4
 2481.32226562 325.005859375 2493.99511719 384.66015625 2493.99511719 447.908203125 c 4
 2493.99511719 610.375976562 2427.3984375 744.010742188 2327.63378906 822.159179688 c 5
497.485351562 469.2265625 m 4
 416.634765625 469.2265625 352.958984375 407.40625 352.958984375 326.469726562 c 4
 352.958984375 243.465820312 409.859375 186.395507812 494.889648438 186.395507812 c 4
 578.256835938 186.395507812 639.260742188 245.30859375 639.260742188 328.272460938 c 4
 639.260742188 406.739257812 575.405273438 469.2265625 497.485351562 469.2265625 c 4
EndSplineSet
LCarets2: 2 0 0
EndChar

StartChar: n1cil
Encoding: 3451 3451 121
Width: 2061
GlyphClass: 2
Flags: HW
LayerCount: 2
Fore
SplineSet
1300.46191406 1362.99023438 m 4
 1300.46191406 1416.73535156 1344.65722656 1463 1400.46875 1463 c 4
 1416.20214844 1463 1439.82226562 1456.26855469 1453.19140625 1447.97460938 c 4
 1572.859375 1376.05761719 1672.80566406 1241.17773438 1672.80566406 1059.63671875 c 4
 1672.80566406 1047.60742188 1672.32714844 1035.5625 1671.3671875 1023.53027344 c 5
 1729.80371094 991.50390625 1782.60351562 949.334960938 1826.84765625 899.372070312 c 4
 1932.85253906 779.66796875 1986.05761719 627.598632812 1986.05761719 465.924804688 c 4
 1986.05761719 358.671875 1960.64355469 245.921875 1892.82617188 150.604492188 c 4
 1830.2421875 62.642578125 1721.31445312 -20.220703125 1577.72460938 -20.220703125 c 4
 1429.33984375 -20.220703125 1318.8046875 68.4765625 1260.75195312 165.991210938 c 4
 1219.81347656 234.76171875 1201.21191406 311.678710938 1201.21191406 388.022460938 c 4
 1201.21191406 618.479492188 1342.50390625 745.359375 1421.23242188 890.997070312 c 5
 1418.06054688 891.100585938 1414.99316406 891.288085938 1411.75195312 891.288085938 c 4
 1325.03320312 891.288085938 1235.09765625 852.2109375 1176.01757812 788.780273438 c 4
 1130.74609375 740.174804688 1101.08886719 674.5078125 1092.43554688 607.547851562 c 4
 1092.59277344 602.586914062 1092.66992188 597.62109375 1092.66992188 592.651367188 c 4
 1092.66992188 577.303710938 1091.93164062 561.918945312 1090.51757812 546.541992188 c 4
 1090.70605469 543.844726562 1090.88378906 540.169921875 1090.88671875 537.391601562 c 6
 1091.3046875 78.0712890625 l 6
 1091.3046875 77.9169921875 1091.3046875 77.7626953125 1091.3046875 77.6083984375 c 4
 1090.66308594 23.052734375 1045.86132812 -21.224609375 991.301757812 -21.224609375 c 4
 937.043945312 -21.224609375 892.24609375 22.8046875 891.306640625 77.0537109375 c 4
 891.306640625 77.1982421875 891.306640625 77.341796875 891.306640625 77.486328125 c 6
 889.166015625 538.5078125 l 6
 889.166015625 538.618164062 889.165039062 538.796875 889.165039062 538.907226562 c 4
 889.165039062 542.600585938 889.564453125 548.569335938 890.056640625 552.23046875 c 4
 889.870117188 558.016601562 889.775390625 563.797851562 889.775390625 569.573242188 c 4
 889.775390625 583.8984375 890.356445312 598.186523438 891.55078125 612.400390625 c 4
 886.463867188 677.452148438 860.1875 742.443359375 817.736328125 790.38671875 c 4
 762.897460938 852.321289062 676.563476562 891.03125 593.741210938 891.03125 c 4
 501.107421875 891.03125 406.611328125 842.913085938 348.744140625 769.818359375 c 4
 301.279296875 709.860351562 275.206054688 629.813476562 275.206054688 550.934570312 c 4
 275.206054688 346.796875 441.809570312 183.72265625 648.299804688 183.72265625 c 4
 665.201171875 183.72265625 681.704101562 186.506835938 698.380859375 186.506835938 c 4
 753.5859375 186.506835938 798.390625 141.703125 798.390625 86.4970703125 c 4
 798.390625 36.2763671875 757.813476562 -8.328125 707.81640625 -13.06640625 c 4
 687.421875 -15.2880859375 666.983398438 -16.3857421875 646.59375 -16.3857421875 c 4
 328.028320312 -16.3857421875 75 237.494140625 75 553.196289062 c 4
 75 675.264648438 114.71875 796.419921875 191.93359375 893.95703125 c 4
 287.961914062 1015.25683594 434.579101562 1091.03320312 594.104492188 1091.03320312 c 4
 754.19140625 1091.03320312 907.25390625 1009.31933594 996.904296875 886.119140625 c 5
 1090.60058594 1009.04394531 1248.06738281 1091.29003906 1411.62109375 1091.29003906 c 4
 1431.84082031 1091.29003906 1451.35644531 1090.07324219 1470.98632812 1087.82617188 c 5
 1461.06738281 1174.9375 1412.69335938 1238.9765625 1350.17382812 1276.54882812 c 4
 1322.73242188 1292.515625 1300.46191406 1331.24121094 1300.46191406 1362.99023438 c 4
1612.77148438 824.013671875 m 5
 1553.86230469 705.509765625 1438.109375 572.731445312 1409.45703125 455.505859375 c 4
 1404.20898438 434.03515625 1401.61621094 411.866210938 1401.61621094 389.942382812 c 4
 1401.61621094 280.169921875 1468.0859375 179.7890625 1577.27539062 179.7890625 c 4
 1646.28027344 179.7890625 1698.01171875 221.779296875 1729.86523438 266.55078125 c 4
 1767.43554688 319.356445312 1786.04980469 391.749023438 1786.04980469 466.69921875 c 4
 1786.04980469 615.306640625 1715.38476562 751.703125 1612.77148438 824.013671875 c 5
EndSplineSet
LCarets2: 2 0 0
EndChar

StartChar: l3cil
Encoding: 3453 3453 122
Width: 2092
GlyphClass: 3
Flags: HW
LayerCount: 2
Fore
SplineSet
1494 362 m 0
 1494 260 1561 166 1660 166 c 0
 1765 166 1827 268 1827 377 c 0
 1827 529 1751 637 1640 721 c 1
 1590 625 1494 470 1494 362 c 0
915 747 m 1
 788 664 704 546 704 388 c 0
 704 276 780 163 894 163 c 0
 1011 163 1089 276 1089 397 c 0
 1089 555 1022 670 915 747 c 1
516 390 m 0
 516 580 610 726 719 826 c 1
 694 830 672 832 649 832 c 0
 431 832 265 670 265 462 c 0
 265 317 357 200 461 144 c 1
 491 129 510 103 510 72 c 0
 510 24 474 -24 420 -24 c 0
 401 -24 383 -21 367 -12 c 1
 211 74 75 245 75 465 c 0
 75 783 345 1023 656 1023 c 0
 740 1023 831 1003 917 962 c 1
 1023 1010 1139 1036 1259 1036 c 0
 1350 1036 1444 1021 1530 990 c 1
 1531 999 1531 1004 1531 1012 c 0
 1531 1110 1463 1201 1378 1216 c 1
 1322 1227 1289 1264 1289 1320 c 0
 1289 1322 l 0
 1289 1362 1331 1408 1373 1408 c 0
 1385 1408 1393 1408 1402 1407 c 0
 1402 1407 l 1
 1403 1407 l 0
 1579 1374 1721 1223 1721 1013 c 0
 1721 977 1716 937 1708 900 c 1
 1873 792 2017 615 2017 371 c 0
 2017 170 1885 -24 1660 -24 c 0
 1443 -24 1304 157 1304 355 c 0
 1304 527 1415 686 1476 810 c 1
 1403 836 1331 848 1259 848 c 0
 1207 848 1154 841 1102 828 c 1
 1214 717 1279 577 1279 400 c 0
 1279 182 1139 -26 895 -26 c 0
 656 -26 516 178 516 390 c 0
EndSplineSet
LCarets2: 2 0 0
EndChar

StartChar: lhcil
Encoding: 3454 3454 123
Width: 1939
GlyphClass: 3
Flags: HW
LayerCount: 2
Fore
SplineSet
1049.75683594 418.708007812 m 4
 1049.75683594 631.913085938 1164.30371094 761.45703125 1233.45019531 902.096679688 c 5
 1090.234375 898.50390625 1002.44238281 809.118164062 974.641601562 687.897460938 c 4
 965.5 648.038085938 963.098632812 602.69921875 963.098632812 553.056640625 c 4
 963.098632812 538.916992188 963.293945312 524.427734375 963.583007812 509.616210938 c 6
 964.188476562 478.696289062 l 6
 964.463867188 464.623046875 964.745117188 450.018554688 964.745117188 434.922851562 c 4
 964.745117188 243.038085938 891.967773438 109.038085938 766.858398438 34.5244140625 c 4
 703.409179688 -3.2666015625 639.78515625 -22.146484375 556.866210938 -22.146484375 c 4
 401.10546875 -22.146484375 282.515625 54.705078125 206.010742188 143.422851562 c 4
 116.720703125 246.961914062 75 379.833984375 75 510.780273438 c 4
 75 782.08984375 240.119140625 988.444335938 432.401367188 1082.30566406 c 4
 444.149414062 1088.24707031 464.370117188 1093.06933594 477.536132812 1093.06933594 c 4
 532.741210938 1093.06933594 577.545898438 1048.26464844 577.545898438 993.059570312 c 4
 577.545898438 958.03125 551.825195312 917.494140625 520.133789062 902.575195312 c 4
 388.758789062 838.4453125 275.013671875 696.990234375 275.013671875 511.54296875 c 4
 275.013671875 370.71875 350.051757812 245.743164062 458.793945312 198.610351562 c 4
 490.077148438 185.05078125 524.275390625 177.888671875 557.458007812 177.888671875 c 4
 705.98828125 177.888671875 764.635742188 287.385742188 764.635742188 438.767578125 c 4
 764.635742188 450.366210938 764.467773438 462.37890625 764.225585938 474.788085938 c 6
 763.622070312 505.709960938 l 6
 763.28125 523.163085938 762.951171875 541.130859375 762.951171875 559.549804688 c 4
 762.951171875 731.602539062 803.384765625 857.899414062 896.555664062 957.368164062 c 4
 979.173828125 1045.57128906 1088.09375 1102.296875 1241.11328125 1102.296875 c 4
 1255.54199219 1102.296875 1269.91503906 1101.71582031 1284.19433594 1100.60253906 c 5
 1280.60058594 1176.32714844 1250.82714844 1252.72558594 1200.93847656 1307.81933594 c 4
 1186.12597656 1323.71875 1174.10449219 1354.25976562 1174.10449219 1375.99023438 c 4
 1174.10449219 1431.1953125 1218.90820312 1476 1274.11425781 1476 c 4
 1300.86621094 1476 1332.66113281 1460.84570312 1349.19042969 1442.06542969 c 4
 1437.11035156 1344.97167969 1484.95117188 1217.76953125 1484.95117188 1088.42480469 c 4
 1484.95117188 1075.421875 1484.46777344 1062.39746094 1483.49316406 1049.37988281 c 5
 1692.99316406 955.68359375 1864.37792969 737.736328125 1864.37792969 455.588867188 c 4
 1864.37792969 359.192382812 1841.78320312 260.497070312 1786.81152344 173.836914062 c 4
 1723.39746094 73.87109375 1605.72753906 -20.2783203125 1450.17871094 -20.2783203125 c 4
 1294.703125 -20.2783203125 1176.53125 74.109375 1115.06738281 176.247070312 c 4
 1069.95703125 251.208984375 1049.75683594 335.302734375 1049.75683594 418.708007812 c 4
1431.22949219 852.022460938 m 5
 1380.94140625 737.880859375 1287.69921875 612.141601562 1259.76269531 499.403320312 c 4
 1253.37207031 473.616210938 1250.1875 447.001953125 1250.1875 420.725585938 c 4
 1250.1875 323.48828125 1294.89941406 244.303710938 1358.80566406 205.875976562 c 4
 1386.77929688 189.052734375 1419.5859375 179.72265625 1450.30664062 179.72265625 c 4
 1526.95800781 179.72265625 1585.15039062 229.3046875 1617.92285156 280.967773438 c 4
 1648.92480469 329.83984375 1664.23339844 392.616210938 1664.23339844 457.512695312 c 4
 1664.23339844 640.736328125 1560.16015625 781.893554688 1431.22949219 852.022460938 c 5
EndSplineSet
LCarets2: 2 0 0
EndChar

StartChar: r3cil
Encoding: 3452 3452 124
Width: 1416
GlyphClass: 3
Flags: HW
LayerCount: 2
Fore
SplineSet
75 495.483398438 m 4
 75 824.931640625 347.521484375 1095.47558594 684.3828125 1095.47558594 c 4
 719.306640625 1095.47558594 754.576171875 1092.56152344 789.881835938 1086.62890625 c 5
 780.130859375 1171.53417969 735.887695312 1234.66503906 677.874023438 1275.21679688 c 4
 653.65234375 1291.64160156 633.994140625 1328.72460938 633.994140625 1357.99023438 c 4
 633.994140625 1413.1953125 678.798828125 1458 734.00390625 1458 c 4
 752.725585938 1458 777.841796875 1449.66894531 792.458007812 1439.140625 c 4
 900.305664062 1363.75390625 991.803710938 1228.96679688 991.803710938 1058.29199219 c 4
 991.803710938 1044.92285156 991.2421875 1031.33300781 990.083007812 1017.53515625 c 5
 1150.59570312 930.583007812 1273.89648438 771.612304688 1321.01074219 589.890625 c 4
 1334.1953125 539.040039062 1341.80761719 485.485351562 1341.80761719 431.379882812 c 4
 1341.80761719 357.819335938 1327.73632812 283.240234375 1294.46777344 213.05078125 c 4
 1236.53417969 90.8193359375 1113.43457031 -23.8447265625 938.776367188 -23.8447265625 c 4
 806.177734375 -23.8447265625 700.756835938 47.4150390625 638.711914062 126.923828125 c 4
 577.237304688 205.703125 548.150390625 301.751953125 548.150390625 397.4609375 c 4
 548.150390625 420.577148438 549.84765625 443.673828125 553.194335938 466.501953125 c 4
 579.233398438 644.102539062 681.139648438 757.450195312 745.821289062 891.142578125 c 5
 726.474609375 893.903320312 706.977539062 895.254882812 687.51171875 895.254882812 c 4
 459.338867188 895.254882812 275.1015625 714.877929688 275.1015625 494.775390625 c 4
 275.1015625 340.91796875 368.693359375 217.2109375 475.708007812 158.849609375 c 4
 505.140625 143.311523438 529.028320312 103.689453125 529.028320312 70.4072265625 c 4
 529.028320312 15.2021484375 484.223632812 -29.6025390625 429.018554688 -29.6025390625 c 4
 414.544921875 -29.6025390625 392.5625 -23.83984375 379.950195312 -16.73828125 c 4
 216.301757812 72.5087890625 75 257.982421875 75 495.483398438 c 4
748.358398438 399.76953125 m 4
 748.358398438 284.6328125 821.0703125 176.17578125 939.209960938 176.17578125 c 4
 1024.54882812 176.17578125 1084.1328125 236.240234375 1113.74121094 298.7109375 c 4
 1132.48242188 338.250976562 1141.38964844 384.4765625 1141.38964844 432.627929688 c 4
 1141.38964844 467.90625 1136.609375 504.219726562 1127.41113281 539.6953125 c 4
 1098.05566406 652.920898438 1026.70117188 755.188476562 933.602539062 817.96484375 c 5
 878.724609375 700.482421875 768.642578125 557.28125 751.079101562 437.48828125 c 4
 749.252929688 425.034179688 748.358398438 412.399414062 748.358398438 399.76953125 c 4
EndSplineSet
LCarets2: 2 0 0
EndChar

StartChar: k1u1
Encoding: 65544 -1 125
Width: 1933
GlyphClass: 3
LigCaretCntFixed: 1
Flags: HW
LayerCount: 2
Fore
SplineSet
1491 143 m 0
 1523 143 1547 129 1583 129 c 0
 1614 129 1658 143 1657 175 c 24
 1655.64550664 219.698280801 1580.82174328 207.817825672 1539 212 c 0
 1488 216 1446 248 1446 299 c 0
 1446 360 1495 387 1558 387 c 0
 1597.34334448 387 1657 400.597808661 1657 434 c 0
 1657 494.177292239 1534.64171946 499 1465 499 c 0
 1463 499 1461 499 1459 499 c 1
 1454 385 1422 268 1351 168 c 0
 1280 68 1156 -27 994 -27 c 0
 865 -27 758 35 688 107 c 1
 627 26 521 -30 409 -30 c 0
 227.107972315 -30 75 116.21638137 75 298 c 4
 75 554.955771417 311.65776389 667.101432572 546 686 c 1
 588.620513517 896.352857036 742.255443482 1105 996 1105 c 0
 1246.3854179 1105 1395.76886322 903.960897556 1442 700 c 1
 1451 700 1460 700 1469 700 c 0
 1655.94150241 700 1857 635.846752542 1857 436 c 0
 1857 379 1819 336 1793 302 c 1
 1819 271 1858 225 1858 174 c 0
 1858 34 1725 -48 1583 -48 c 0
 1543 -48 1501 -41 1460 -27 c 0
 1422 -15 1391 28 1391 68 c 0
 1391 123 1436 143 1491 143 c 0
995 905 m 0
 864.885342531 905 785.656113656 795.201374119 754 691 c 1
 1237 694 l 1
 1204.16724034 797.751520523 1126.09478257 905 995 905 c 0
1258 494 m 1
 1254 494 1249 494 1245 494 c 2
 733 491 l 1
 744.207800717 336.581412339 828.242954262 173 993 173 c 0
 1161.27071953 173 1245.94766772 338.524913587 1258 494 c 1
275 297 m 0
 275 223 343 171 413 171 c 0
 502.619029498 171 557 246.160075218 557 333 c 0
 557 335 557 338 557 340 c 0
 544 387 536 435 533 483 c 1
 414.451229848 469.37370458 275 421.739749421 275 297 c 0
EndSplineSet
LCarets2: 1 0
EndChar

StartChar: k1u2
Encoding: 65545 -1 126
Width: 1943
GlyphClass: 3
LigCaretCntFixed: 1
Flags: HW
LayerCount: 2
Fore
SplineSet
979 18 m 0
 853 18 747 78 677 147 c 1
 616 69 513 16 405 16 c 0
 387 16 368 17 349 20 c 0
 206 45 75 174 75 339 c 0
 75 523 216 637 352 685 c 0
 417 708 482 719 545 723 c 1
 582 859 669 978 787 1041 c 0
 845 1072 910 1090 980 1090 c 0
 1128 1090 1244 1010 1314 924 c 0
 1361 866 1393 801 1413 733 c 1
 1545 733 1641 724 1735 660 c 0
 1796 619 1856 546 1856 446 c 0
 1856 375 1815 314 1778 275 c 5
 1817 228 1851 165 1851 97 c 0
 1851 -57 1732 -155 1603 -179 c 0
 1560 -187 1523 -187 1490 -187 c 2
 518 -196 l 2
 421 -197 334 -197 293 -245 c 0
 285 -255 281 -264 281 -272 c 0
 281 -299 319 -317 345 -325 c 0
 380 -336 423 -338 474 -338 c 2
 521 -338 l 1
 1765 -319 l 2
 1766 -319 1767 -319 1768 -319 c 0
 1823 -319 1868 -364 1868 -419 c 0
 1868 -474 1823 -519 1768 -519 c 2
 524 -538 l 2
 504 -538 482 -539 459 -539 c 0
 406 -539 347 -536 286 -517 c 0
 186 -486 81 -402 81 -270 c 0
 81 -146 179 -61 270 -27 c 0
 360 6 446 3 517 4 c 2
 1488 13 l 2
 1569.8498872 14.0769722 1652 22.5516639092 1652 100 c 0
 1652 147.870072166 1629.64257812 196 1577 196 c 0
 1507 196 1427 218 1427 283 c 0
 1427 346 1505 368 1572 368 c 0
 1619.87792969 368 1657 398.246789382 1657 443 c 0
 1657 522.270490443 1523.03655394 531.045136691 1438 533 c 1
 1435 420 1404 304 1334 207 c 0
 1263 109 1139 18 979 18 c 0
1201 729 m 1
 1164 809 1091 890 981 890 c 0
 869 890 795 808 759 727 c 1
 1201 729 l 1
1238 530 m 1
 1234 530 1230 529 1226 529 c 2
 723 527 l 1
 728 406 782 300 866 250 c 0
 901 229 940 218 979 218 c 0
 1013 218 1048 227 1081 245 c 0
 1173 294 1232 403 1238 530 c 1
409 216 m 0
 486 216 548 282 548 358 c 0
 548 360 548 362 548 364 c 0
 533 415 525 467 523 519 c 1
 440 509 367 485 321 439 c 0
 294 412 275 376 275 339 c 0
 275 268 341 216 409 216 c 0
EndSplineSet
LCarets2: 1 0
EndChar

StartChar: k1r1
Encoding: 65546 -1 127
Width: 1920
GlyphClass: 3
LigCaretCntFixed: 1
Flags: HW
LayerCount: 2
Fore
SplineSet
976 -240 m 2
 969 -240 l 0
 866 -240 802 -269 802 -323 c 0
 802 -379 861 -399 977 -399 c 0
 1094 -399 1149 -379 1149 -326 c 0
 1149 -270 1084 -241 976 -240 c 2
266 292 m 0
 266 226 329 174 404 174 c 0
 495 174 561 231 561 308 c 0
 561 320 l 0
 561 363 539 415 535 468 c 1
 384 452 266 400 266 292 c 0
1267 474 m 1
 724 474 l 1
 730 314 831 173 995 173 c 0
 1162 173 1261 316 1267 474 c 1
1234 666 m 1
 1190 758 1103 828 998 828 c 0
 994 828 l 1
 887 826 802 755 758 666 c 1
 1234 666 l 1
684 120 m 1
 624 37 532 -19 404 -19 c 0
 232 -19 74 116 74 284 c 0
 74 538 317 644 556 660 c 1
 610 850 762 1020 997 1020 c 0
 1233 1020 1386 840 1437 646 c 1
 1662 613 1845 419 1845 175 c 0
 1845 -252 1445 -589 1004 -589 c 0
 990 -589 l 1
 783 -585 611 -520 611 -321 c 0
 611 -126 794 -49 972 -49 c 0
 977 -49 l 1
 1157 -50 1319 -122 1339 -295 c 1
 1498 -204 1654 -38 1654 175 c 0
 1654 313 1572 426 1457 461 c 1
 1445 211 1273 -17 995 -17 c 0
 876 -17 764 37 684 120 c 1
EndSplineSet
LCarets2: 1 0
EndChar

StartChar: k1k1
Encoding: 65548 -1 129
Width: 2536
GlyphClass: 3
LigCaretCntFixed: 1
Flags: HW
LayerCount: 2
Fore
SplineSet
1403.66894531 826.60546875 m 5
 1508.78515625 971.697265625 1689.49804688 1084.20898438 1893.48730469 1084.20898438 c 4
 1897.55371094 1084.20898438 1901.6171875 1084.1640625 1905.67675781 1084.08007812 c 4
 2188.3359375 1077.93261719 2407.99902344 865.046875 2452.75488281 616.87890625 c 4
 2458.74804688 583.6484375 2461.70703125 550.069335938 2461.70703125 516.572265625 c 4
 2461.70703125 247.4609375 2283.66601562 49.8955078125 2079.66308594 -20.810546875 c 4
 2070.5390625 -24.12109375 2055.25683594 -26.8076171875 2045.55078125 -26.8076171875 c 4
 1990.34570312 -26.8076171875 1945.54101562 17.99609375 1945.54101562 73.2021484375 c 4
 1945.54101562 113.098632812 1976.28515625 155.640625 2014.16699219 168.16015625 c 4
 2147.05859375 214.21875 2261.50683594 342.356445312 2261.50683594 518.094726562 c 4
 2261.50683594 723.098632812 2096.05273438 884.20703125 1892.99707031 884.20703125 c 4
 1739.06738281 884.20703125 1603.72753906 782.669921875 1537.37597656 665.01953125 c 5
 1735.68261719 638.184570312 1919.20800781 541.568359375 1955.72558594 346.2421875 c 4
 1959.28808594 327.190429688 1961.03417969 308.065429688 1961.03417969 289.081054688 c 4
 1961.03417969 113.520507812 1812.64355469 -24 1644.91503906 -24 c 4
 1507.93066406 -24 1402.41992188 60.021484375 1345.74316406 147.98046875 c 5
 1272.78125 61.3349609375 1153.48339844 -17.3798828125 1004.13769531 -17.3798828125 c 4
 872.859375 -17.3798828125 762.50390625 46.021484375 691.235351562 118.748046875 c 5
 630.20703125 39.2548828125 523.201171875 -19.3583984375 411.422851562 -19.3583984375 c 4
 230.715820312 -19.3583984375 75 116.765625 75 302.470703125 c 4
 75 493.62109375 228.0234375 601.999023438 374.543945312 643.544921875 c 4
 435.361328125 660.790039062 495.267578125 668.446289062 553.122070312 671.83984375 c 5
 586.360351562 824.87109375 679.392578125 961.376953125 808.936523438 1030.45117188 c 4
 868.619140625 1062.27441406 934.702148438 1080.67578125 1006.04101562 1080.67578125 c 4
 1200.0546875 1080.67578125 1333.71875 957.4375 1403.66894531 826.60546875 c 5
1005.90429688 880.67578125 m 4
 875.091796875 880.67578125 795.1953125 775.942382812 761.180664062 674.53125 c 5
 1251.50488281 675.24609375 l 5
 1224.90234375 754.072265625 1174.69824219 820.798828125 1105.73339844 855.9140625 c 4
 1074.23144531 871.955078125 1039.1875 880.67578125 1005.90429688 880.67578125 c 4
1272.31933594 475.255859375 m 5
 1271.37402344 475.25390625 1270.4375 475.252929688 1269.50585938 475.252929688 c 4
 1266.859375 475.252929688 1264.25390625 475.258789062 1261.60058594 475.258789062 c 4
 1260.59375 475.258789062 1259.58007812 475.2578125 1258.55371094 475.255859375 c 6
 740.036132812 474.5 l 5
 751.966796875 361.146484375 806.119140625 265.155273438 887.139648438 216.337890625 c 4
 922.955078125 194.758789062 961.916992188 182.624023438 1003.7421875 182.624023438 c 4
 1094.98339844 182.624023438 1164.31054688 236.088867188 1206.34667969 293.900390625 c 4
 1242.90917969 344.184570312 1264.875 407.977539062 1272.31933594 475.255859375 c 5
1645.109375 175.99609375 m 4
 1707.55859375 175.99609375 1760.69628906 226.552734375 1760.69628906 291.908203125 c 4
 1760.69628906 381.862304688 1662.91308594 432.296875 1583.56347656 452.7578125 c 4
 1549.19628906 461.620117188 1512.82226562 466.956054688 1474.85644531 470.252929688 c 5
 1472.98144531 453.364257812 1472.02636719 436.543945312 1472.02636719 419.993164062 c 4
 1472.02636719 362.4609375 1483.56738281 308.18359375 1508.12597656 265.615234375 c 5
 1508.12597656 265.615234375 l 5
 1534.14257812 220.522460938 1581.47558594 175.99609375 1645.109375 175.99609375 c 4
408.741210938 180.880859375 m 4
 495.3203125 180.880859375 564.184570312 250.665039062 564.184570312 334.630859375 c 4
 564.184570312 335.372070312 564.177734375 336.112304688 564.165039062 336.8515625 c 4
 551.010742188 380.34765625 542.916015625 424.985351562 539.420898438 469.6484375 c 5
 453.51953125 462.411132812 375.859375 441.802734375 326.069335938 399.650390625 c 4
 296.0546875 374.240234375 275.370117188 344.384765625 275.370117188 305.1328125 c 4
 275.370117188 233.07421875 336.638671875 180.880859375 408.741210938 180.880859375 c 4
EndSplineSet
LCarets2: 2 0 0
EndChar

StartChar: k1k1u1
Encoding: 65549 -1 130
Width: 2551
GlyphClass: 3
LigCaretCntFixed: 1
Flags: HW
LayerCount: 2
Fore
SplineSet
1616 167 m 0
 1699 167 1758 216 1758 280 c 0
 1758 398 1627 452 1473 469 c 1
 1462 432 1456 400 1456 369 c 0
 1456 269 1523 167 1616 167 c 0
564 308 m 2
 564 318 l 1
 547 368 538 418 537 469 c 1
 385 454 266 402 266 294 c 0
 266 227 329 174 405 174 c 0
 497 174 564 231 564 308 c 2
1274 476 m 1
 727 476 l 1
 733 315 834 173 998 173 c 0
 1165 173 1267 317 1274 476 c 1
761 668 m 1
 1240 668 l 1
 1198 761 1120 832 1000 832 c 0
 881 832 802 758 761 668 c 1
2159 149 m 0
 2231 149 2288 190 2288 247 c 0
 2288 314 2226 341 2125 341 c 0
 2083 341 l 0
 2033 341 1988 382 1988 434 c 0
 1988 482 2025 524 2070 530 c 1
 2093 534 l 1
 2103 537 2109 535 2109 535 c 0
 2132 535 l 0
 2201 535 2254 592 2254 649 c 0
 2254 766 2107 835 1958 835 c 0
 1779 835 1651 754 1563 648 c 1
 1763 608 1949 486 1949 287 c 0
 1949 112 1815 -22 1628 -22 c 0
 1492 -22 1391 60 1335 145 c 1
 1260 57 1144 -16 1000 -16 c 0
 862 -16 756 49 687 120 c 1
 627 36 533 -19 405 -19 c 0
 231 -19 75 118 75 285 c 0
 75 540 318 646 559 662 c 1
 616 859 782 1021 999 1021 c 0
 1204 1021 1341 896 1409 750 c 1
 1527 902 1714 1024 1954 1024 c 0
 2201 1024 2445 898 2445 641 c 0
 2445 572 2417 509 2371 457 c 1
 2437 408 2476 342 2476 248 c 0
 2476 78 2332 -43 2161 -43 c 0
 2106 -43 2054 -27 2003 2 c 1
 1974 18 1955 46 1955 79 c 0
 1955 129 1990 180 2045 180 c 0
 2066 180 2088 174 2108 162 c 1
 2122 154 2139 149 2159 149 c 0
EndSplineSet
LCarets2: 1 0
EndChar

StartChar: k1k1u2
Encoding: 65550 -1 131
Width: 2522
GlyphClass: 3
LigCaretCntFixed: 1
Flags: HW
LayerCount: 2
Fore
SplineSet
2440 -482 m 0
 2440 -522 2406 -577 2359 -577 c 2
 2344 -577 l 1
 450 -573 l 2
 284 -573 192 -545 120 -450 c 0
 33 -333 83 -192 181 -118 c 0
 249 -67 347 -46 474 -48 c 2
 604 -49 l 1
 1855 -40 l 2
 1973 -39 2055 -28 2096 -10 c 0
 2182 28 2231 83 2250 148 c 0
 2279 246 2233 319 2158 344 c 0
 2135 352 2087 359 2025 365 c 0
 1982 367 1939 407 1939 454 c 0
 1939 507 1968 545 2019 553 c 2
 2043 557 l 2
 2053 559 2056 558 2058 558 c 0
 2061 558 2068 559 2073 559 c 0
 2151 566 2203 620 2197 690 c 0
 2190 777 2114 831 2024 858 c 0
 1971 874 1919 878 1859 870 c 0
 1722 852 1613 784 1529 667 c 1
 1638 645 1721 608 1784 549 c 0
 1890 449 1929 335 1892 210 c 0
 1857 94 1758 -5 1610 -12 c 0
 1468 -19 1363 64 1306 152 c 1
 1230 64 1114 -10 967 -5 c 0
 854 -1 757 44 677 127 c 1
 631 66 574 27 501 6 c 0
 345 -39 216 28 144 122 c 0
 93 190 71 265 83 344 c 0
 94 421 126 485 177 536 c 0
 266 624 394 672 550 683 c 1
 570 757 599 821 642 873 c 0
 732 987 846 1048 976 1049 c 0
 1041 1050 1104 1035 1162 1005 c 0
 1258 956 1330 880 1376 781 c 1
 1438 866 1508 930 1592 978 c 0
 1752 1069 1923 1088 2097 1035 c 0
 2168 1013 2231 974 2287 918 c 0
 2346 859 2379 784 2386 695 c 0
 2393 613 2365 538 2310 476 c 1
 2418 400 2482 264 2432 96 c 0
 2384 -69 2241 -178 2072 -213 c 0
 2014 -224 1942 -230 1856 -231 c 2
 605 -240 l 1
 476 -240 l 2
 351 -241 289 -267 271 -299 c 0
 269 -303 267 -304 267 -304 c 2
 267 -304 l 1
 267 -305 l 2
 257 -330 282 -351 316 -367 c 0
 332 -375 380 -382 451 -382 c 2
 2344 -386 l 2
 2396 -386 2440 -429 2440 -482 c 0
1079 835 m 0
 1012 870 948 870 882 834 c 0
 824 803 780 753 752 686 c 1
 1210 687 l 1
 1180 758 1138 805 1079 835 c 0
1244 495 m 1
 718 495 l 1
 724 326 829 191 972 186 c 0
 1062 183 1133 234 1177 291 c 0
 1218 347 1241 415 1244 495 c 1
528 488 m 1
 427 477 361 450 318 408 c 0
 269 361 252 294 297 236 c 0
 319 207 344 192 370 188 c 0
 450 175 500 195 534 251 c 0
 550 278 556 304 554 330 c 1
 538 382 529 435 528 488 c 1
1443 488 m 1
 1407 359 1439 259 1508 208 c 0
 1562 166 1610 165 1663 201 c 0
 1691 219 1707 246 1714 289 c 0
 1719 327 1703 365 1655 410 c 0
 1613 449 1542 477 1443 488 c 1
EndSplineSet
LCarets2: 1 3
EndChar

StartChar: k1k1r1
Encoding: 65551 -1 132
Width: 2444
GlyphClass: 3
LigCaretCntFixed: 1
Flags: HW
LayerCount: 2
Fore
SplineSet
1622 -327 m 0
 1603 -292 1551 -268 1454 -267 c 0
 1357 -266 1305 -290 1286 -324 c 1
 1274 -346 1275 -359 1291 -379 c 1
 1315 -407 1385 -427 1507 -421 c 1
 1563 -418 1598 -403 1615 -384 c 0
 1632 -364 1634 -349 1622 -327 c 0
1435 463 m 1
 1406 340 1438 250 1505 204 c 1
 1564 159 1639 165 1682 216 c 1
 1731 269 1710 339 1658 385 c 1
 1611 425 1536 452 1435 463 c 1
524 464 m 1
 423 453 355 429 312 390 c 0
 263 346 248 283 292 230 c 1
 323 193 364 179 407 181 c 1
 482 184 554 239 549 321 c 0
 549 321 l 1
 549 326 l 1
 534 371 526 417 524 464 c 1
715 470 m 1
 724 312 826 187 968 181 c 1
 1058 178 1128 227 1171 281 c 1
 1212 332 1234 396 1238 471 c 1
 1221 471 l 0
 715 470 l 1
1211 663 m 1
 1170 759 1080 834 974 832 c 0
 868 830 782 755 743 662 c 1
 1211 663 l 1
1458 875 m 0
 1637 1044 1893 1076 2103 929 c 1
 2188 873 2254 800 2301 707 c 1
 2379 547 2391 364 2339 157 c 1
 2302 -4 2234 -148 2138 -275 c 0
 2042 -402 1921 -496 1776 -554 c 0
 1675 -594 1574 -615 1473 -613 c 0
 1373 -611 1302 -601 1256 -581 c 1
 1162 -540 1104 -472 1090 -383 c 1
 1072 -247 1157 -159 1237 -111 c 1
 1339 -53 1575 -57 1673 -115 c 1
 1755 -166 1805 -234 1816 -315 c 1
 1980 -208 2100 -31 2155 198 c 0
 2155 199 l 1
 2155 199 l 0
 2175 269 2183 343 2180 421 c 1
 2173 586 2111 704 1995 780 c 1
 1899 847 1800 855 1693 807 c 1
 1617 776 1556 722 1507 647 c 1
 1623 627 1712 586 1776 525 c 1
 1884 431 1923 324 1887 207 c 1
 1853 91 1753 -8 1604 -13 c 1
 1472 -19 1364 60 1303 151 c 1
 1228 62 1109 -14 962 -9 c 0
 849 -5 751 41 672 124 c 1
 626 63 569 24 496 4 c 1
 341 -41 211 26 139 122 c 1
 36 251 69 421 172 518 c 0
 260 601 387 648 543 659 c 1
 562 730 590 788 631 837 c 1
 721 956 836 1020 971 1021 c 1
 1038 1022 1103 1006 1162 975 c 1
 1252 929 1320 860 1366 771 c 1
 1394 811 1424 844 1458 875 c 0
EndSplineSet
LCarets2: 1 0
EndChar

StartChar: k1k1r3
Encoding: 65552 -1 133
Width: 2826
GlyphClass: 3
LigCaretCntFixed: 1
Flags: HW
LayerCount: 2
Fore
SplineSet
1802 477 m 1
 1797 450 1796 429 1796 405 c 0
 1796 292 1855 172 1960 172 c 0
 2022 172 2094 240 2094 299 c 0
 2094 411 1953 461 1802 477 c 1
635 309 m 0
 635 243 705 175 768 175 c 0
 849 175 919 242 919 321 c 0
 919 321 918 328 918 333 c 1
 902 381 894 428 892 477 c 1
 747 462 635 412 635 309 c 0
1082 484 m 1
 1088 323 1195 178 1344 178 c 0
 1503 178 1602 329 1609 484 c 1
 1082 484 l 1
1345 831 m 0
 1232 831 1156 760 1116 676 c 1
 1575 676 l 1
 1533 763 1459 831 1345 831 c 0
1728 784 m 1
 1822 915 1969 1018 2180 1018 c 0
 2537 1018 2751 693 2751 370 c 0
 2751 -185 2309 -400 1751 -412 c 0
 1308 -422 l 0
 1264 -423 1223 -423 1185 -423 c 0
 595 -423 75 -187 75 391 c 0
 75 675 246 898 445 1006 c 1
 459 1014 477 1019 497 1019 c 0
 551 1019 587 969 587 919 c 0
 587 885 568 859 537 843 c 1
 390 763 265 600 265 391 c 0
 265 -63 686 -253 1184 -253 c 0
 1221 -253 1262 -253 1305 -252 c 0
 1748 -242 l 0
 2210 -232 2564 -65 2564 366 c 0
 2564 614 2411 829 2174 829 c 0
 2033 829 1928 751 1868 661 c 1
 2078 626 2285 507 2285 302 c 0
 2285 127 2140 -19 1949 -19 c 0
 1828 -19 1729 66 1675 150 c 1
 1602 64 1487 -12 1345 -12 c 0
 1223 -12 1122 35 1041 118 c 1
 983 38 892 -16 768 -16 c 0
 595 -16 444 140 444 303 c 0
 444 552 681 654 914 670 c 1
 966 855 1116 1022 1345 1022 c 0
 1528 1022 1658 911 1728 784 c 1
EndSplineSet
LCarets2: 1 0
EndChar

StartChar: k1th1
Encoding: 65558 -1 139
Width: 3312
GlyphClass: 3
LigCaretCntFixed: 1
Flags: HW
LayerCount: 2
Fore
SplineSet
538 466 m 1
 386 450 267 399 267 291 c 0
 267 225 330 171 405 171 c 0
 496 171 564 230 564 307 c 0
 564 308 563 312 563 318 c 0
 563 319 l 0
 563 361 542 412 538 466 c 1
727 473 m 1
 733 313 833 171 998 171 c 0
 1167 171 1269 317 1274 476 c 1
 1252 476 l 1
 727 473 l 1
2398 766 m 1
 2283 696 2193 573 2193 415 c 0
 2193 286 2271 166 2398 166 c 0
 2523 166 2603 285 2603 412 c 0
 2603 572 2515 697 2398 766 c 1
1239 668 m 1
 1195 758 1108 828 1002 828 c 0
 892 828 804 755 760 665 c 1
 1239 668 l 1
3050 482 m 0
 3050 679 2865 832 2645 832 c 0
 2634 832 2620 832 2610 831 c 1
 2727 722 2792 593 2792 410 c 0
 2792 187 2648 -22 2398 -22 c 0
 2152 -22 2003 187 2003 406 c 0
 2003 585 2075 722 2185 827 c 1
 2178 827 2172 828 2165 828 c 0
 1944 828 1776 671 1776 468 c 0
 1776 456 l 0
 1776 313 1885 201 1985 158 c 1
 2017 142 2041 116 2041 79 c 0
 2041 29 2007 -24 1952 -24 c 0
 1934 -24 1917 -20 1904 -13 c 1
 1747 58 1612 212 1588 405 c 1
 1549 430 1508 447 1464 458 c 1
 1451 205 1279 -16 996 -16 c 0
 865 -16 757 49 688 119 c 1
 627 35 533 -21 405 -21 c 0
 227 -21 78 117 78 288 c 0
 78 536 320 644 559 659 c 1
 615 858 784 1018 1003 1018 c 0
 1217 1018 1391 853 1444 657 c 1
 1503 647 1556 630 1605 608 c 1
 1670 837 1889 1018 2165 1018 c 0
 2241 1018 2320 1001 2397 970 c 1
 2482 1005 2564 1021 2645 1021 c 0
 2960 1021 3239 792 3239 481 c 0
 3239 239 3071 48 2878 -13 c 1
 2864 -18 2852 -19 2837 -19 c 0
 2791 -19 2750 27 2750 71 c 0
 2750 117 2777 152 2823 169 c 1
 2944 210 3050 331 3050 482 c 0
EndSplineSet
LCarets2: 1 3
EndChar

StartChar: k1th1u1
Encoding: 65559 -1 140
Width: 3268
GlyphClass: 3
LigCaretCntFixed: 1
Flags: HW
LayerCount: 2
Fore
SplineSet
2334 749 m 1
 2227 685 2138 572 2138 417 c 0
 2138 295 2212 182 2333 182 c 0
 2452 182 2532 290 2532 413 c 0
 2532 573 2453 680 2334 749 c 1
1733 458 m 2
 1733 448 l 1
 1736 316 1827 218 1934 172 c 1
 1971 157 1991 122 1991 80 c 0
 1991 34 1947 -10 1902 -10 c 0
 1885 -10 1868 -7 1854 -0 c 1
 1693 69 1566 216 1546 407 c 1
 1510 431 1471 447 1429 458 c 1
 1415 215 1244 -5 974 -5 c 0
 858 -5 750 47 672 127 c 1
 613 46 522 -7 398 -7 c 0
 227 -7 75 128 75 291 c 0
 75 541 313 643 545 659 c 1
 597 845 748 1010 977 1010 c 0
 1210 1010 1359 840 1409 656 c 1
 1467 646 1516 630 1563 609 c 1
 1627 816 1842 997 2111 997 c 0
 2182 997 2260 983 2333 954 c 1
 2409 985 2485 1000 2566 1000 c 0
 2922 1000 3192 727 3192 386 c 0
 3192 -37 2962 -215 2528 -220 c 1
 2025 -227 l 1
 1991 -227 l 0
 1857 -227 1728 -242 1728 -308 c 0
 1728 -361 1836 -379 1944 -379 c 0
 1967 -379 1992 -379 2019 -378 c 1
 3097 -375 l 1
 3112 -375 l 0
 3158 -375 3193 -430 3193 -470 c 0
 3193 -522 3150 -565 3098 -565 c 1
 2020 -568 l 1
 1926 -568 l 0
 1734 -568 1539 -509 1539 -306 c 0
 1539 -89 1755 -37 1968 -37 c 0
 2023 -37 l 1
 2525 -31 l 0
 2855 -27 3002 71 3002 372 c 0
 3002 619 2823 810 2568 810 c 0
 2562 810 2555 810 2550 810 c 1
 2659 705 2722 579 2722 404 c 0
 2722 179 2568 -7 2338 -7 c 0
 2099 -7 1949 186 1949 407 c 0
 1949 579 2010 702 2116 805 c 1
 2114 805 l 0
 1892 805 1735 660 1733 458 c 2
549 314 m 2
 549 323 l 1
 533 370 525 417 524 466 c 1
 379 451 266 401 266 299 c 0
 266 236 326 185 399 185 c 0
 486 185 549 241 549 314 c 2
714 473 m 1
 720 316 825 186 974 186 c 0
 1137 186 1235 322 1240 475 c 1
 1222 475 l 1
 714 473 l 1
747 665 m 1
 1205 667 l 1
 1164 752 1088 819 976 819 c 0
 862 819 786 749 747 665 c 1
EndSplineSet
LCarets2: 1 0
EndChar

StartChar: k1th1u2
Encoding: 65560 -1 141
Width: 3449
GlyphClass: 3
LigCaretCntFixed: 1
Flags: HW
LayerCount: 2
Fore
SplineSet
406 172 m 0
 482 172 550 224 550 296 c 1
 550 297 549 303 549 305 c 1
 533 354 525 403 524 454 c 1
 380 439 266 390 266 287 c 0
 266 221 327 172 406 172 c 0
974 174 m 0
 1136 174 1234 309 1240 464 c 1
 714 462 l 1
 720 303 825 174 974 174 c 0
2495 178 m 0
 2614 178 2693 286 2693 406 c 0
 2693 544 2590 663 2498 726 c 1
 2380 660 2287 555 2287 412 c 0
 2287 286 2376 178 2495 178 c 0
1205 657 m 1
 1161 748 1074 833 977 833 c 0
 878 833 791 746 747 654 c 1
 1205 657 l 1
2095 -30 m 1
 2704 -33 l 1
 2973 -31 3178 29 3178 193 c 0
 3178 266 3119 329 3049 329 c 0
 3007 329 2947 355 2947 414 c 0
 2947 472 2980 517 3034 519 c 1
 3102 521 3159 572 3159 632 c 0
 3159 745 3022 832 2873 832 c 0
 2811 832 2747 825 2699 816 c 1
 2821 697 2883 544 2883 384 c 0
 2883 184 2726 -13 2494 -13 c 0
 2250 -13 2096 194 2096 403 c 0
 2096 581 2192 733 2300 826 c 1
 2263 834 2227 838 2191 838 c 0
 1958 838 1772 683 1772 464 c 0
 1772 304 1882 168 2033 146 c 1
 2094 138 2139 107 2139 51 c 0
 2139 21 2121 -12 2095 -30 c 1
1945 -28 m 1
 1757 24 1625 199 1591 364 c 1
 1551 416 1498 432 1429 447 c 1
 1415 203 1246 -17 974 -17 c 0
 858 -17 750 34 672 110 c 1
 613 33 522 -19 398 -19 c 0
 223 -19 77 118 77 285 c 0
 77 527 314 630 545 647 c 1
 601 853 747 1023 979 1023 c 0
 1207 1023 1354 847 1409 645 c 1
 1478 634 1539 613 1595 583 c 1
 1656 844 1885 1026 2192 1026 c 0
 2301 1026 2413 999 2508 952 c 1
 2615 995 2736 1022 2876 1022 c 0
 3118 1022 3348 899 3348 645 c 0
 3348 560 3319 486 3266 430 c 1
 3327 374 3369 296 3369 199 c 0
 3369 -143 3003 -222 2658 -222 c 0
 2514 -222 l 1
 1985 -219 l 1
 1973 -219 l 0
 1841 -219 1757 -227 1757 -277 c 0
 1757 -315 1835 -332 1967 -332 c 0
 1984 -332 l 0
 2004 -332 2018 -332 2024 -331 c 0
 2025 -331 l 1
 3278 -328 l 1
 3294 -328 l 0
 3341 -328 3375 -383 3375 -423 c 0
 3375 -475 3332 -518 3280 -518 c 0
 3279 -518 l 1
 2027 -521 l 1
 1915 -522 l 1
 1737 -519 1567 -455 1567 -277 c 0
 1567 -96 1745 -28 1925 -28 c 0
 1931 -28 1938 -28 1945 -28 c 1
EndSplineSet
LCarets2: 1 0
EndChar

StartChar: k1th1r1
Encoding: 65561 -1 142
Width: 3174
GlyphClass: 3
LigCaretCntFixed: 1
Flags: HW
LayerCount: 2
Fore
SplineSet
409 -55 m 0
 227 -55 75 93 75 273 c 0
 75 536 325 641 558 652 c 1
 606 837 752 1022 989 1022 c 0
 1228 1022 1371 835 1420 653 c 1
 1449 650 1473 643 1496 634 c 1
 1570 850 1773 1017 2035 1017 c 0
 2113 1017 2192 1000 2263 971 c 1
 2339 1003 2409 1016 2479 1016 c 0
 2863 1016 3100 674 3100 301 c 0
 3100 -185 2739 -600 2225 -600 c 0
 2052 -600 1840 -549 1840 -343 c 0
 1840 -153 2036 -80 2197 -80 c 0
 2208 -80 l 1
 2362 -82 2548 -143 2568 -318 c 1
 2756 -199 2909 36 2909 302 c 0
 2909 575 2748 826 2487 826 c 0
 2483 826 2477 826 2474 826 c 1
 2586 712 2656 564 2656 379 c 0
 2656 156 2514 -61 2271 -61 c 0
 2025 -61 1884 160 1884 384 c 0
 1884 565 1950 713 2058 826 c 1
 2049 826 2041 827 2033 827 c 0
 1824 827 1657 660 1657 456 c 0
 1657 297 1761 169 1884 118 c 1
 1917 104 1943 68 1943 30 c 0
 1943 -22 1900 -65 1848 -65 c 0
 1834 -65 1820 -60 1810 -57 c 0
 1810 -57 l 1
 1809 -57 l 0
 1635 16 1493 182 1469 396 c 1
 1463 427 1455 441 1442 450 c 1
 1433 194 1273 -61 989 -61 c 0
 858 -61 750 5 680 78 c 1
 617 -2 517 -55 409 -55 c 0
1218 656 m 1
 1178 752 1106 832 989 832 c 0
 986 832 l 1
 872 831 795 747 758 654 c 1
 1218 656 l 1
2264 759 m 1
 2151 682 2074 549 2074 392 c 0
 2074 256 2144 129 2271 129 c 0
 2394 129 2465 253 2465 386 c 0
 2465 548 2378 684 2264 759 c 1
1252 466 m 1
 726 464 l 1
 727 423 733 383 743 347 c 1
 747 339 748 330 748 329 c 1
 783 225 863 129 989 129 c 0
 1156 129 1250 294 1252 466 c 1
411 136 m 0
 492 136 561 203 561 285 c 0
 561 291 l 1
 545 349 537 404 536 460 c 1
 387 448 266 398 266 272 c 0
 266 197 334 136 411 136 c 0
2244 -409 m 2
 2321 -407 2380 -387 2380 -346 c 0
 2380 -291 2296 -270 2199 -270 c 0
 2109 -270 2030 -293 2030 -343 c 0
 2030 -399 2131 -409 2240 -409 c 0
 2244 -409 l 2
EndSplineSet
LCarets2: 1 0
EndChar

StartChar: k1r3
Encoding: 65562 -1 143
Width: 2185
GlyphClass: 3
Flags: HW
LayerCount: 2
Fore
SplineSet
736 182 m 0
 817 182 879 244 879 313 c 0
 879 317 879 325 879 326 c 1
 862 379 853 432 852 489 c 1
 706 472 593 418 593 309 c 0
 593 237 657 182 736 182 c 0
1569 499 m 1
 1042 496 l 1
 1045 328 1137 177 1303 177 c 0
 1471 177 1565 331 1569 499 c 1
1305 860 m 0
 1186 860 1109 781 1072 689 c 1
 1539 691 l 1
 1499 785 1423 860 1305 860 c 0
1000 123 m 1
 939 46 838 -9 729 -9 c 0
 542 -9 404 146 404 300 c 0
 404 550 638 659 873 677 c 1
 921 869 1061 1049 1305 1049 c 0
 1547 1049 1692 863 1739 663 c 1
 1958 622 2110 451 2110 195 c 0
 2110 -212 1770 -356 1382 -370 c 1
 1110 -378 l 1
 1058 -379 1013 -380 973 -380 c 0
 473 -380 75 -103 75 381 c 0
 75 665 248 897 444 1011 c 1
 460 1021 479 1024 498 1024 c 0
 552 1024 588 975 588 925 c 0
 588 892 568 866 540 850 c 1
 395 766 266 585 266 388 c 0
 266 -14 590 -190 1014 -190 c 0
 1043 -190 1074 -190 1106 -189 c 0
 1376 -180 l 0
 1681 -170 1922 -81 1922 203 c 0
 1922 346 1849 440 1758 478 c 1
 1746 222 1582 -11 1299 -11 c 0
 1171 -11 1065 56 1000 123 c 1
EndSplineSet
LCarets2: 1 0
EndChar

StartChar: k1sh
Encoding: 65568 -1 149
Width: 3046
GlyphClass: 3
LigCaretCntFixed: 1
Flags: HW
LayerCount: 2
Fore
SplineSet
980 -5 m 4
 853 -5 748 54 678 123 c 5
 617 45 513 -8 405 -8 c 4
 387 -8 368 -6 350 -3 c 4
 207 22 75 150 75 316 c 4
 75 501 216 614 353 662 c 4
 418 685 483 695 546 699 c 5
 583 835 670 954 788 1017 c 4
 848 1049 914 1065 981 1065 c 4
 1045 1065 1109 1051 1167 1021 c 4
 1291 958 1381 835 1418 694 c 5
 1532 673 1626 623 1694 531 c 4
 1741 468 1766 392 1766 314 c 4
 1766 276 1761 238 1748 201 c 5
 2314 201 l 5
 2315 378 l 5
 2303 377 2291 377 2280 377 c 4
 2110 377 1965 459 1895 578 c 4
 1861 636 1845 695 1845 753 c 4
 1845 935 1997 1095 2194 1095 c 4
 2195 1095 2195 1095 2196 1095 c 4
 2399 1095 2518 960 2518 755 c 4
 2518 748 2518 742 2518 736 c 6
 2517 645 l 5
 2645 719 2746 855 2773 1010 c 4
 2781 1056 2825 1092 2871 1092 c 4
 2926 1092 2972 1047 2972 992 c 6
 2972 101 l 6
 2972 46 2926 1 2871 1 c 6
 1542 1 l 6
 1487 1 1442 46 1442 101 c 4
 1442 133 1465 173 1493 189 c 4
 1539 215 1566 264 1566 317 c 4
 1566 400 1504 454 1438 481 c 5
 1431 377 1400 273 1335 184 c 4
 1263 86 1140 -5 980 -5 c 4
2196 894 m 4
 2112 894 2045 834 2045 756 c 4
 2045 731 2052 705 2067 680 c 4
 2105 615 2185 577 2282 577 c 4
 2293 577 2305 578 2317 579 c 5
 2318 738 l 6
 2318 790 2317 822 2298 850 c 4
 2278 879 2238 894 2196 894 c 4
1202 706 m 5
 1165 787 1092 867 981 867 c 4
 870 867 796 785 760 704 c 5
 1202 706 l 5
2772 591 m 5
 2700 518 2612 460 2516 423 c 5
 2514 201 l 5
 2772 201 l 5
 2772 591 l 5
1227 506 m 6
 724 503 l 5
 729 382 783 277 867 227 c 4
 902 206 940 195 979 195 c 4
 1013 195 1049 203 1082 221 c 4
 1174 270 1233 379 1239 506 c 5
 1235 506 1231 506 1227 506 c 6
409 193 m 4
 487 193 549 258 549 335 c 4
 549 337 549 339 549 341 c 4
 534 392 526 444 524 496 c 5
 441 486 368 461 322 415 c 4
 295 388 276 351 276 314 c 4
 276 243 342 193 409 193 c 4
EndSplineSet
LCarets2: 2 0 0
EndChar

StartChar: k3u1
Encoding: 65574 -1 155
Width: 1804
GlyphClass: 3
Flags: HW
LayerCount: 2
Fore
SplineSet
422 -216 m 2
 318 -216 267 -242 267 -298 c 0
 267 -342 305 -377 436 -377 c 0
 1634 -378 l 0
 1686 -378 1729 -421 1729 -473 c 0
 1729 -513 1694 -568 1648 -568 c 0
 440 -567 l 0
 245 -567 77 -497 77 -295 c 0
 77 -100 246 -26 420 -26 c 0
 445 -26 l 1
 897 -33 l 1
 916 -33 935 -34 952 -34 c 0
 1303 -34 1540 108 1540 430 c 0
 1540 639 1424 830 1217 830 c 0
 1056 830 992 722 992 537 c 0
 992 450 l 0
 992 182 866 -20 577 -20 c 0
 286 -20 75 220 75 477 c 0
 75 744 242 935 446 1015 c 1
 460 1022 474 1023 490 1023 c 0
 535 1023 578 979 578 933 c 0
 578 890 552 853 518 840 c 1
 379 787 265 660 265 483 c 0
 265 323 401 168 577 168 c 0
 749 168 800 277 802 456 c 1
 802 543 l 0
 802 816 928 1021 1222 1021 c 0
 1543 1021 1730 723 1730 433 c 0
 1730 -11 1401 -223 940 -223 c 0
 894 -223 l 1
 443 -216 l 1
 422 -216 l 2
EndSplineSet
LCarets2: 1 0
EndChar

StartChar: k3u2
Encoding: 65575 -1 156
Width: 1759
GlyphClass: 3
Flags: HW
LayerCount: 2
Fore
SplineSet
1249 1021 m 0
 1460 1021 1647 864 1647 658 c 0
 1647 570 1609 489 1555 431 c 1
 1629 374 1682 287 1682 171 c 0
 1682 -105 1448 -212 1174 -215 c 1
 1137 -215 990 -214 955 -214 c 0
 451 -214 l 0
 330 -214 265 -238 265 -303 c 0
 265 -364 329 -388 442 -388 c 0
 1589 -388 l 0
 1641 -388 1684 -431 1684 -483 c 0
 1684 -535 1641 -578 1589 -578 c 0
 441 -578 l 0
 259 -578 75 -509 75 -302 c 0
 75 -90 262 -24 451 -24 c 0
 955 -24 l 0
 1007 -24 1093 -25 1164 -25 c 0
 1329 -25 1504 101 1504 194 c 0
 1504 231 1479 272 1394 305 c 1
 1369 315 1359 315 1344 315 c 0
 1336 315 1324 314 1309 314 c 0
 1259 314 1223 362 1223 401 c 0
 1223 459 1259 501 1315 506 c 1
 1392 513 1458 580 1458 653 c 0
 1458 753 1353 830 1232 830 c 0
 1060 830 995 728 995 541 c 0
 995 454 l 0
 995 199 871 -7 595 -7 c 0
 278 -7 78 224 79 532 c 1
 79 760 256 944 436 1015 c 1
 450 1022 464 1023 481 1023 c 0
 526 1023 569 979 569 933 c 0
 569 890 543 853 510 840 c 1
 381 790 269 667 269 504 c 0
 269 330 406 184 586 184 c 0
 744 184 805 288 805 465 c 0
 805 552 l 0
 805 836 942 1021 1249 1021 c 0
EndSplineSet
LCarets2: 1 0
EndChar

StartChar: k3r1
Encoding: 65576 -1 157
Width: 1831
GlyphClass: 3
Flags: HW
LayerCount: 2
Fore
SplineSet
653 -317 m 0
 653 -378 725 -393 860 -393 c 0
 948 -393 1001 -367 1001 -320 c 0
 1001 -273 925 -231 822 -231 c 0
 722 -231 653 -271 653 -317 c 0
497 1017 m 0
 543 1017 584 968 584 925 c 0
 584 880 554 845 520 832 c 1
 382 786 267 664 267 500 c 0
 267 323 399 169 593 169 c 0
 752 169 819 269 819 447 c 0
 819 533 l 1
 821 801 939 1018 1230 1018 c 0
 1572 1018 1756 702 1756 385 c 0
 1756 -135 1361 -583 839 -583 c 0
 636 -583 462 -513 462 -315 c 0
 462 -124 637 -44 819 -44 c 0
 1000 -44 1168 -113 1190 -285 c 1
 1384 -164 1567 93 1567 379 c 0
 1567 621 1445 828 1229 828 c 0
 1062 828 1009 710 1009 528 c 0
 1009 441 l 0
 1009 172 880 -20 589 -20 c 0
 294 -20 75 218 75 485 c 0
 75 712 250 1017 497 1017 c 0
EndSplineSet
LCarets2: 1 0
EndChar

StartChar: k3k3
Encoding: 65577 -1 158
Width: 1829
GlyphClass: 3
LigCaretCntFixed: 1
Flags: HW
LayerCount: 2
Fore
SplineSet
554.676757812 -384 m 0
 554.676757812 -494 645.676757812 -592 753.676757812 -592 c 0
 847.676757812 -592 884.676757812 -531 884.676757812 -402 c 0
 884.676757812 -338 l 0
 884.676757812 -133 991.676757812 14 1195.67675781 14 c 0
 1405.67675781 14 1559.67675781 -168 1559.67675781 -359 c 0
 1559.67675781 -563 1430.67675781 -711 1267.67675781 -759 c 1
 1260.67675781 -761 1250.67675781 -764 1239.67675781 -764 c 0
 1194.67675781 -764 1158.67675781 -724 1158.67675781 -686 c 0
 1158.67675781 -642 1179.67675781 -606 1220.67675781 -595 c 1
 1310.67675781 -569 1389.67675781 -478 1389.67675781 -372 c 0
 1389.67675781 -249 1308.67675781 -159 1190.67675781 -159 c 0
 1093.67675781 -159 1054.67675781 -221 1054.67675781 -340 c 0
 1054.67675781 -404 l 0
 1054.67675781 -610 953.676757812 -764 751.676757812 -764 c 0
 548.676757812 -764 384.676757812 -588 384.676757812 -390 c 0
 384.676757812 -194 497.676757812 -55 638.676757812 5 c 0
 639.676757812 5 l 1
 639.676757812 5 l 0
 649.676757812 8 663.676757812 12 678.676757812 12 c 0
 720.676757812 12 757.676757812 -29 757.676757812 -69 c 0
 757.676757812 -107 739.676757812 -138 704.676757812 -154 c 1
 620.676757812 -189 554.676757812 -269 554.676757812 -384 c 0
EndSplineSet
Refer: 59 3351 S 1 0 0 1 0 8 2
LCarets2: 2 0 0
EndChar

StartChar: k3k3u1
Encoding: 65578 -1 159
Width: 1829
GlyphClass: 3
LigCaretCntFixed: 1
Flags: HW
LayerCount: 2
Fore
SplineSet
951.676757812 -739 m 1
 1051.67675781 -739 l 0
 1181.67675781 -739 1248.67675781 -730 1320.67675781 -674 c 1
 1395.67675781 -616 1432.67675781 -538 1432.67675781 -433 c 0
 1432.67675781 -298 1350.67675781 -163 1237.67675781 -163 c 0
 1124.67675781 -163 1094.67675781 -224 1094.67675781 -357 c 0
 1094.67675781 -420 l 0
 1094.67675781 -560 1047.67675781 -679 951.676757812 -739 c 1
632.676757812 -742 m 1
 508.676757812 -678 424.676757812 -548 424.676757812 -405 c 0
 424.676757812 -199 541.676757812 -59 691.676757812 5 c 1
 702.676757812 10 714.676757812 12 725.676757812 12 c 0
 773.676757812 12 809.676757812 -28 809.676757812 -70 c 0
 809.676757812 -109 791.676757812 -141 756.676757812 -156 c 0
 667.676757812 -193 594.676757812 -279 594.676757812 -401 c 0
 594.676757812 -513 682.676757812 -612 789.676757812 -612 c 0
 878.676757812 -612 924.676757812 -559 924.676757812 -419 c 0
 924.676757812 -356 l 0
 924.676757812 -149 1024.67675781 10 1227.67675781 10 c 0
 1465.67675781 10 1602.67675781 -206 1602.67675781 -430 c 0
 1602.67675781 -758 1358.67675781 -916 1039.67675781 -916 c 0
 689.676757812 -916 l 0
 606.676757812 -916 595.676757812 -930 595.676757812 -942 c 0
 595.676757812 -951 608.676757812 -970 695.676757812 -970 c 0
 1491.67675781 -970 l 0
 1555.67675781 -970 1601.67675781 -1000 1601.67675781 -1062 c 0
 1601.67675781 -1122 1553.67675781 -1151 1489.67675781 -1151 c 0
 668.676757812 -1151 l 0
 554.676757812 -1151 425.676757812 -1074 425.676757812 -936 c 0
 425.676757812 -813 525.676757812 -755 632.676757812 -742 c 1
EndSplineSet
Refer: 59 3351 N 1 0 0 1 0 0 2
LCarets2: 1 0
EndChar

StartChar: k3k3u2
Encoding: 65579 -1 160
Width: 1829
GlyphClass: 3
LigCaretCntFixed: 1
Flags: HW
LayerCount: 2
Fore
SplineSet
953.676757812 -744 m 1
 1252.67675781 -744 l 1
 1357.67675781 -743 1429.67675781 -701 1429.67675781 -624 c 0
 1429.67675781 -581 1394.67675781 -537 1345.67675781 -537 c 0
 1339.67675781 -537 1330.67675781 -538 1318.67675781 -538 c 0
 1280.67675781 -538 1241.67675781 -501 1241.67675781 -458 c 0
 1241.67675781 -414 1268.67675781 -372 1313.67675781 -367 c 1
 1371.67675781 -362 1404.67675781 -317 1404.67675781 -270 c 0
 1404.67675781 -209 1341.67675781 -155 1262.67675781 -155 c 0
 1155.67675781 -155 1117.67675781 -223 1117.67675781 -352 c 0
 1117.67675781 -416 l 0
 1117.67675781 -566 1063.67675781 -689 953.676757812 -744 c 1
677.676757812 -746 m 1
 538.676757812 -687 441.676757812 -546 441.676757812 -391 c 1
 442.676757812 -194 556.676757812 -50 702.676757812 11 c 1
 713.676757812 16 727.676757812 18 741.676757812 18 c 0
 781.676757812 18 820.676757812 -22 820.676757812 -63 c 0
 820.676757812 -102 801.676757812 -134 767.676757812 -147 c 1
 679.676757812 -184 610.676757812 -268 610.676757812 -390 c 0
 610.676757812 -504 701.676757812 -605 812.676757812 -605 c 0
 902.676757812 -605 948.676757812 -553 948.676757812 -415 c 0
 948.676757812 -351 l 0
 948.676757812 -140 1055.67675781 16 1262.67675781 16 c 0
 1434.67675781 16 1577.67675781 -122 1577.67675781 -275 c 0
 1577.67675781 -330 1557.67675781 -386 1517.67675781 -436 c 1
 1570.67675781 -486 1598.67675781 -557 1598.67675781 -628 c 0
 1598.67675781 -824 1419.67675781 -915 1225.67675781 -915 c 0
 719.676757812 -915 l 0
 626.676757812 -915 607.676757812 -935 607.676757812 -953 c 0
 607.676757812 -967 622.676757812 -987 712.676757812 -987 c 0
 1515.67675781 -987 l 0
 1553.67675781 -987 1600.67675781 -1029 1600.67675781 -1072 c 0
 1600.67675781 -1107 1573.67675781 -1159 1528.67675781 -1159 c 0
 712.676757812 -1159 l 0
 564.676757812 -1159 438.676757812 -1089 438.676757812 -955 c 0
 438.676757812 -821 543.676757812 -756 677.676757812 -746 c 1
EndSplineSet
Refer: 59 3351 N 1 0 0 1 0 0 2
LCarets2: 1 0
EndChar

StartChar: k3k3r1
Encoding: 65580 -1 161
Width: 1818
GlyphClass: 3
LigCaretCntFixed: 1
Flags: HW
LayerCount: 2
Fore
SplineSet
1250 -847 m 1
 1247 -840 1222 -828 1173 -828 c 0
 1115 -828 1098 -840 1097 -845 c 1
 1105 -851 1132 -858 1153 -858 c 0
 1192 -858 l 0
 1223 -858 1243 -851 1250 -847 c 1
1192 -660 m 1
 1293 -665 1373 -705 1406 -783 c 1
 1498 -710 1590 -568 1590 -417 c 0
 1590 -287 1525 -169 1416 -169 c 0
 1347 -169 1311 -213 1311 -327 c 0
 1311 -387 l 1
 1310 -506 1271 -605 1192 -660 c 1
1000 -705 m 1
 828 -689 696 -534 696 -355 c 0
 696 -186 807 -50 941 -2 c 0
 942 -1 l 1
 944 -1 l 0
 945 -1 966 3 974 3 c 0
 1009 3 1055 -26 1055 -73 c 0
 1055 -74 l 0
 1055 -115 1037 -151 999 -165 c 1
 929 -191 864 -271 864 -353 c 0
 864 -457 940 -536 1035 -536 c 0
 1112 -536 1138 -488 1141 -385 c 1
 1141 -330 l 0
 1141 -146 1223 4 1416 4 c 0
 1638 4 1759 -213 1759 -413 c 0
 1759 -747 1503 -1030 1182 -1030 c 0
 1052 -1030 926 -983 926 -842 c 0
 926 -780 957 -734 1000 -705 c 1
EndSplineSet
Refer: 59 3351 N 1 0 0 1 0 0 2
LCarets2: 1 0
EndChar

StartChar: k3th3
Encoding: 65581 -1 162
Width: 1736
GlyphClass: 3
LigCaretCntFixed: 1
Flags: HW
LayerCount: 2
Fore
SplineSet
1472 272 m 0
 1472 337 1412 363 1303 366 c 1
 1270 366 l 0
 1218 366 1176 410 1176 460 c 0
 1176 506 1209 556 1260 556 c 0
 1283 556 1298 560 1326 560 c 0
 1392 560 1442 615 1442 673 c 0
 1442 776 1321 831 1200 831 c 0
 1016 831 947 739 945 548 c 1
 945 427 l 1
 942 173 823 -55 550 -55 c 0
 271 -55 75 210 75 461 c 0
 75 720 228 926 414 1014 c 1
 428 1021 445 1025 463 1025 c 0
 507 1025 551 981 551 938 c 0
 551 896 533 861 496 843 c 1
 374 787 266 642 266 473 c 0
 266 315 382 136 538 136 c 0
 695 136 750 253 752 430 c 1
 752 550 l 1
 757 832 905 1023 1192 1023 c 0
 1414 1023 1632 905 1632 675 c 0
 1632 603 1605 534 1560 481 c 1
 1627 428 1661 359 1661 273 c 0
 1661 80 1488 -44 1299 -44 c 0
 1233 -44 1071 -27 1071 87 c 0
 1071 133 1114 176 1160 176 c 0
 1213 176 1261 145 1297 145 c 0
 1388 145 1472 203 1472 272 c 0
EndSplineSet
LCarets2: 2 0 0
EndChar

StartChar: k3th3r1
Encoding: 65584 -1 165
Width: 1817
GlyphClass: 3
LigCaretCntFixed: 1
Flags: HW
LayerCount: 2
Fore
SplineSet
943 -189 m 0
 943 -269 1068 -317 1176 -317 c 0
 1196 -317 1218 -315 1237 -312 c 1
 1120 -196 1042 -145 999 -145 c 0
 958 -145 943 -167 943 -189 c 0
1198 832 m 0
 1016 832 945 740 945 554 c 0
 945 440 l 1
 943 195 821 -21 552 -21 c 0
 272 -21 75 229 75 475 c 0
 75 729 224 926 410 1013 c 1
 425 1020 442 1023 459 1023 c 0
 504 1023 547 979 547 934 c 0
 547 894 530 860 493 842 c 1
 372 787 267 643 267 491 c 0
 267 318 384 170 553 170 c 0
 690 170 750 281 753 443 c 1
 753 565 l 1
 758 836 905 1023 1190 1023 c 0
 1413 1023 1632 906 1632 681 c 0
 1632 598 1596 519 1539 465 c 1
 1660 373 1745 231 1745 41 c 0
 1745 -266 1485 -508 1172 -508 c 0
 1170 -508 l 1
 992 -478 l 1
 991 -477 l 0
 867 -435 753 -343 753 -195 c 0
 753 -44 872 47 1006 47 c 0
 1056 47 1104 33 1151 7 c 1
 1230 -39 1325 -115 1425 -211 c 1
 1512 -140 1553 -56 1553 56 c 0
 1553 222 1431 348 1284 376 c 1
 1237 381 1176 404 1176 472 c 0
 1176 522 1211 571 1271 571 c 0
 1281 571 1310 567 1323 567 c 0
 1384 567 1443 613 1443 675 c 0
 1443 776 1322 832 1198 832 c 0
EndSplineSet
LCarets2: 1 0
EndChar

StartChar: k3th3th4
Encoding: 65585 -1 166
Width: 2954
GlyphClass: 3
LigCaretCntFixed: 1
Flags: HW
LayerCount: 2
Fore
SplineSet
1115 70 m 1
 1112 71 1112 71 1112 71 c 1
 1078 86 1066 126 1066 156 c 0
 1066 199 1109 243 1154 243 c 0
 1171 243 1185 241 1195 237 c 1
 1236 222 1276 215 1316 215 c 0
 1393 215 1477 249 1477 293 c 0
 1477 336 1403 357 1304 359 c 1
 1271 359 l 1
 1221 360 1179 401 1179 452 c 0
 1179 500 1214 544 1258 551 c 0
 1259 551 l 1
 1288 551 l 1
 1395 567 1445 598 1445 666 c 0
 1445 750 1339 827 1233 827 c 0
 1023 827 965 680 948 469 c 1
 929 217 817 -21 524 -21 c 0
 239 -21 75 224 75 472 c 0
 75 706 190 885 342 992 c 1
 358 1004 378 1011 401 1011 c 0
 455 1011 494 966 494 917 c 0
 494 889 479 865 455 848 c 1
 355 778 264 639 264 485 c 0
 264 312 375 169 526 169 c 0
 693 169 740 299 754 481 c 0
 776 767 909 1018 1220 1018 c 0
 1434 1018 1635 879 1635 669 c 0
 1635 599 1608 532 1563 482 c 1
 1619 443 1666 381 1666 296 c 0
 1666 264 1659 234 1646 208 c 1
 1762 251 1855 336 1855 446 c 0
 1855 910 l 0
 1855 959 1901 999 1951 999 c 0
 2002 999 2047 958 2047 908 c 0
 2047 436 l 1
 2066 294 2202 179 2362 179 c 0
 2550 179 2688 313 2688 491 c 0
 2688 670 2531 831 2346 831 c 0
 2320 831 2294 824 2257 824 c 0
 2209 824 2174 877 2174 918 c 0
 2174 961 2205 1021 2258 1021 c 0
 2618 1021 2880 834 2880 496 c 0
 2880 192 2634 -13 2359 -13 c 0
 2183 -13 2031 83 1944 206 c 1
 1845 75 1687 -15 1460 -15 c 0
 1350 -15 1237 12 1124 65 c 1
 1117 68 l 1
 1115 70 l 1
EndSplineSet
LCarets2: 4 1 2979 0 0
EndChar

StartChar: k3n1
Encoding: 65588 -1 169
Width: 2397
GlyphClass: 3
LigCaretCntFixed: 1
Flags: HW
LayerCount: 2
Fore
SplineSet
1802 861 m 0
 1650 861 1550 766 1521 636 c 1
 1521 36 l 0
 1521 -13 1480 -57 1431 -57 c 0
 1373 -57 1331 -19 1331 36 c 0
 1331 524 l 1
 1330 673 1295 769 1234 821 c 1
 1203 848 1174 857 1143 857 c 0
 1050 857 982 766 982 661 c 0
 982 612 1015 437 1015 355 c 0
 1015 114 827 -62 585 -62 c 0
 275 -62 75 209 75 495 c 0
 75 738 197 926 343 1036 c 0
 343 1036 l 1
 344 1036 l 0
 361 1047 379 1055 399 1055 c 0
 456 1055 496 1010 496 961 c 0
 496 928 482 901 457 882 c 1
 355 806 266 672 266 509 c 0
 266 309 385 130 585 130 c 0
 723 130 825 222 825 361 c 0
 825 471 791 586 791 665 c 0
 791 856 936 1050 1138 1050 c 0
 1282 1050 1380 965 1437 874 c 1
 1518 985 1638 1054 1803 1054 c 0
 2100 1054 2322 802 2322 512 c 0
 2322 235 2141 38 1922 -30 c 1
 1866 -47 1811 -56 1754 -56 c 0
 1691 -56 1606 -44 1606 45 c 0
 1606 87 1641 139 1689 139 c 0
 1712 139 l 1
 1713 139 l 0
 1726 137 1740 137 1755 137 c 0
 1970 137 2132 296 2132 506 c 0
 2132 691 1999 861 1802 861 c 0
EndSplineSet
LCarets2: 2 0 2
EndChar

StartChar: k3n1u1
Encoding: 65589 -1 170
Width: 2504
GlyphClass: 3
LigCaretCntFixed: 1
Flags: HW
LayerCount: 2
Fore
SplineSet
2048 460 m 0
 1956 460 1877 393 1877 297 c 0
 1877 212 1950 134 2042 134 c 0
 2126 134 2203 207 2203 297 c 0
 2203 373 2144 460 2048 460 c 0
2181 621 m 1
 2112 755 1989 859 1812 859 c 0
 1711 859 1634 823 1576 750 c 1
 1513 669 1502 596 1502 437 c 0
 1502 40 l 1
 1501 -19 1461 -52 1400 -53 c 1
 1351 -53 1312 -5 1312 40 c 0
 1312 503 l 1
 1311 661 1277 765 1217 821 c 1
 1185 851 1155 863 1123 863 c 0
 1015 863 967 773 967 626 c 0
 967 615 967 604 968 594 c 0
 968 594 l 1
 968 593 l 0
 968 591 969 585 971 576 c 0
 972 575 l 1
 972 574 l 0
 987 484 995 410 995 352 c 0
 995 127 813 -45 602 -52 c 1
 584 -52 l 0
 294 -52 75 197 75 495 c 0
 75 740 214 938 374 1042 c 1
 390 1052 408 1058 430 1058 c 0
 485 1058 521 1008 521 958 c 0
 521 925 503 898 476 882 c 1
 367 812 265 672 265 499 c 0
 265 300 380 140 572 140 c 0
 706 140 807 237 807 364 c 0
 807 413 774 588 774 618 c 0
 774 634 l 0
 774 855 904 1053 1120 1053 c 0
 1255 1053 1364 964 1423 863 c 1
 1510 979 1643 1052 1819 1052 c 0
 2128 1052 2342 805 2408 557 c 1
 2422 501 2429 447 2429 395 c 0
 2429 162 2284 -56 2041 -56 c 0
 1839 -56 1687 101 1687 303 c 0
 1687 500 1850 651 2047 651 c 0
 2094 651 2140 640 2181 621 c 1
EndSplineSet
LCarets2: 1 0
EndChar

StartChar: k3n1u2
Encoding: 65590 -1 171
Width: 2723
GlyphClass: 3
LigCaretCntFixed: 1
Flags: HW
LayerCount: 2
Fore
SplineSet
2032 123 m 0
 2140 123 2211 231 2211 358 c 0
 2211 380 2209 405 2205 430 c 1
 2171 440 2142 443 2113 443 c 0
 1991 443 1893 364 1893 266 c 0
 1893 186 1958 123 2032 123 c 0
1806 834 m 0
 1643 834 1535 736 1504 598 c 1
 1504 32 l 0
 1504 -19 1461 -62 1409 -62 c 0
 1357 -62 1314 -20 1314 30 c 0
 1314 477 l 0
 1314 637 1280 740 1220 794 c 1
 1188 822 1155 833 1124 833 c 0
 1032 833 965 746 965 643 c 0
 965 595 997 427 997 347 c 0
 997 115 814 -58 581 -58 c 0
 298 -58 75 183 75 472 c 0
 75 723 213 910 376 1013 c 1
 391 1022 409 1028 431 1028 c 0
 486 1028 522 980 522 930 c 0
 522 899 504 872 477 856 c 1
 368 788 267 652 267 489 c 0
 267 291 392 132 580 132 c 0
 712 132 807 225 807 355 c 0
 807 464 774 573 774 651 c 0
 774 838 920 1023 1117 1023 c 0
 1255 1023 1362 938 1423 838 c 1
 1506 949 1634 1024 1800 1024 c 0
 2097 1024 2292 797 2367 566 c 1
 2526 483 2648 329 2648 107 c 1
 2647 -181 2417 -406 2125 -406 c 0
 2022 -406 1920 -377 1835 -320 c 1
 1809 -303 1792 -277 1792 -246 c 0
 1792 -196 1828 -147 1883 -147 c 0
 1905 -147 1924 -153 1941 -163 c 1
 1999 -200 2061 -216 2121 -216 c 0
 2297 -216 2457 -74 2457 90 c 0
 2457 95 l 0
 2457 175 2436 241 2398 296 c 1
 2375 112 2249 -65 2042 -65 c 0
 1860 -65 1702 74 1702 260 c 0
 1702 480 1886 631 2113 631 c 0
 2119 631 2125 631 2131 631 c 1
 2065 735 1948 834 1806 834 c 0
EndSplineSet
LCarets2: 1 0
EndChar

StartChar: k3m1
Encoding: 65591 -1 172
Width: 2009
GlyphClass: 3
LigCaretCntFixed: 1
Flags: HW
LayerCount: 2
Fore
SplineSet
1583 653 m 0
 1583 462 1457 293 1335 185 c 1
 1743 185 l 1
 1743 506 l 0
 1743 622 1663 716 1562 772 c 1
 1576 732 1583 694 1583 653 c 0
1305 1026 m 0
 1615 1026 1934 843 1934 566 c 0
 1934 85 l 0
 1934 34 1889 -5 1838 -5 c 0
 1019 -5 l 0
 963 -5 924 42 924 91 c 0
 924 133 954 170 991 184 c 1
 1139 240 1273 355 1341 483 c 0
 1375 548 1391 600 1391 633 c 0
 1391 637 l 0
 1391 750 1340 822 1235 822 c 0
 1076 822 1024 682 1014 510 c 1
 1014 462 l 1
 1014 462 l 0
 1007 318 985 229 909 137 c 1
 840 49 723 -22 577 -22 c 0
 284 -22 75 223 75 498 c 0
 75 739 225 924 400 1013 c 1
 416 1022 431 1025 446 1025 c 0
 495 1025 541 989 541 937 c 0
 541 898 519 868 489 854 c 1
 369 793 265 668 265 503 c 0
 265 324 397 168 578 168 c 0
 750 168 812 289 822 469 c 1
 822 519 l 1
 822 520 l 0
 831 693 865 802 968 900 c 0
 1057 984 1170 1026 1305 1026 c 0
EndSplineSet
LCarets2: 2 0 0
EndChar

StartChar: k3r3
Encoding: 65594 -1 175
Width: 2273
GlyphClass: 3
Flags: HW
LayerCount: 2
Fore
SplineSet
1259 560 m 2
 1259 827 1389 1023 1681 1023 c 0
 1840 1023 1981 925 2054 831 c 1
 2149 720 2197 584 2198 426 c 1
 2198 4 1927 -271 1572 -340 c 0
 1497 -354 1397 -361 1267 -361 c 0
 1095 -361 l 1
 818 -360 668 -338 475 -235 c 1
 261 -121 75 137 75 441 c 0
 75 680 179 867 310 996 c 1
 329 1015 352 1024 378 1024 c 0
 431 1024 473 985 473 934 c 0
 473 909 463 886 444 869 c 1
 347 779 265 630 265 460 c 0
 265 325 302 233 373 137 c 1
 523 -100 723 -167 1096 -170 c 1
 1261 -170 l 0
 1514 -170 1642 -150 1786 -35 c 1
 1903 47 2008 207 2008 384 c 0
 2008 595 1931 744 1788 807 c 1
 1749 824 1710 831 1673 831 c 0
 1564 831 1477 766 1458 670 c 1
 1452 642 1449 602 1449 553 c 0
 1449 467 l 0
 1449 323 1432 238 1356 148 c 1
 1287 61 1175 -4 1031 -4 c 0
 731 -4 515 235 515 501 c 0
 515 760 688 950 897 1019 c 1
 912 1025 923 1025 938 1025 c 0
 982 1025 1024 979 1024 937 c 0
 1024 886 994 851 943 833 c 1
 812 795 705 659 705 504 c 0
 705 332 850 187 1034 187 c 0
 1204 187 1259 291 1259 473 c 0
 1259 560 l 2
EndSplineSet
LCarets2: 1 0
EndChar

